<svg width="54" height="112" viewBox="0 0 54 112" fill="none" xmlns="http://www.w3.org/2000/svg">
<path d="M18.0053 111.318H36.3353C42.292 111.318 48.4404 104.615 48.5793 98.7345L49.4323 17.1759C49.4551 15.008 49.0426 12.8571 48.2186 10.8477C47.3946 8.83824 46.1754 7.01016 44.6317 5.4692C43.088 3.92824 41.2503 2.70498 39.225 1.87018C37.1996 1.03538 35.0268 0.605596 32.8323 0.605713H21.5132C19.3184 0.605602 17.1454 1.03535 15.1198 1.87009C13.0942 2.70484 11.2562 3.92804 9.71207 5.46894C8.16795 7.00983 6.94836 8.83784 6.12382 10.8473C5.29928 12.8567 4.88615 15.0078 4.90832 17.1759L5.76611 98.7345C5.90508 104.615 12.0487 111.318 18.0053 111.318Z" fill="#1C9181"/>
<path d="M14.5349 3.01245C14.5349 3.01245 13.6915 4.76524 12.7051 7.50752C11.5026 10.8613 10.4771 14.2707 9.63254 17.7227C9.1788 19.6075 8.7596 21.4922 8.44396 23.3016C8.12831 25.1109 7.87678 26.7789 7.69923 28.2301C7.61045 28.9557 7.56112 29.6437 7.50194 30.2185C7.44275 30.7933 7.41811 31.3305 7.39345 31.7546C7.34413 32.6121 7.31452 33.0974 7.31452 33.0974H9.17388C9.17388 33.0974 9.17388 32.6262 9.17388 31.7922C9.17388 31.3729 9.17388 30.8499 9.17388 30.2892C9.17388 29.7285 9.20345 29.0547 9.25277 28.3385C9.33662 26.9249 9.46978 25.2428 9.68679 23.4617C9.9038 21.6807 10.18 19.7771 10.5302 17.8877C11.1577 14.4188 11.9692 10.9826 12.9616 7.59233C13.7951 4.80764 14.5349 3.01245 14.5349 3.01245Z" fill="#34A798"/>
<path d="M7.57153 93.6745H7.4399C7.23303 91.1276 7.04497 87.9195 6.87571 84.3156C6.8475 83.7103 6.8193 83.0911 6.79109 82.4532C6.53721 76.5027 6.32092 69.6489 6.18458 62.8975C6.18458 62.3109 6.16109 61.7288 6.14699 61.1468C5.94952 51.1455 6.61714 39.7287 6.73468 34.1413C6.73468 34.1413 6.73468 32.8842 6.70647 32.1997C9.59789 28.9405 14.1536 28.2839 26.495 28.2839C35.1223 28.2839 40.8957 28.568 44.0504 30.3745C45.5032 31.208 44.9249 30.3745 45.8229 31.4408C45.8229 31.9949 45.3527 93.6558 45.3527 93.6558C42.0617 101.185 36.9935 105.096 26.4762 105.296C10.2467 105.566 8.23444 95.509 7.57153 93.6745Z" fill="#34A798"/>
<path d="M9.72144 87.2175L7.99491 94.4332L7.68435 94.4708C7.55125 91.8962 7.42555 88.6531 7.31464 85.0099L9.61053 83.6403C9.6475 84.8782 9.67707 86.0784 9.72144 87.2175Z" fill="#373C3D"/>
<path d="M6.11124 63.1823H9.22891C9.34712 69.7315 9.50965 76.3588 9.72144 82.215L6.65793 83.64C6.4166 77.4227 6.23929 70.239 6.11124 63.1823Z" fill="#373C3D"/>
<path d="M6.86898 31.8943C6.86898 31.8943 9.55696 52.7332 9.56264 53.1998C9.59666 56.3996 9.65339 58.525 9.72144 61.9793H6.13746C5.95599 51.852 6.77258 37.5823 6.86898 31.8943Z" fill="#373C3D"/>
<path d="M9.66845 81.2335C9.68737 82.1739 9.70251 83.1004 9.72144 84.02L7.37139 86.0471C7.35247 85.1415 7.33356 84.215 7.31464 83.2607L9.66845 81.2335Z" fill="#34A798"/>
<path d="M6.11124 61.9791H9.68188C9.68188 62.3792 9.68189 62.7825 9.72144 63.1825H6.14514L6.11124 61.9791Z" fill="#34A798"/>
<path d="M7.31409 39.1144L2.05488 41.5728C1.28492 41.9317 0.684461 42.5177 0.359658 43.2273C0.0348554 43.9369 0.00664568 44.7244 0.279978 45.4505L0.612762 46.3348L5.35764 44.3583L6.2451 42.718L6.79474 41.9132L7.31409 39.1144Z" fill="#1C9181"/>
<path d="M12.0992 94.4708C12.2074 91.144 12.0228 60.2283 11.3735 47.5382L10.9248 47.5892C11.5613 60.2608 11.7586 91.1207 11.6504 94.4522L12.0992 94.4708Z" fill="#1C9181"/>
<path d="M39.8059 3.01245C39.8059 3.01245 40.4236 4.8068 41.1032 7.59018C41.937 10.9827 42.6175 14.4222 43.1418 17.8948C43.4301 19.7786 43.6731 21.6625 43.846 23.4663C44.019 25.2701 44.1426 26.9137 44.2085 28.3407C44.2538 29.0566 44.2579 29.7112 44.2743 30.2905C44.2908 30.8698 44.2949 31.3737 44.2743 31.7929C44.2743 32.6217 44.2743 33.0974 44.2743 33.0974H45.8229C45.8229 33.0974 45.8023 32.6264 45.7611 31.7552C45.7611 31.3266 45.7199 30.8132 45.6705 30.2198C45.6211 29.6264 45.584 28.9577 45.5016 28.2324C45.3575 26.7818 45.1639 25.0958 44.8839 23.3061C44.6038 21.5165 44.2743 19.6138 43.8872 17.73C43.1839 14.2789 42.3276 10.8711 41.3215 7.51955C40.5142 4.76443 39.8059 3.01245 39.8059 3.01245Z" fill="#34A798"/>
<path d="M43.4161 87.2175L45.1494 94.4332L45.4549 94.4708C45.591 91.8962 45.7125 88.6531 45.8229 85.0099L43.5375 83.6403C43.4897 84.8782 43.4529 86.0784 43.4161 87.2175Z" fill="#373C3D"/>
<path d="M47.0265 63.1823H43.9095C43.7911 69.7315 43.6284 76.3588 43.4163 82.215L46.484 83.64C46.7306 77.4227 46.9081 70.239 47.0265 63.1823Z" fill="#373C3D"/>
<path d="M46.2593 31.8943C46.2593 31.8943 43.5805 52.7332 43.5749 53.1998C43.5352 56.3996 43.4843 58.525 43.4163 61.9793H46.9956C47.1938 51.852 46.3783 37.5823 46.2593 31.8943Z" fill="#373C3D"/>
<path d="M43.4691 81.2335C43.4691 82.1739 43.435 83.1004 43.4161 84.02L45.7661 86.0471C45.7661 85.1415 45.804 84.215 45.8229 83.2607L43.4691 81.2335Z" fill="#34A798"/>
<path d="M47.0265 61.9791H43.4558C43.4558 62.3792 43.4558 62.7825 43.4163 63.1825H46.9756C46.9756 62.7793 47.0152 62.3792 47.0265 61.9791Z" fill="#34A798"/>
<path d="M47.0266 39.1144L51.4117 41.5728C52.0519 41.933 52.551 42.5192 52.8214 43.2283C53.0918 43.9375 53.1162 44.7243 52.8902 45.4505L52.613 46.3348L48.6605 44.3583L47.9171 42.718L47.4592 41.9132L47.0266 39.1144Z" fill="#1C9181"/>
<path d="M41.0711 94.4708L41.9647 94.4429C41.7556 91.1214 42.1232 60.2769 43.4161 47.5893L42.5225 47.5382C41.2296 60.2444 40.8429 91.1539 41.0711 94.4708Z" fill="#1C9181"/>
<path d="M26.2911 105.302C19.8747 105.266 14.9611 104.85 10.9244 99.7976C11.3242 96.9145 11.8878 93.2677 11.8878 93.2677C15.3995 98.7853 20.13 99.0022 27.1678 99.0113C34.2057 99.0203 38.941 98.7853 42.4527 93.2677C42.4527 93.2677 43.0163 96.9145 43.4161 99.7976C39.3842 104.85 34.4659 105.266 28.0542 105.302H26.2959H26.2911Z" fill="#373C3D"/>
<path d="M11.7632 48.7414C16.8766 47.1866 22.1866 46.4054 27.5231 46.4227C37.7193 46.4227 43.0664 48.7414 43.0664 48.7414L44.6198 30.3658C44.6198 30.3658 39.6599 27.0802 27.4079 27.0802C16.1284 27.0802 9.72118 30.6192 9.72118 30.6192L11.7632 48.7414Z" fill="#373C3D"/>
<path d="M45.8229 12.7803C45.8206 13.0058 45.7498 13.2249 45.6205 13.4064C45.4913 13.5879 45.3102 13.7228 45.1028 13.7918C44.8955 13.8608 44.6724 13.8605 44.4652 13.7909C44.258 13.7214 44.0772 13.586 43.9484 13.4041C43.307 12.4462 42.7562 11.4266 42.3035 10.3594C40.4147 6.21557 39.1524 2.81434 38.6025 1.80933C41.6676 3.31438 45.8037 6.45318 45.8229 12.7803Z" fill="#373C3D"/>
<path d="M7.31452 12.7803C7.31682 13.0058 7.3876 13.2249 7.51683 13.4064C7.64607 13.5879 7.82719 13.7228 8.03455 13.7918C8.24191 13.8608 8.465 13.8605 8.67219 13.7909C8.87938 13.7214 9.06017 13.586 9.18895 13.4041C9.83038 12.4462 10.3812 11.4266 10.8339 10.3594C12.7226 6.21557 13.985 2.81434 14.5349 1.80933C11.4698 3.31438 7.33365 6.45318 7.31452 12.7803Z" fill="#373C3D"/>
<path d="M37.3991 108.668C39.1528 107.923 40.7157 106.771 41.9658 105.301L43.4161 105.774C41.8705 107.659 39.9184 109.146 37.7158 110.115L37.3991 108.668Z" fill="#EC4F4F"/>
<path d="M15.7379 108.665C13.9827 107.924 12.4176 106.773 11.1657 105.301L9.72092 105.774C11.266 107.66 13.217 109.147 15.4179 110.115L15.7379 108.665Z" fill="#EC4F4F"/>
</svg>
