<svg width="65" height="125" viewBox="0 0 65 125" fill="none" xmlns="http://www.w3.org/2000/svg">
<path d="M9.39126 31.0616L2.79173 34.607C1.82827 35.1219 1.07762 35.9604 0.672178 36.9748C0.266733 37.9891 0.232541 39.114 0.575636 40.151L1.01886 41.4273L6.97128 38.5999L8.0882 36.2556L8.77518 35.1033L9.39126 31.0616Z" fill="#EDFCFF"/>
<path d="M0.797277 41.8395L0.265416 40.2263C-0.0999734 39.1173 -0.0615024 37.9148 0.37403 36.8313C0.809562 35.7479 1.61412 34.8533 2.6455 34.3056L9.80348 30.4899L9.01012 35.2629L8.3187 36.4151L7.17077 38.8082L0.797277 41.8395ZM8.98353 31.6466L2.93802 34.8684C2.03735 35.3471 1.3348 36.1286 0.954449 37.0749C0.574097 38.0212 0.540404 39.0715 0.859328 40.0402L1.16958 40.9797L6.70095 38.365L7.76911 36.1226L8.4428 34.9925L8.98353 31.6466Z" fill="#BECACC"/>
<path d="M55.6057 31.0616L62.2097 34.607C63.1725 35.1226 63.9226 35.9612 64.328 36.9753C64.7333 37.9894 64.768 39.1139 64.4258 40.151L64.0091 41.4273L58.0877 38.5777L56.9708 36.2334L56.2794 35.0812L55.6057 31.0616Z" fill="#EDFCFF"/>
<path d="M64.2042 41.8395L57.8307 38.8082L56.6651 36.3619L55.9515 35.1255L55.198 30.4855L62.356 34.3012C63.389 34.8484 64.1948 35.7437 64.6304 36.8283C65.0661 37.9129 65.1036 39.1168 64.7361 40.2264L64.2042 41.8395ZM58.2961 38.3651L63.8496 40.9709L64.1555 40.0314C64.4753 39.0627 64.442 38.0121 64.0616 37.0656C63.6812 36.119 62.9781 35.3376 62.0768 34.8596L56.0313 31.6378L56.572 34.9704L57.2279 36.0739L58.2961 38.3651Z" fill="#BECACC"/>
<path d="M41.1035 124.663H23.8978C15.3481 124.663 8.41614 125.518 8.41614 114.568V19.4994C8.41614 8.30496 15.5076 0.305786 24.2435 0.305786H40.7578C49.4981 0.305786 56.5852 8.2828 56.5852 19.4994V114.59C56.5852 125.518 49.6665 124.663 41.1035 124.663Z" fill="#EDFCFF"/>
<path d="M44.4677 124.991H42.8366H41.0992H23.8979H22.1649C17.2895 125.026 13.0878 125.053 10.5481 122.531C8.90379 120.896 8.10156 118.295 8.10156 114.554V19.4994C8.10156 8.3803 15.0424 0 24.2436 0H40.7579C49.9591 0 56.8955 8.38473 56.8955 19.4994V114.59C56.8955 118.312 56.0977 120.914 54.4534 122.567C52.2018 124.783 48.6384 124.991 44.4677 124.991ZM23.8979 124.34H42.8411C47.5702 124.375 51.6567 124.402 54.0102 122.066C55.5304 120.555 56.2706 118.078 56.2706 114.532V19.4994C56.2706 8.73483 49.6001 0.620432 40.7579 0.620432H24.2436C15.3792 0.620432 8.73093 8.73483 8.73093 19.4994V114.59C8.73093 118.135 9.47111 120.595 10.9913 122.124C13.3493 124.459 17.4357 124.437 22.1649 124.397L23.8979 124.34Z" fill="#BECACC"/>
<path d="M22.3023 5.76118H42.6904C46.8452 5.72989 50.9078 6.98538 54.3204 9.35526C51.5503 3.78464 46.5109 0.305786 40.7491 0.305786H24.2436C18.4818 0.305786 13.4379 3.78464 10.6722 9.35526C14.0848 6.98538 18.1475 5.72989 22.3023 5.76118Z" fill="#4E5557"/>
<path d="M49.9947 119.163H14.546V48.4648H15.3793V118.326H49.1614V48.4648H49.9947V119.163Z" fill="#8E9A9E"/>
<path d="M20.8397 55.9322H20.0065V112.037H20.8397V55.9322Z" fill="#C8D8DE"/>
<path d="M28.7378 55.9322H27.9045V112.037H28.7378V55.9322Z" fill="#C8D8DE"/>
<path d="M36.636 55.9322H35.8027V112.037H36.636V55.9322Z" fill="#C8D8DE"/>
<path d="M44.5297 55.9322H43.6964V112.037H44.5297V55.9322Z" fill="#C8D8DE"/>
<path d="M20.7644 1.78595C20.0596 1.78595 15.4679 2.87172 12.3787 7.51168C14.9538 6.08393 17.8232 5.26811 20.7644 5.12744C22.8431 5.12744 22.8209 1.78595 20.7644 1.78595Z" fill="#BECACC"/>
<path d="M44.2638 1.78595C44.973 1.78595 49.5825 2.87172 52.6495 7.51168C50.0748 6.08289 47.2052 5.26701 44.2638 5.12744C42.1896 5.12744 42.2117 1.78595 44.2638 1.78595Z" fill="#BECACC"/>
<path d="M25.0922 5.67989L20.2479 26.1382L21.0588 26.3301L25.903 5.87184L25.0922 5.67989Z" fill="#C8D8DE"/>
<path d="M39.9204 5.66618L39.1095 5.85785L43.9466 26.3178L44.7575 26.1262L39.9204 5.66618Z" fill="#C8D8DE"/>
<path d="M54.9542 67.6805L51.0095 69.9673V86.7234H54.9542V67.6805Z" fill="#4E5557"/>
<path d="M54.9542 36.2334L51.0095 51.0175V64.4942L54.9542 62.2074V36.2334Z" fill="#4E5557"/>
<path d="M51.0095 109.462L54.9542 111.262V91.4609H51.0095V109.462Z" fill="#4E5557"/>
<path d="M9.5863 67.6805L13.5354 69.9673V86.7234H9.5863V67.6805Z" fill="#4E5557"/>
<path d="M9.5863 36.2334L13.5354 51.0175V64.4942L9.5863 62.2074V36.2334Z" fill="#4E5557"/>
<path d="M13.5354 109.462L9.5863 111.262V91.4609H13.5354V109.462Z" fill="#4E5557"/>
<path d="M8.96143 119.07C9.84786 122.208 11.8601 123.604 14.5327 124.215V119.07H8.96143Z" fill="#DA5A61"/>
<path d="M56.0401 119.07H50.0034V124.308C52.9109 123.755 55.0827 122.385 56.0401 119.07Z" fill="#DA5A61"/>
<path d="M41.999 118.747H41.1658V124.667H41.999V118.747Z" fill="#8E9A9E"/>
<path d="M23.4901 118.747H22.6569V124.667H23.4901V118.747Z" fill="#8E9A9E"/>
<path d="M49.7862 48.6776C49.569 50.0381 48.2926 49.7811 47.0338 49.4132C42.1834 48.043 37.1641 47.3627 32.1239 47.3924C24.864 47.3924 20.157 48.4383 17.5509 49.2537C16.2611 49.6614 14.9403 49.8697 14.7542 48.4648L12.4007 30.7382C12.3299 30.2393 12.4208 29.7309 12.6601 29.2874C12.8994 28.844 13.2745 28.4889 13.7304 28.2741C16.2833 27.1175 22.1515 25.1365 32.2525 25.1365C41.8393 25.1365 48.4078 27.41 51.2621 28.642C51.7335 28.8585 52.1197 29.2253 52.3603 29.6848C52.6009 30.1443 52.6823 30.6706 52.5918 31.1813L49.7862 48.6776Z" fill="#4E5557"/>
</svg>
