<svg width="59" height="111" viewBox="0 0 59 111" fill="none" xmlns="http://www.w3.org/2000/svg">
<path d="M4.45264 23.4436L4.6419 95.9269C5.49579 110.761 7.8286 110.448 7.8286 110.448H50.268C50.268 110.448 53.0761 110.761 53.93 95.9269L54.1193 23.4436C54.1193 23.4436 53.9477 9.27435 50.7213 5.402C47.8692 1.96089 35.6021 1.17763 29.3036 0.887207H29.2728C22.9698 1.17763 10.1438 2.86737 7.70536 5.95205C4.58909 9.908 4.45264 23.4436 4.45264 23.4436Z" fill="#969595"/>
<path d="M4.45264 23.8659L4.6419 96.0015C5.49579 110.765 7.8286 110.452 7.8286 110.452H50.268C50.268 110.452 53.0761 110.765 53.93 96.0015L54.1193 23.8702C54.1193 23.8702 53.9477 9.78899 50.7213 5.89905C47.8692 2.47554 35.6021 1.69228 29.3036 1.40625H29.2728C22.9698 1.69228 10.1438 3.37762 7.70536 6.4491C4.58909 10.4006 4.45264 23.8659 4.45264 23.8659Z" fill="#747F7A"/>
<path d="M48.7494 5.43277L48.9519 5.20395C48.9519 5.20395 46.3374 3.09616 41.9403 3.86183L48.7494 5.43277Z" fill="#D5D3CB"/>
<path d="M41.2716 11.4303C40.651 11.3203 40.1888 10.9903 40.2417 10.6691L41.3596 4.19609C41.4125 3.88366 41.9626 3.71645 42.5832 3.82646L48.0323 4.76374C48.6529 4.86935 49.1151 5.20378 49.0623 5.52061L47.9443 11.998C47.8915 12.3104 47.3413 12.4732 46.7207 12.3676L41.2716 11.4303Z" fill="#66706B"/>
<path d="M10.9233 5.43277L10.7252 5.20395C10.7252 5.20395 13.3353 3.09616 17.7324 3.86183L10.9233 5.43277Z" fill="#D5D3CB"/>
<path d="M18.4009 11.4303C19.0259 11.3203 19.4837 10.9903 19.4309 10.6691L18.3129 4.19609C18.2601 3.88366 17.7143 3.71645 17.0893 3.82646L11.6446 4.76374C11.0196 4.86935 10.5574 5.20378 10.6147 5.52061L11.7282 11.998C11.7854 12.3104 12.3312 12.4732 12.9562 12.3676L18.4009 11.4303Z" fill="#66706B"/>
<path d="M4.45264 24.7156L4.6419 95.2847C5.49579 109.727 7.8286 109.423 7.8286 109.423H50.268C50.268 109.423 53.0761 109.727 53.93 95.2847L54.1193 24.7156C54.1193 24.7156 53.9477 10.9204 50.7213 7.11402C47.8692 3.76532 35.6021 2.99965 29.3036 2.71362H29.2728C22.9698 2.99525 10.1438 4.64539 7.70536 7.64646C4.58909 11.5144 4.45264 24.7156 4.45264 24.7156Z" fill="#939393"/>
<path d="M9.22387 108.323C9.47036 105.176 9.10503 87.5483 9.017 86.6638C8.9375 86.2079 9.0267 85.7387 9.26791 85.3437L13.7442 77.2294C14.3913 76.1821 14.3076 74.3647 14.3076 74.3647V40.5785C14.3516 39.21 13.7442 38.6027 13.7442 38.6027C13.7442 38.6027 9.54959 32.2706 8.34357 30.4312C7.13756 28.5919 7.19478 27.9934 7.19478 27.9934C7.19478 27.9934 9.70805 9.51176 10.3859 7.92762C11.0637 6.34348 18.5551 3.96727 18.5551 3.96727L18.5199 3.88806C13.643 4.71974 9.06542 5.96945 7.71416 7.6416C4.58909 11.5139 4.45264 24.7151 4.45264 24.7151L4.6419 95.2842C5.49579 109.726 7.8286 109.423 7.8286 109.423H8.62967C8.81787 109.309 8.97223 109.147 9.07671 108.954C9.18119 108.76 9.23201 108.542 9.22387 108.323Z" fill="#606060"/>
<path d="M48.4281 7.63304C49.1016 9.22158 51.6192 27.6988 51.6192 27.6988C51.6192 27.6988 51.6765 28.2973 50.4705 30.1367C49.2644 31.976 45.0698 38.3038 45.0698 38.3038C45.0698 38.3038 44.4624 38.911 44.502 40.2796V74.079C44.502 74.079 44.4228 75.8963 45.0698 76.9436L49.5461 85.058C49.7873 85.4529 49.8765 85.9222 49.797 86.3781C49.709 87.2581 49.3569 104.891 49.5857 108.037C49.5857 108.037 49.4845 108.82 50.5629 109.357C51.2891 109.009 53.261 106.985 53.952 95.2757L54.1193 24.7154C54.1193 24.7154 53.9477 10.9201 50.7213 7.1138C49.1808 5.30083 44.8805 4.24914 40.2633 3.61548L40.2369 3.67709C40.2369 3.67709 47.7283 6.0357 48.4281 7.63304Z" fill="#606060"/>
<path d="M42.4865 37.7362C42.4865 37.7362 31.8128 36.7858 15.1971 37.7362C14.9625 37.7814 14.7201 37.7646 14.4939 37.6874C14.2677 37.6102 14.0656 37.4754 13.9075 37.2962C13.3397 36.6889 8.85015 28.3986 8.85015 28.3986C8.85015 28.3986 7.59132 26.4228 8.6741 26.0004C9.75687 25.578 26.3418 21.3976 50.0131 25.6C50.0131 25.6 51.2543 26.5196 50.1672 27.941C49.727 28.5394 44.6476 36.843 44.6476 36.843C44.6476 36.843 44.0402 37.7758 43.2524 37.723L42.4865 37.7362Z" fill="#00384B"/>
<path d="M42.6581 37.7361C42.6581 37.7361 31.7819 36.702 14.8801 37.7361C14.6409 37.793 14.3905 37.7819 14.1572 37.7041C13.9239 37.6264 13.717 37.4851 13.5597 37.2961C12.9831 36.636 8.24705 27.8924 8.24705 27.8924C8.24705 27.8924 6.71972 25.3314 8.24705 25.0102C9.47067 24.7505 26.2404 20.0025 50.3519 24.5701C50.3519 24.5701 51.7912 25.9783 50.682 27.5228C50.2111 28.1785 44.8852 36.7988 44.8852 36.7988C44.8852 36.7988 44.269 37.8109 43.4679 37.7801L42.6581 37.7361Z" fill="black"/>
<path d="M42.4865 37.7362C42.4865 37.7362 31.8128 36.7858 15.1971 37.7362C14.9625 37.7814 14.7201 37.7646 14.4939 37.6874C14.2677 37.6102 14.0656 37.4754 13.9075 37.2962C13.3397 36.6889 8.85015 28.3986 8.85015 28.3986C8.85015 28.3986 7.59132 26.4228 8.6741 26.0004C9.75687 25.578 26.3418 21.3976 50.0131 25.6C50.0131 25.6 51.2543 26.5196 50.1672 27.941C49.727 28.5394 44.6476 36.843 44.6476 36.843C44.6476 36.843 44.0402 37.7758 43.2524 37.723L42.4865 37.7362Z" fill="#343432"/>
<g style="mix-blend-mode:screen" opacity="0.4">
<path d="M42.4863 37.736L43.2741 37.7624C44.062 37.7932 44.6694 36.8824 44.6694 36.8824C44.6694 36.8824 46.6809 33.5777 48.2831 30.9858C47.2619 31.2997 46.2173 31.5799 45.1492 31.8263C42.0781 32.5179 38.956 32.9594 35.8136 33.1464C33.2563 33.3136 30.6726 33.3577 28.1021 33.3797C22.4812 33.4993 16.8595 33.18 11.2884 32.4248L11.0419 32.3852C12.2743 34.6118 13.63 37.0056 13.9293 37.3224C14.0873 37.5016 14.2895 37.6365 14.5156 37.7136C14.7418 37.7908 14.9842 37.8076 15.2189 37.7624C31.8126 36.7856 42.4863 37.736 42.4863 37.736Z" fill="#343432"/>
</g>
<path d="M41.8259 77.2518C41.8259 77.2518 31.9929 78.0967 16.7109 77.2518C16.4976 77.2101 16.2773 77.2229 16.0703 77.289C15.8633 77.3552 15.6764 77.4726 15.5269 77.6303C15.0031 78.1715 10.8701 85.551 10.8701 85.551C10.8701 85.551 9.71247 87.3111 10.7072 87.6852C11.702 88.0592 26.7595 92.3628 48.7759 88.0416C48.7759 88.0416 49.9159 87.2231 48.9167 85.9602C48.4766 85.4233 43.833 78.0395 43.833 78.0395C43.833 78.0395 43.2784 77.2078 42.5522 77.2342L41.8259 77.2518Z" fill="black"/>
<path d="M41.8258 77.4145C41.8258 77.4145 32.0017 78.233 16.7372 77.4145C16.5254 77.3734 16.3067 77.3848 16.1003 77.4477C15.8939 77.5106 15.7061 77.6231 15.5532 77.7754C15.0294 78.3034 10.6411 85.4805 10.6411 85.4805C10.6411 85.4805 9.50114 87.069 10.738 87.5266C11.7327 87.8963 26.9971 91.487 48.7802 87.8743C48.7802 87.8743 49.9202 87.0778 48.9211 85.8545C48.4809 85.3352 43.8417 78.1714 43.8417 78.1714C43.8417 78.1714 43.2827 77.3661 42.5609 77.3881L41.8258 77.4145Z" fill="#00384B"/>
<path d="M41.8258 77.4145C41.8258 77.4145 32.0017 78.233 16.7372 77.4145C16.5254 77.3734 16.3067 77.3848 16.1003 77.4477C15.8939 77.5106 15.7061 77.6231 15.5532 77.7754C15.0294 78.3034 10.6411 85.4805 10.6411 85.4805C10.6411 85.4805 9.50114 87.069 10.738 87.5266C11.7327 87.8963 26.9971 91.487 48.7802 87.8743C48.7802 87.8743 49.9202 87.0778 48.9211 85.8545C48.4809 85.3352 43.8417 78.1714 43.8417 78.1714C43.8417 78.1714 43.2827 77.3661 42.5609 77.3881L41.8258 77.4145Z" fill="#343432"/>
<g style="mix-blend-mode:screen" opacity="0.4">
<path d="M18.2471 80.891C22.9564 80.4281 27.6931 80.3061 32.42 80.5257C34.3302 80.6005 36.2273 80.7061 38.1111 80.9658C40.0066 81.2043 41.8802 81.5928 43.7143 82.1275C44.9705 82.4924 46.1893 82.9757 47.3543 83.5708C45.8534 81.3002 43.8331 78.1759 43.8331 78.1759C43.8331 78.1759 43.2741 77.3707 42.5523 77.3927L41.826 77.4191C41.826 77.4191 32.0018 78.2375 16.7374 77.4191C16.5256 77.3779 16.3069 77.3893 16.1005 77.4522C15.8941 77.5151 15.7062 77.6276 15.5534 77.7799C15.2981 78.0395 14.1185 79.8877 12.9785 81.7094C14.6995 81.3442 16.4777 81.0802 18.2471 80.891Z" fill="#343432"/>
</g>
<g style="mix-blend-mode:screen" opacity="0.5">
<path d="M29.2862 38.3566C25.0079 38.0309 15.954 39.0034 14.9636 39.2366C13.9733 39.4699 15.0253 72.8512 15.0825 74.2286C15.1047 74.6151 15.2625 74.9814 15.5282 75.2631C15.7939 75.5448 16.1503 75.7238 16.535 75.7687C16.535 75.7687 30.8355 77.6917 42.0373 75.7687C42.422 75.7238 42.7785 75.5448 43.0441 75.2631C43.3098 74.9814 43.4676 74.6151 43.4899 74.2286C43.5515 72.8512 44.5946 39.4655 43.6087 39.2366C42.6228 39.0078 33.5644 38.0177 29.2862 38.3566Z" fill="#939393"/>
</g>
<g style="mix-blend-mode:screen">
<path d="M50.7217 24.1212C50.7217 24.1212 28.0451 18.6912 7.71448 25.0453C7.71448 25.0453 25.3029 16.6406 50.7217 24.1212Z" fill="#939393"/>
</g>
<path d="M51.9492 30.9333V86.343C51.9492 86.343 51.8348 87.7115 51.1129 86.9811L45.5538 77.9603C45.1157 77.1399 44.8775 76.2278 44.8584 75.298V40.4909C44.9373 39.7177 45.174 38.9689 45.5538 38.2907C46.2008 37.0806 51.5267 29.8728 51.5267 29.8728C51.5267 29.8728 51.9492 29.5559 51.9492 30.9333Z" fill="#1D1D1B"/>
<path d="M51.7777 59.5751L45.7256 59.2847V74.0656L51.7777 79.2757V59.5751Z" fill="#343432"/>
<path d="M51.7777 31.3554C51.7777 29.9869 51.4124 30.3169 51.4124 30.3169C51.4124 30.3169 46.87 37.406 46.3154 38.5941C45.9879 39.2769 45.7866 40.0134 45.7212 40.7679V57.991L51.7777 57.661V31.3554Z" fill="#343432"/>
<g style="mix-blend-mode:screen" opacity="0.4">
<path d="M49.3084 68.5695C48.8199 65.5376 48.481 62.4793 48.2961 59.4123L45.7212 59.2891V74.0656L51.3947 78.9456C50.4922 75.5318 49.7955 72.0668 49.3084 68.5695Z" fill="#343432"/>
</g>
<g style="mix-blend-mode:screen" opacity="0.4">
<path d="M48.142 52.627C48.1877 47.2743 48.8299 41.9433 50.0567 36.7328C50.5585 34.6646 50.937 32.4248 51.5972 30.3258C51.5725 30.3016 51.5393 30.2881 51.5048 30.2881C51.4702 30.2881 51.4371 30.3016 51.4124 30.3258C51.4124 30.3258 46.87 37.4149 46.3154 38.603C45.9879 39.2858 45.7866 40.0223 45.7212 40.7768V57.9999L48.2169 57.8635C48.1435 56.1151 48.1185 54.3696 48.142 52.627Z" fill="#343432"/>
</g>
<path d="M51.7777 85.8413V80.8689L45.7212 74.6511V74.9987C45.736 75.9018 45.9383 76.7919 46.3154 77.6126L51.069 86.4662C51.6808 87.201 51.7777 85.8413 51.7777 85.8413Z" fill="#606060"/>
<path d="M6.48657 30.9333V86.343C6.48657 86.343 6.60101 87.7115 7.32286 86.9811L12.8864 77.9603C13.3222 77.139 13.5603 76.2274 13.5818 75.298V40.4909C13.5029 39.7177 13.2662 38.9689 12.8864 38.2907C12.235 37.0806 6.91352 29.8728 6.91352 29.8728C6.91352 29.8728 6.48657 29.5559 6.48657 30.9333Z" fill="#1D1D1B"/>
<path d="M6.65808 59.5751L12.7146 59.2847V74.0656L6.65808 79.2757V59.5751Z" fill="#343432"/>
<path d="M6.65808 31.3554C6.65808 29.9869 7.0234 30.3169 7.0234 30.3169C7.0234 30.3169 11.5702 37.406 12.1248 38.5941C12.4522 39.2767 12.6521 40.0134 12.7146 40.7679V57.991L6.65808 57.661V31.3554Z" fill="#343432"/>
<g style="mix-blend-mode:screen" opacity="0.4">
<path d="M9.13171 68.5695C9.61588 65.5376 9.9548 62.4793 10.1441 59.4123L12.7145 59.2891V74.0656L7.0542 78.9456C7.9496 75.5306 8.64331 72.0659 9.13171 68.5695Z" fill="#343432"/>
</g>
<g style="mix-blend-mode:screen" opacity="0.4">
<path d="M10.2936 52.627C10.2465 47.2741 9.60281 41.9431 8.37452 36.7328C7.87275 34.6646 7.49422 32.4248 6.82959 30.3258C6.85427 30.3016 6.88747 30.2881 6.92203 30.2881C6.95659 30.2881 6.98978 30.3016 7.01446 30.3258C7.01446 30.3258 11.5612 37.4149 12.1158 38.603C12.4432 39.2856 12.6431 40.0223 12.7056 40.7768V57.9999L10.2144 57.8635C10.2936 56.1151 10.32 54.3696 10.2936 52.627Z" fill="#343432"/>
</g>
<path d="M6.65808 85.8413V80.8689L12.7146 74.6511V74.9987C12.7026 75.9016 12.5017 76.792 12.1248 77.6126L7.37553 86.4662C6.75932 87.201 6.65808 85.8413 6.65808 85.8413Z" fill="#606060"/>
<path d="M49.3088 107.72V87.5795C48.6654 94.2776 48.6654 101.022 49.3088 107.72Z" fill="#969595"/>
<path d="M9.50549 107.72V87.5795C10.1489 94.2776 10.1489 101.022 9.50549 107.72Z" fill="#969595"/>
<path d="M52.2797 106.479L50.4795 105.326C50.4795 105.326 49.9425 104.842 49.7796 105.647V107.72C49.7516 108.029 49.8275 108.339 49.9953 108.6C50.2079 108.84 50.4438 109.058 50.6995 109.251C50.6995 109.251 50.858 109.326 51.1793 109.088C51.5006 108.851 52.1124 107.447 52.2797 106.989C52.447 106.532 52.4558 106.593 52.2797 106.479Z" fill="#D5D3CB"/>
<path d="M50.9416 107.443C51.0614 107.029 51.1207 106.601 51.1177 106.171C51.1177 106.012 51.0913 105.854 51.0737 105.696L50.4795 105.317C50.4795 105.317 49.9425 104.833 49.7796 105.638V107.711C49.7516 108.02 49.8275 108.33 49.9953 108.591C50.1048 108.719 50.2224 108.839 50.3474 108.952C50.6255 108.484 50.8262 107.974 50.9416 107.443Z" fill="#893D09"/>
<g style="mix-blend-mode:screen" opacity="0.4">
<path d="M50.3518 108.287C50.2505 107.932 50.1929 107.566 50.1802 107.196C50.1134 106.853 50.1362 106.498 50.2462 106.166C50.5015 105.656 51.0561 105.779 51.6195 106.061L50.4795 105.326C50.4795 105.326 49.9425 104.842 49.7796 105.647V107.72C49.7516 108.029 49.8275 108.339 49.9953 108.6C50.2079 108.84 50.4438 109.058 50.6995 109.251C50.6995 109.251 50.8272 109.313 51.0825 109.15C50.7548 108.946 50.4993 108.644 50.3518 108.287Z" fill="white"/>
</g>
<path d="M6.17361 106.479L7.97383 105.326C7.97383 105.326 8.51081 104.842 8.67367 105.647V107.72C8.70174 108.029 8.62584 108.339 8.458 108.6C8.24539 108.84 8.00949 109.058 7.75375 109.251C7.75375 109.251 7.5953 109.326 7.27399 109.088C6.95268 108.851 6.33207 107.443 6.17361 107.003C6.01516 106.563 5.98875 106.593 6.17361 106.479Z" fill="#D5D3CB"/>
<path d="M7.49404 107.443C7.37428 107.029 7.31498 106.601 7.31798 106.171C7.31798 106.012 7.34439 105.854 7.362 105.696L7.95619 105.317C7.95619 105.317 8.49319 104.833 8.65604 105.638V107.711C8.68411 108.02 8.60821 108.33 8.44036 108.591C8.33089 108.719 8.21328 108.839 8.08824 108.952C7.81015 108.484 7.60949 107.974 7.49404 107.443Z" fill="#893D09"/>
<g style="mix-blend-mode:screen" opacity="0.4">
<path d="M8.09282 108.287C8.19412 107.932 8.25177 107.566 8.26449 107.196C8.33122 106.853 8.30848 106.498 8.19846 106.166C7.94318 105.656 7.38859 105.779 6.8252 106.061L7.96519 105.326C7.96519 105.326 8.50217 104.842 8.66502 105.647V107.72C8.69309 108.029 8.6172 108.339 8.44935 108.6C8.23675 108.84 8.00084 109.058 7.74511 109.251C7.74511 109.251 7.61747 109.313 7.36218 109.15C7.68984 108.946 7.94533 108.644 8.09282 108.287Z" fill="white"/>
</g>
<path d="M52.2531 30.0795L51.0691 29.5559C51.0691 29.5559 50.4088 28.8958 51.0691 28.4338C51.4784 28.1477 53.1598 28.4338 53.1598 28.4338L52.2531 30.0795Z" fill="#5C5C5C"/>
<path d="M57.5307 29.7536C57.6716 29.8812 57.8036 30.0133 57.9313 30.1497C58.0831 30.7841 58.2021 31.4259 58.2878 32.0726C56.0871 31.5446 53.8863 31.0033 51.778 30.2773C51.8224 29.8817 51.8915 29.4893 51.9848 29.1024C52.2225 28.0419 52.6363 28.2223 52.6363 28.2223C53.6398 28.1035 56.1178 28.4555 57.5307 29.7536Z" fill="#A3A3A3"/>
<g style="mix-blend-mode:screen" opacity="0.5">
<path d="M52.1697 28.5527C53.4277 28.6767 54.6595 28.9913 55.8229 29.4855C56.5702 29.8348 57.219 30.364 57.7112 31.0257C57.9072 31.2848 58.088 31.5552 58.2526 31.8354C58.1689 31.2677 58.0677 30.7045 57.9313 30.15C57.8036 30.0136 57.6716 29.8816 57.5307 29.754C56.1178 28.4559 53.6398 28.1038 52.6362 28.2182C52.6362 28.2358 52.3898 28.117 52.1697 28.5527Z" fill="#939393"/>
</g>
<path d="M6.7064 30.0795L7.88602 29.5471C7.88602 29.5471 8.54624 28.887 7.88602 28.425C7.47228 28.1389 5.79089 28.425 5.79089 28.425L6.7064 30.0795Z" fill="#5C5C5C"/>
<path d="M1.42894 29.7536C1.28809 29.8812 1.15604 30.0133 1.0284 30.1497C0.87654 30.7841 0.757542 31.4259 0.671875 32.0726C2.87263 31.5446 5.07339 31.0033 7.18172 30.2773C7.13731 29.8817 7.06822 29.4893 6.97484 29.1024C6.73716 28.0419 6.32341 28.2223 6.32341 28.2223C5.31987 28.1035 2.84182 28.4555 1.42894 29.7536Z" fill="#A3A3A3"/>
<g style="mix-blend-mode:screen" opacity="0.5">
<path d="M6.79005 28.5527C5.53204 28.6767 4.30021 28.9913 3.1368 29.4855C2.38957 29.8348 1.74074 30.364 1.24854 31.0257C1.0525 31.2848 0.871725 31.5552 0.707153 31.8354C0.790782 31.2677 0.892022 30.7045 1.02847 30.15C1.15611 30.0136 1.28816 29.8816 1.42901 29.754C2.84189 28.4559 5.31994 28.1038 6.32349 28.2182C6.32349 28.2358 6.56997 28.117 6.79005 28.5527Z" fill="#939393"/>
</g>
<path d="M5.78671 56.8076V51.7911C5.78671 51.7911 5.7559 51.0915 5.52702 51.3511C5.29814 51.6107 5.31574 52.2004 5.31574 52.5832V56.2443C5.31574 56.2443 5.31574 56.9748 5.61945 57.0144C5.64546 57.0161 5.67151 57.0115 5.69538 57.0011C5.71926 56.9906 5.74027 56.9746 5.75666 56.9543C5.77305 56.934 5.78432 56.9101 5.78956 56.8846C5.79479 56.8591 5.79381 56.8327 5.78671 56.8076Z" fill="#5C5C5C"/>
<path d="M5.78658 56.4204V52.13C5.78658 52.13 5.76018 51.5315 5.56651 51.7339C5.37284 51.9364 5.38165 52.4644 5.38165 52.79V55.9187C5.38165 55.9187 5.38165 56.5436 5.64134 56.5788C5.66178 56.5796 5.68215 56.5759 5.70103 56.568C5.71992 56.5602 5.73686 56.5483 5.75068 56.5332C5.7645 56.5182 5.77488 56.5002 5.78108 56.4807C5.78728 56.4613 5.78916 56.4406 5.78658 56.4204Z" fill="#939393"/>
<path d="M5.78671 80.9699V75.949C5.78671 75.949 5.7559 75.2494 5.52702 75.487C5.29814 75.7246 5.31574 76.3407 5.31574 76.7191V80.3802C5.31574 80.3802 5.31574 81.1107 5.61945 81.1503C5.64297 81.1518 5.66655 81.1481 5.68845 81.1394C5.71035 81.1307 5.73002 81.1172 5.74605 81.0999C5.76207 81.0826 5.77405 81.062 5.78108 81.0395C5.78811 81.017 5.79003 80.9932 5.78671 80.9699Z" fill="#5C5C5C"/>
<path d="M5.78658 80.6001V76.2877C5.78658 76.2877 5.76018 75.6892 5.56651 75.8917C5.37284 76.0941 5.38165 76.6221 5.38165 76.9478V80.0764C5.38165 80.0764 5.38165 80.7013 5.64134 80.7365C5.65999 80.7377 5.67868 80.7351 5.69627 80.7287C5.71385 80.7224 5.72994 80.7126 5.74356 80.6998C5.75718 80.687 5.76802 80.6716 5.77542 80.6544C5.78282 80.6372 5.78662 80.6188 5.78658 80.6001Z" fill="#939393"/>
<path d="M52.3898 56.8076V51.7911C52.3898 51.7911 52.4206 51.0915 52.6495 51.3511C52.8784 51.6107 52.8608 52.2004 52.8608 52.5832V56.2443C52.8608 56.2443 52.8608 56.9748 52.5571 57.0144C52.5311 57.0161 52.505 57.0115 52.4812 57.0011C52.4573 56.9906 52.4363 56.9746 52.4199 56.9543C52.4035 56.934 52.3922 56.9101 52.387 56.8846C52.3817 56.8591 52.3827 56.8327 52.3898 56.8076Z" fill="#5C5C5C"/>
<path d="M52.3898 56.4204V52.13C52.3898 52.13 52.4162 51.5315 52.6098 51.7339C52.8035 51.9364 52.7903 52.4644 52.7903 52.79V55.9187C52.7903 55.9187 52.7903 56.5436 52.5306 56.5788C52.5482 56.5788 52.3898 56.5876 52.3898 56.4204Z" fill="#939393"/>
<path d="M52.3896 80.9699V75.949C52.3896 75.949 52.4205 75.2494 52.6493 75.487C52.8782 75.7246 52.8606 76.3407 52.8606 76.7191V80.3802C52.8606 80.3802 52.8606 81.1107 52.5569 81.1503C52.5334 81.1518 52.5098 81.1481 52.4879 81.1394C52.466 81.1307 52.4463 81.1172 52.4303 81.0999C52.4143 81.0826 52.4023 81.062 52.3953 81.0395C52.3883 81.017 52.3863 80.9932 52.3896 80.9699Z" fill="#5C5C5C"/>
<path d="M52.3898 80.6001V76.2877C52.3898 76.2877 52.4162 75.6892 52.6098 75.8917C52.8035 76.0941 52.7903 76.6221 52.7903 76.9478V80.0764C52.7903 80.0764 52.7903 80.7013 52.5306 80.7365C52.5123 80.7371 52.4941 80.734 52.4771 80.7274C52.46 80.7208 52.4444 80.7109 52.4313 80.6981C52.4181 80.6854 52.4077 80.6702 52.4006 80.6533C52.3934 80.6365 52.3898 80.6184 52.3898 80.6001Z" fill="#939393"/>
</svg>
