<svg width="48" height="98" viewBox="0 0 48 98" fill="none" xmlns="http://www.w3.org/2000/svg">
<path d="M16.42 98H32.6452C37.9179 98 43.3603 92.066 43.4833 86.8611L44.2383 14.6675C44.2585 12.7485 43.8934 10.8446 43.164 9.06591C42.4346 7.28722 41.3554 5.66905 39.9889 4.30503C38.6225 2.94101 36.9958 1.85822 35.203 1.11927C33.4103 0.380327 31.487 -0.00010362 29.5444 2.11705e-08H19.525C17.5823 -9.78953e-05 15.6588 0.380301 13.8658 1.1192C12.0728 1.85809 10.4458 2.94084 9.07899 4.3048C7.71218 5.66876 6.63264 7.28686 5.90277 9.06558C5.17291 10.8443 4.80722 12.7483 4.82684 14.6675L5.58613 86.8611C5.70915 92.066 11.1473 98 16.42 98Z" fill="#5B53B4"/>
<path d="M13.3478 2.13043C13.3478 2.13043 12.6012 3.68195 11.7281 6.10935C10.6636 9.07803 9.75589 12.0959 9.00833 15.1516C8.60669 16.8199 8.23562 18.4882 7.95622 20.0898C7.67682 21.6914 7.45417 23.1678 7.29701 24.4524C7.21842 25.0947 7.17476 25.7037 7.12237 26.2125C7.06998 26.7214 7.04817 27.1968 7.02634 27.5722C6.98268 28.3313 6.95647 28.7609 6.95647 28.7609H8.60233C8.60233 28.7609 8.60233 28.3438 8.60233 27.6056C8.60233 27.2344 8.60233 26.7714 8.60233 26.2751C8.60233 25.7787 8.62851 25.1823 8.67217 24.5484C8.74638 23.2972 8.86426 21.8082 9.05635 20.2316C9.24843 18.6551 9.49292 16.9701 9.80288 15.2976C10.3583 12.227 11.0767 9.18537 11.9551 6.18442C12.6929 3.71949 13.3478 2.13043 13.3478 2.13043Z" fill="#5F6FC1"/>
<path d="M7.18436 82.382H7.06784C6.88474 80.1276 6.71826 77.2878 6.56844 74.0978C6.54348 73.562 6.51851 73.0139 6.49354 72.4492C6.26881 67.182 6.07736 61.1152 5.95667 55.139C5.95667 54.6197 5.93588 54.1046 5.9234 53.5894C5.74861 44.7364 6.33956 34.6306 6.4436 29.6848C6.4436 29.6848 6.4436 28.572 6.41863 27.9662C8.97804 25.0811 13.0107 24.5 23.935 24.5C31.5716 24.5 36.6821 24.7514 39.4745 26.3505C40.7605 27.0883 40.2486 26.3506 41.0435 27.2944C41.0435 27.7848 40.6273 82.3655 40.6273 82.3655C37.7141 89.0299 33.2279 92.492 23.9183 92.6692C9.55234 92.9082 7.77115 84.0059 7.18436 82.382Z" fill="#5F6FC1"/>
<path d="M9.08691 76.6665L7.55864 83.0536L7.28373 83.087C7.16592 80.8079 7.05466 77.9372 6.95648 74.7124L8.98874 73.5C9.02147 74.5958 9.04764 75.6582 9.08691 76.6665Z" fill="#373C3D"/>
<path d="M5.89126 55.3913H8.65095C8.75558 61.1885 8.89945 67.0548 9.08691 72.2386L6.37518 73.5C6.16156 67.9965 6.00461 61.6378 5.89126 55.3913Z" fill="#373C3D"/>
<path d="M6.562 27.6957C6.562 27.6957 8.94133 46.1418 8.94635 46.5547C8.97647 49.3871 9.02668 51.2685 9.08691 54.3261H5.91447C5.75384 45.3617 6.47666 32.7306 6.562 27.6957Z" fill="#373C3D"/>
<path d="M9.04001 71.3696C9.05676 72.202 9.07017 73.0221 9.08691 73.8361L7.00671 75.6304C6.98996 74.8288 6.97323 74.0087 6.95648 73.164L9.04001 71.3696Z" fill="#5F6FC1"/>
<path d="M5.89126 54.3261H9.0519C9.0519 54.6802 9.05191 55.0372 9.08691 55.3913H5.92127L5.89126 54.3261Z" fill="#5F6FC1"/>
<path d="M6.95654 34.087L2.30123 36.2631C1.61968 36.5808 1.08817 37.0995 0.800663 37.7277C0.513156 38.3558 0.488186 39.0528 0.730133 39.6955L1.0247 40.4783L5.22474 38.7288L6.01031 37.2768L6.49683 36.5644L6.95654 34.087Z" fill="#5B53B4"/>
<path d="M11.1917 83.0869C11.2875 80.1421 11.1241 52.7764 10.5494 41.5435L10.1522 41.5886C10.7156 52.8052 10.8903 80.1216 10.7945 83.0705L11.1917 83.0869Z" fill="#5B53B4"/>
<path d="M35.7174 2.13043C35.7174 2.13043 36.2642 3.71874 36.8657 6.18251C37.6038 9.18552 38.2061 12.23 38.6702 15.3039C38.9254 16.9714 39.1405 18.639 39.2936 20.2356C39.4467 21.8323 39.5561 23.2872 39.6144 24.5503C39.6545 25.184 39.6582 25.7635 39.6727 26.2762C39.6873 26.789 39.691 27.2351 39.6727 27.6061C39.6727 28.3398 39.6727 28.7609 39.6727 28.7609H41.0435C41.0435 28.7609 41.0252 28.344 40.9888 27.5727C40.9888 27.1934 40.9523 26.739 40.9086 26.2137C40.8648 25.6884 40.832 25.0965 40.7591 24.4545C40.6315 23.1705 40.4602 21.678 40.2123 20.0939C39.9644 18.5097 39.6727 16.8255 39.3301 15.158C38.7075 12.1032 37.9495 9.08668 37.0589 6.12C36.3444 3.68124 35.7174 2.13043 35.7174 2.13043Z" fill="#5F6FC1"/>
<path d="M38.913 76.6665L40.4473 83.0536L40.7177 83.087C40.8382 80.8079 40.9457 77.9372 41.0435 74.7124L39.0205 73.5C38.9782 74.5958 38.9456 75.6582 38.913 76.6665Z" fill="#373C3D"/>
<path d="M42.1086 55.3913H39.3496C39.2448 61.1885 39.1007 67.0548 38.913 72.2386L41.6284 73.5C41.8467 67.9965 42.0039 61.6378 42.1086 55.3913Z" fill="#373C3D"/>
<path d="M41.4296 27.6957C41.4296 27.6957 39.0584 46.1418 39.0534 46.5547C39.0183 49.3871 38.9731 51.2685 38.913 54.3261H42.0813C42.2567 45.3617 41.5349 32.7306 41.4296 27.6957Z" fill="#373C3D"/>
<path d="M38.9599 71.3696C38.9599 72.202 38.9298 73.0221 38.913 73.8361L40.9932 75.6304C40.9932 74.8288 41.0267 74.0087 41.0435 73.164L38.9599 71.3696Z" fill="#5F6FC1"/>
<path d="M42.1086 54.3261H38.948C38.948 54.6802 38.948 55.0372 38.913 55.3913H42.0636C42.0636 55.0344 42.0986 54.6802 42.1086 54.3261Z" fill="#5F6FC1"/>
<path d="M42.1087 34.087L45.9903 36.2631C46.557 36.5819 46.9988 37.1008 47.2382 37.7285C47.4775 38.3563 47.4991 39.0527 47.299 39.6955L47.0537 40.4783L43.555 38.7288L42.897 37.2768L42.4917 36.5644L42.1087 34.087Z" fill="#5B53B4"/>
<path d="M36.8372 83.0869L37.6282 83.0623C37.4431 80.1222 37.7685 52.8194 38.913 41.5886L38.1219 41.5435C36.9775 52.7906 36.6352 80.1509 36.8372 83.0869Z" fill="#5B53B4"/>
<path d="M23.7543 92.6739C18.0747 92.6419 13.7253 92.2739 10.1521 87.8018C10.506 85.2498 11.0049 82.0217 11.0049 82.0217C14.1134 86.9058 18.3007 87.0978 24.5304 87.1058C30.7601 87.1138 34.9517 86.9058 38.0602 82.0217C38.0602 82.0217 38.559 85.2498 38.913 87.8018C35.344 92.2739 30.9904 92.6419 25.315 92.6739H23.7586H23.7543Z" fill="#373C3D"/>
<path d="M10.8945 42.6087C15.4208 41.2324 20.121 40.5409 24.8447 40.5562C33.8702 40.5562 38.6032 42.6087 38.6032 42.6087L39.9783 26.343C39.9783 26.343 35.588 23.4348 24.7427 23.4348C14.7585 23.4348 9.08697 26.5674 9.08697 26.5674L10.8945 42.6087Z" fill="#373C3D"/>
<path d="M41.0435 10.7765C41.0414 10.9761 40.9788 11.17 40.8644 11.3307C40.75 11.4914 40.5896 11.6107 40.4061 11.6718C40.2225 11.7329 40.0251 11.7326 39.8417 11.671C39.6583 11.6095 39.4982 11.4897 39.3843 11.3287C38.8165 10.4808 38.3289 9.57824 37.9282 8.63355C36.2563 4.96554 35.1389 1.95486 34.6522 1.06525C37.3653 2.39748 41.0265 5.17587 41.0435 10.7765Z" fill="#373C3D"/>
<path d="M6.95647 10.7765C6.95851 10.9761 7.02116 11.17 7.13556 11.3307C7.24995 11.4914 7.41027 11.6107 7.59383 11.6718C7.77738 11.7329 7.97485 11.7326 8.15825 11.671C8.34165 11.6095 8.50168 11.4897 8.61567 11.3287C9.18345 10.4808 9.67105 9.57824 10.0717 8.63355C11.7436 4.96554 12.861 1.95486 13.3478 1.06525C10.6346 2.39748 6.9734 5.17587 6.95647 10.7765Z" fill="#373C3D"/>
<path d="M33.5869 95.654C35.1392 94.9948 36.5226 93.9749 37.6292 92.6739L38.913 93.0924C37.5448 94.761 35.8169 96.0768 33.8672 96.9348L33.5869 95.654Z" fill="#EC4F4F"/>
<path d="M14.413 95.6511C12.8593 94.9953 11.4739 93.9762 10.3658 92.6739L9.08688 93.092C10.4545 94.762 12.1815 96.078 14.1297 96.9348L14.413 95.6511Z" fill="#EC4F4F"/>
</svg>
