<svg width="51" height="98" viewBox="0 0 51 98" fill="none" xmlns="http://www.w3.org/2000/svg">
<path d="M3.3468 19.9858L3.51433 84.1461C4.27018 97.2766 6.33512 97 6.33512 97H43.9013C43.9013 97 46.3871 97.2766 47.1429 84.1461L47.3104 19.9858C47.3104 19.9858 47.1585 7.44355 44.3027 4.01585C41.778 0.96987 30.9195 0.276548 25.3442 0.0194702H25.3169C19.7377 0.276548 8.38447 1.77226 6.22603 4.50274C3.46759 8.00444 3.3468 19.9858 3.3468 19.9858Z" fill="#969595"/>
<path d="M3.3468 20.3597L3.51433 84.2123C4.27018 97.2804 6.33512 97.0039 6.33512 97.0039H43.9013C43.9013 97.0039 46.3871 97.2804 47.1429 84.2123L47.3104 20.3636C47.3104 20.3636 47.1585 7.89925 44.3027 4.45597C41.778 1.42557 30.9195 0.732247 25.3442 0.479065H25.3169C19.7377 0.732247 8.38447 2.22407 6.22603 4.94286C3.46759 8.44067 3.3468 20.3597 3.3468 20.3597Z" fill="#747F7A"/>
<path d="M42.5572 4.04315L42.7364 3.84061C42.7364 3.84061 40.4221 1.97484 36.5299 2.65259L42.5572 4.04315Z" fill="#D5D3CB"/>
<path d="M35.9377 9.35215C35.3883 9.25477 34.9792 8.96264 35.026 8.67829L36.0156 2.94858C36.0623 2.67203 36.5493 2.52402 37.0987 2.6214L41.9221 3.45106C42.4714 3.54454 42.8805 3.84057 42.8338 4.12102L41.8442 9.85462C41.7974 10.1312 41.3104 10.2753 40.761 10.1818L35.9377 9.35215Z" fill="#66706B"/>
<path d="M9.07399 4.04315L8.89868 3.84061C8.89868 3.84061 11.2091 1.97484 15.1013 2.65259L9.07399 4.04315Z" fill="#D5D3CB"/>
<path d="M15.6936 9.35215C16.2468 9.25477 16.652 8.96264 16.6052 8.67829L15.6156 2.94858C15.5689 2.67203 15.0858 2.52402 14.5325 2.6214L9.71303 3.45106C9.15979 3.54454 8.75071 3.84057 8.80136 4.12102L9.78706 9.85462C9.83771 10.1312 10.3208 10.2753 10.8741 10.1818L15.6936 9.35215Z" fill="#66706B"/>
<path d="M3.3468 21.1115L3.51433 83.5774C4.27018 96.3612 6.33512 96.0924 6.33512 96.0924H43.9013C43.9013 96.0924 46.3871 96.3612 47.1429 83.5774L47.3104 21.1115C47.3104 21.1115 47.1585 8.90031 44.3027 5.53104C41.778 2.56686 30.9195 1.88911 25.3442 1.63593H25.3169C19.7377 1.88521 8.38447 3.34588 6.22603 6.00234C3.46759 9.42615 3.3468 21.1115 3.3468 21.1115Z" fill="#FFB421"/>
<path d="M7.57018 95.1187C7.78836 92.3337 7.46498 76.7299 7.38706 75.9469C7.31669 75.5434 7.39564 75.128 7.60915 74.7784L11.5715 67.5958C12.1442 66.6688 12.0702 65.0601 12.0702 65.0601V35.1534C12.1091 33.942 11.5715 33.4045 11.5715 33.4045C11.5715 33.4045 7.85849 27.7994 6.79096 26.1713C5.72342 24.5431 5.77408 24.0134 5.77408 24.0134C5.77408 24.0134 7.99875 7.65392 8.59875 6.25168C9.19875 4.84943 15.8299 2.74607 15.8299 2.74607L15.7987 2.67596C11.4819 3.41214 7.42992 4.51835 6.23382 5.9985C3.46758 9.4262 3.3468 21.1115 3.3468 21.1115L3.51433 83.5775C4.27018 96.3612 6.33512 96.0925 6.33512 96.0925H7.0442C7.2108 95.9918 7.34742 95.8484 7.43991 95.6772C7.5324 95.506 7.57737 95.3131 7.57018 95.1187Z" fill="#B58D00"/>
<path d="M42.2727 5.99069C42.8688 7.39682 45.0974 23.7524 45.0974 23.7524C45.0974 23.7524 45.1481 24.2821 44.0805 25.9103C43.013 27.5385 39.3 33.1396 39.3 33.1396C39.3 33.1396 38.7624 33.6772 38.7974 34.8885V64.8069C38.7974 64.8069 38.7273 66.4156 39.3 67.3426L43.2623 74.5252C43.4759 74.8748 43.5548 75.2902 43.4844 75.6937C43.4065 76.4728 43.0948 92.0805 43.2974 94.8655C43.2974 94.8655 43.2078 95.5588 44.1623 96.034C44.8052 95.7263 46.5507 93.9345 47.1623 83.5696L47.3104 21.1115C47.3104 21.1115 47.1585 8.90034 44.3026 5.53107C42.939 3.92628 39.1325 2.99534 35.0455 2.43445L35.0221 2.48899C35.0221 2.48899 41.6533 4.57676 42.2727 5.99069Z" fill="#B58D00"/>
<path d="M37.013 32.6371C37.013 32.6371 27.5649 31.7958 12.8571 32.6371C12.6494 32.6771 12.4348 32.6622 12.2346 32.5939C12.0344 32.5256 11.8555 32.4062 11.7156 32.2476C11.213 31.7101 7.23895 24.3717 7.23895 24.3717C7.23895 24.3717 6.12466 22.6228 7.0831 22.2489C8.04155 21.875 22.7221 18.1746 43.6753 21.8944C43.6753 21.8944 44.774 22.7085 43.8117 23.9666C43.4221 24.4964 38.926 31.8464 38.926 31.8464C38.926 31.8464 38.3883 32.6722 37.6909 32.6255L37.013 32.6371Z" fill="#00384B"/>
<path d="M37.165 32.6371C37.165 32.6371 27.5377 31.7218 12.5767 32.6371C12.3649 32.6874 12.1432 32.6776 11.9367 32.6088C11.7302 32.54 11.5471 32.4149 11.4078 32.2476C10.8975 31.6633 6.70524 23.9237 6.70524 23.9237C6.70524 23.9237 5.35329 21.6568 6.70524 21.3725C7.78835 21.1426 22.6325 16.9398 43.9754 20.9829C43.9754 20.9829 45.2494 22.2294 44.2676 23.5966C43.8507 24.1769 39.1364 31.8075 39.1364 31.8075C39.1364 31.8075 38.5909 32.7033 37.8819 32.6761L37.165 32.6371Z" fill="black"/>
<path d="M37.013 32.6371C37.013 32.6371 27.5649 31.7958 12.8571 32.6371C12.6494 32.6771 12.4348 32.6622 12.2346 32.5939C12.0344 32.5256 11.8555 32.4062 11.7156 32.2476C11.213 31.7101 7.23895 24.3717 7.23895 24.3717C7.23895 24.3717 6.12466 22.6228 7.0831 22.2489C8.04155 21.875 22.7221 18.1746 43.6753 21.8944C43.6753 21.8944 44.774 22.7085 43.8117 23.9666C43.4221 24.4964 38.926 31.8464 38.926 31.8464C38.926 31.8464 38.3883 32.6722 37.6909 32.6255L37.013 32.6371Z" fill="#343432"/>
<g style="mix-blend-mode:screen" opacity="0.4">
<path d="M37.013 32.6372L37.7104 32.6605C38.4078 32.6878 38.9454 31.8815 38.9454 31.8815C38.9454 31.8815 40.7259 28.9563 42.1441 26.662C41.2402 26.9399 40.3156 27.1879 39.3701 27.406C36.6517 28.0182 33.8881 28.409 31.1065 28.5746C28.8428 28.7226 26.5558 28.7615 24.2805 28.781C19.305 28.8869 14.3289 28.6043 9.39738 27.9357L9.1792 27.9007C10.2701 29.8716 11.4701 31.9906 11.735 32.271C11.875 32.4296 12.0539 32.549 12.2541 32.6173C12.4543 32.6856 12.6689 32.7005 12.8766 32.6605C27.5649 31.7958 37.013 32.6372 37.013 32.6372Z" fill="#343432"/>
</g>
<path d="M36.4285 67.6153C36.4285 67.6153 27.7246 68.3631 14.1973 67.6153C14.0086 67.5783 13.8135 67.5896 13.6303 67.6482C13.4471 67.7068 13.2816 67.8107 13.1493 67.9503C12.6857 68.4294 9.02721 74.9615 9.02721 74.9615C9.02721 74.9615 8.00253 76.5195 8.88305 76.8506C9.76357 77.1817 23.0921 80.9911 42.5805 77.1661C42.5805 77.1661 43.5895 76.4416 42.7051 75.3237C42.3155 74.8485 38.2051 68.3125 38.2051 68.3125C38.2051 68.3125 37.7142 67.5763 37.0714 67.5997L36.4285 67.6153Z" fill="black"/>
<path d="M36.4285 67.7594C36.4285 67.7594 27.7324 68.4838 14.2207 67.7594C14.0332 67.7229 13.8397 67.733 13.657 67.7887C13.4743 67.8444 13.308 67.9439 13.1727 68.0787C12.7091 68.5462 8.82465 74.8991 8.82465 74.8991C8.82465 74.8991 7.81555 76.3052 8.91035 76.7103C9.79087 77.0375 23.3026 80.2159 42.5844 77.018C42.5844 77.018 43.5935 76.313 42.7091 75.2302C42.3194 74.7706 38.213 68.4293 38.213 68.4293C38.213 68.4293 37.7181 67.7165 37.0792 67.736L36.4285 67.7594Z" fill="#00384B"/>
<path d="M36.4285 67.7594C36.4285 67.7594 27.7324 68.4838 14.2207 67.7594C14.0332 67.7229 13.8397 67.733 13.657 67.7887C13.4743 67.8444 13.308 67.9439 13.1727 68.0787C12.7091 68.5462 8.82465 74.8991 8.82465 74.8991C8.82465 74.8991 7.81555 76.3052 8.91035 76.7103C9.79087 77.0375 23.3026 80.2159 42.5844 77.018C42.5844 77.018 43.5935 76.313 42.7091 75.2302C42.3194 74.7706 38.213 68.4293 38.213 68.4293C38.213 68.4293 37.7181 67.7165 37.0792 67.736L36.4285 67.7594Z" fill="#343432"/>
<g style="mix-blend-mode:screen" opacity="0.4">
<path d="M15.5572 70.8365C19.7258 70.4268 23.9185 70.3188 28.1026 70.5132C29.7935 70.5794 31.4728 70.6729 33.1403 70.9027C34.8181 71.1139 36.4766 71.4578 38.1 71.931C39.212 72.2541 40.2909 72.6819 41.3221 73.2086C39.9935 71.1988 38.2052 68.4332 38.2052 68.4332C38.2052 68.4332 37.7104 67.7204 37.0715 67.7399L36.4286 67.7633C36.4286 67.7633 27.7325 68.4878 14.2208 67.7633C14.0333 67.7268 13.8398 67.7369 13.657 67.7926C13.4743 67.8483 13.3081 67.9479 13.1728 68.0827C12.9468 68.3125 11.9026 69.9484 10.8936 71.561C12.4169 71.2377 13.9909 71.004 15.5572 70.8365Z" fill="#343432"/>
</g>
<g style="mix-blend-mode:screen" opacity="0.5">
<path d="M25.3286 33.1864C21.5416 32.8981 13.5273 33.7589 12.6507 33.9654C11.7741 34.1718 12.7052 63.7202 12.7559 64.9393C12.7756 65.2815 12.9153 65.6057 13.1504 65.855C13.3856 66.1044 13.7011 66.2629 14.0416 66.3026C14.0416 66.3026 26.7 68.0048 36.6156 66.3026C36.9561 66.2629 37.2716 66.1044 37.5068 65.855C37.742 65.6057 37.8817 65.2815 37.9014 64.9393C37.9559 63.7202 38.8793 34.1679 38.0065 33.9654C37.1338 33.7628 29.1156 32.8864 25.3286 33.1864Z" fill="#FFB421"/>
</g>
<g style="mix-blend-mode:screen">
<path d="M44.3026 20.5857C44.3026 20.5857 24.2299 15.7791 6.23376 21.4036C6.23376 21.4036 21.8026 13.964 44.3026 20.5857Z" fill="#FFB421"/>
</g>
<path d="M45.3897 26.6153V75.6626C45.3897 75.6626 45.2883 76.874 44.6494 76.2274L39.7286 68.2424C39.3408 67.5162 39.1299 66.7088 39.113 65.8858V35.0755C39.1829 34.3911 39.3924 33.7282 39.7286 33.1279C40.3013 32.0568 45.0156 25.6766 45.0156 25.6766C45.0156 25.6766 45.3897 25.3961 45.3897 26.6153Z" fill="#1D1D1B"/>
<path d="M45.2376 51.9686L39.8805 51.7115V64.7952L45.2376 69.407V51.9686Z" fill="#343432"/>
<path d="M45.2376 26.9892C45.2376 25.7779 44.9143 26.07 44.9143 26.07C44.9143 26.07 40.8935 32.345 40.4026 33.3967C40.1127 34.0012 39.9345 34.653 39.8766 35.3209V50.5664L45.2376 50.2742V26.9892Z" fill="#343432"/>
<g style="mix-blend-mode:screen" opacity="0.4">
<path d="M43.0519 59.9302C42.6195 57.2465 42.3195 54.5393 42.1558 51.8245L39.8766 51.7154V64.7952L44.8987 69.1149C44.0997 66.093 43.483 63.0259 43.0519 59.9302Z" fill="#343432"/>
</g>
<g style="mix-blend-mode:screen" opacity="0.4">
<path d="M42.0194 45.8182C42.0599 41.0801 42.6284 36.3613 43.7143 31.7491C44.1584 29.9184 44.4935 27.9357 45.0779 26.0778C45.0561 26.0564 45.0267 26.0444 44.9961 26.0444C44.9655 26.0444 44.9361 26.0564 44.9143 26.0778C44.9143 26.0778 40.8935 32.3528 40.4026 33.4045C40.1127 34.009 39.9345 34.6608 39.8766 35.3287V50.5741L42.0857 50.4534C42.0208 48.9057 41.9987 47.3607 42.0194 45.8182Z" fill="#343432"/>
</g>
<path d="M45.2376 75.2185V70.817L39.8766 65.3132V65.6209C39.8897 66.4203 40.0688 67.2082 40.4026 67.9346L44.6104 75.7716C45.1519 76.4221 45.2376 75.2185 45.2376 75.2185Z" fill="#B58D00"/>
<path d="M5.14673 26.6153V75.6626C5.14673 75.6626 5.24802 76.874 5.88699 76.2274L10.8117 68.2424C11.1974 67.5154 11.4082 66.7085 11.4273 65.8858V35.0755C11.3574 34.3911 11.1479 33.7282 10.8117 33.1279C10.235 32.0568 5.52465 25.6766 5.52465 25.6766C5.52465 25.6766 5.14673 25.3961 5.14673 26.6153Z" fill="#1D1D1B"/>
<path d="M5.29871 51.9686L10.6597 51.7115V64.7952L5.29871 69.407V51.9686Z" fill="#343432"/>
<path d="M5.29871 26.9892C5.29871 25.7779 5.62208 26.07 5.62208 26.07C5.62208 26.07 9.64676 32.345 10.1377 33.3967C10.4275 34.0009 10.6044 34.653 10.6597 35.3209V50.5664L5.29871 50.2742V26.9892Z" fill="#343432"/>
<g style="mix-blend-mode:screen" opacity="0.4">
<path d="M7.48825 59.9302C7.91683 57.2465 8.21683 54.5393 8.38436 51.8245L10.6597 51.7154V64.7952L5.64929 69.1149C6.44188 66.092 7.05593 63.0251 7.48825 59.9302Z" fill="#343432"/>
</g>
<g style="mix-blend-mode:screen" opacity="0.4">
<path d="M8.51692 45.8182C8.47521 41.08 7.90546 36.3611 6.81822 31.7491C6.37406 29.9184 6.039 27.9357 5.45068 26.0778C5.47253 26.0564 5.50192 26.0444 5.53251 26.0444C5.5631 26.0444 5.59248 26.0564 5.61433 26.0778C5.61433 26.0778 9.639 32.3528 10.1299 33.4045C10.4197 34.0087 10.5967 34.6608 10.652 35.3287V50.5741L8.44679 50.4534C8.51692 48.9057 8.54029 47.3607 8.51692 45.8182Z" fill="#343432"/>
</g>
<path d="M5.29871 75.2185V70.817L10.6597 65.3132V65.6209C10.6491 66.4201 10.4713 67.2083 10.1377 67.9346L5.93377 75.7716C5.38832 76.4221 5.29871 75.2185 5.29871 75.2185Z" fill="#B58D00"/>
<path d="M43.0519 94.585V76.7571C42.4824 82.6861 42.4824 88.656 43.0519 94.585Z" fill="#969595"/>
<path d="M7.81946 94.585V76.7571C8.38898 82.6861 8.38898 88.656 7.81946 94.585Z" fill="#969595"/>
<path d="M45.6818 93.4866L44.0883 92.4661C44.0883 92.4661 43.613 92.0376 43.4688 92.7504V94.585C43.444 94.8587 43.5111 95.1328 43.6597 95.364C43.8479 95.5764 44.0567 95.7695 44.2831 95.9405C44.2831 95.9405 44.4233 96.0067 44.7078 95.7964C44.9922 95.5861 45.5337 94.3435 45.6818 93.9384C45.8298 93.5333 45.8376 93.5879 45.6818 93.4866Z" fill="#D5D3CB"/>
<path d="M44.4974 94.3396C44.6034 93.9738 44.6559 93.5947 44.6532 93.2139C44.6532 93.0737 44.6298 92.9335 44.6143 92.7932L44.0883 92.4582C44.0883 92.4582 43.613 92.0298 43.4688 92.7426V94.5772C43.444 94.8509 43.5111 95.125 43.6597 95.3562C43.7566 95.4693 43.8607 95.576 43.9714 95.6756C44.2176 95.2615 44.3952 94.8103 44.4974 94.3396Z" fill="#893D09"/>
<g style="mix-blend-mode:screen" opacity="0.4">
<path d="M43.9753 95.0875C43.8856 94.7728 43.8346 94.4485 43.8233 94.1215C43.7643 93.8177 43.7844 93.5038 43.8818 93.21C44.1078 92.7582 44.5987 92.8673 45.0974 93.1165L44.0883 92.4661C44.0883 92.4661 43.613 92.0376 43.4688 92.7504V94.585C43.444 94.8587 43.5111 95.1328 43.6597 95.364C43.8479 95.5764 44.0567 95.7695 44.2831 95.9405C44.2831 95.9405 44.3961 95.995 44.6221 95.8509C44.332 95.6702 44.1058 95.4032 43.9753 95.0875Z" fill="white"/>
</g>
<path d="M4.87011 93.4866L6.46362 92.4661C6.46362 92.4661 6.93894 92.0376 7.08309 92.7504V94.585C7.10794 94.8587 7.04076 95.1328 6.89219 95.364C6.704 95.5764 6.49518 95.7695 6.26881 95.9405C6.26881 95.9405 6.12855 96.0067 5.84414 95.7964C5.55972 95.5861 5.01037 94.3396 4.87011 93.9501C4.72985 93.5606 4.70647 93.5879 4.87011 93.4866Z" fill="#D5D3CB"/>
<path d="M6.03899 94.3396C5.93299 93.9738 5.8805 93.5947 5.88315 93.2139C5.88315 93.0737 5.90653 92.9335 5.92212 92.7932L6.44808 92.4582C6.44808 92.4582 6.92342 92.0298 7.06757 92.7426V94.5772C7.09242 94.8509 7.02523 95.125 6.87665 95.3562C6.77976 95.4693 6.67565 95.576 6.56497 95.6756C6.31881 95.2615 6.14119 94.8103 6.03899 94.3396Z" fill="#893D09"/>
<g style="mix-blend-mode:screen" opacity="0.4">
<path d="M6.56885 95.0875C6.65851 94.7728 6.70954 94.4485 6.7208 94.1215C6.77987 93.8177 6.75974 93.5038 6.66236 93.21C6.43639 92.7582 5.94548 92.8673 5.44678 93.1165L6.45587 92.4661C6.45587 92.4661 6.93119 92.0376 7.07535 92.7504V94.585C7.10019 94.8587 7.03301 95.1328 6.88444 95.364C6.69625 95.5764 6.48743 95.7695 6.26106 95.9405C6.26106 95.9405 6.14808 95.995 5.9221 95.8509C6.21214 95.6702 6.43829 95.4032 6.56885 95.0875Z" fill="white"/>
</g>
<path d="M45.6584 25.8596L44.6103 25.3961C44.6103 25.3961 44.0259 24.8119 44.6103 24.4029C44.9727 24.1497 46.461 24.4029 46.461 24.4029L45.6584 25.8596Z" fill="#80660C"/>
<path d="M50.3299 25.5714C50.4546 25.6844 50.5715 25.8012 50.6844 25.922C50.8189 26.4836 50.9242 27.0517 51 27.6241C49.052 27.1567 47.1039 26.6776 45.2377 26.0349C45.277 25.6848 45.3381 25.3374 45.4208 24.9949C45.6312 24.0562 45.9974 24.2159 45.9974 24.2159C46.8857 24.1107 49.0792 24.4224 50.3299 25.5714Z" fill="#FA8370"/>
<g style="mix-blend-mode:screen" opacity="0.5">
<path d="M45.5845 24.508C46.698 24.6178 47.7884 24.8963 48.8182 25.3338C49.4797 25.6429 50.054 26.1113 50.4897 26.6971C50.6632 26.9265 50.8232 27.1658 50.9689 27.4138C50.8949 26.9113 50.8053 26.4127 50.6845 25.922C50.5715 25.8012 50.4546 25.6844 50.3299 25.5714C49.0793 24.4223 46.8858 24.1107 45.9975 24.212C45.9975 24.2276 45.7793 24.1224 45.5845 24.508Z" fill="#FFB421"/>
</g>
<path d="M5.34151 25.8596L6.38568 25.3883C6.38568 25.3883 6.97009 24.804 6.38568 24.3951C6.01944 24.1419 4.53113 24.3951 4.53113 24.3951L5.34151 25.8596Z" fill="#80660C"/>
<path d="M0.67013 25.5714C0.545455 25.6844 0.42857 25.8012 0.315583 25.922C0.181164 26.4836 0.0758299 27.0517 0 27.6241C1.94805 27.1567 3.89611 26.6776 5.76234 26.0349C5.72303 25.6848 5.66187 25.3374 5.57922 24.9949C5.36883 24.0562 5.0026 24.2159 5.0026 24.2159C4.11428 24.1107 1.92078 24.4224 0.67013 25.5714Z" fill="#FA8370"/>
<g style="mix-blend-mode:screen" opacity="0.5">
<path d="M5.41555 24.508C4.30199 24.6178 3.21161 24.8963 2.18178 25.3338C1.52036 25.6429 0.946034 26.1113 0.510353 26.6971C0.336819 26.9265 0.176803 27.1658 0.0311279 27.4138C0.105154 26.9113 0.194769 26.4127 0.315548 25.922C0.428535 25.8012 0.545419 25.6844 0.670095 25.5714C1.92074 24.4223 4.11425 24.1107 5.00256 24.212C5.00256 24.2276 5.22074 24.1224 5.41555 24.508Z" fill="#FFB421"/>
</g>
<path d="M4.52727 49.5186V45.0782C4.52727 45.0782 4.5 44.4588 4.2974 44.6886C4.0948 44.9185 4.11038 45.4404 4.11038 45.7793V49.02C4.11038 49.02 4.11039 49.6666 4.37922 49.7017C4.40224 49.7031 4.4253 49.6991 4.44643 49.6898C4.46756 49.6806 4.48617 49.6664 4.50067 49.6484C4.51518 49.6305 4.52516 49.6094 4.52979 49.5868C4.53442 49.5642 4.53355 49.5408 4.52727 49.5186Z" fill="#80660C"/>
<path d="M4.52731 49.1758V45.378C4.52731 45.378 4.50394 44.8483 4.33251 45.0275C4.16108 45.2067 4.16888 45.6741 4.16888 45.9623V48.7317C4.16888 48.7317 4.16888 49.2848 4.39875 49.316C4.41684 49.3167 4.43487 49.3135 4.45159 49.3065C4.4683 49.2995 4.48329 49.289 4.49553 49.2757C4.50777 49.2623 4.51695 49.2465 4.52244 49.2292C4.52793 49.212 4.52959 49.1937 4.52731 49.1758Z" fill="#FFB421"/>
<path d="M4.52727 70.9067V66.4623C4.52727 66.4623 4.5 65.843 4.2974 66.0533C4.0948 66.2637 4.11038 66.809 4.11038 67.144V70.3847C4.11038 70.3847 4.11039 71.0313 4.37922 71.0664C4.40004 71.0677 4.42091 71.0644 4.4403 71.0567C4.45968 71.049 4.47709 71.0371 4.49128 71.0218C4.50546 71.0065 4.51606 70.9882 4.52229 70.9683C4.52851 70.9484 4.53021 70.9273 4.52727 70.9067Z" fill="#80660C"/>
<path d="M4.52731 70.5794V66.7622C4.52731 66.7622 4.50394 66.2325 4.33251 66.4116C4.16108 66.5908 4.16888 67.0582 4.16888 67.3465V70.1159C4.16888 70.1159 4.16888 70.669 4.39875 70.7002C4.41525 70.7012 4.4318 70.6989 4.44736 70.6933C4.46293 70.6877 4.47717 70.679 4.48923 70.6677C4.50128 70.6564 4.51088 70.6427 4.51743 70.6275C4.52398 70.6123 4.52735 70.5959 4.52731 70.5794Z" fill="#FFB421"/>
<path d="M45.7793 49.5186V45.0782C45.7793 45.0782 45.8065 44.4588 46.0091 44.6886C46.2117 44.9185 46.1961 45.4404 46.1961 45.7793V49.02C46.1961 49.02 46.1961 49.6666 45.9273 49.7017C45.9043 49.7031 45.8812 49.6991 45.8601 49.6898C45.839 49.6806 45.8204 49.6664 45.8059 49.6484C45.7914 49.6305 45.7814 49.6094 45.7767 49.5868C45.7721 49.5642 45.773 49.5408 45.7793 49.5186Z" fill="#80660C"/>
<path d="M45.7792 49.1758V45.378C45.7792 45.378 45.8026 44.8483 45.974 45.0275C46.1454 45.2067 46.1337 45.6741 46.1337 45.9623V48.7317C46.1337 48.7317 46.1337 49.2848 45.9039 49.316C45.9194 49.316 45.7792 49.3238 45.7792 49.1758Z" fill="#FFB421"/>
<path d="M45.7792 70.9067V66.4623C45.7792 66.4623 45.8065 65.843 46.0091 66.0533C46.2117 66.2637 46.1961 66.809 46.1961 67.144V70.3847C46.1961 70.3847 46.1961 71.0313 45.9273 71.0664C45.9065 71.0677 45.8856 71.0644 45.8662 71.0567C45.8468 71.049 45.8294 71.0371 45.8152 71.0218C45.801 71.0065 45.7905 70.9882 45.7842 70.9683C45.778 70.9484 45.7763 70.9273 45.7792 70.9067Z" fill="#80660C"/>
<path d="M45.7792 70.5794V66.7622C45.7792 66.7622 45.8026 66.2325 45.974 66.4116C46.1454 66.5908 46.1337 67.0582 46.1337 67.3465V70.1159C46.1337 70.1159 46.1337 70.669 45.9039 70.7002C45.8877 70.7007 45.8715 70.6979 45.8564 70.6921C45.8413 70.6863 45.8275 70.6775 45.8159 70.6662C45.8043 70.6549 45.795 70.6415 45.7887 70.6265C45.7824 70.6116 45.7792 70.5956 45.7792 70.5794Z" fill="#FFB421"/>
</svg>
