<svg width="75" height="142" viewBox="0 0 75 142" fill="none" xmlns="http://www.w3.org/2000/svg">
<path d="M11.4226 35.4534L3.96693 39.4586C2.8785 40.0403 2.03047 40.9877 1.57243 42.1335C1.11439 43.2794 1.07576 44.5502 1.46336 45.7218L1.96408 47.1637L8.68866 43.9695L9.95047 41.321L10.7266 40.0193L11.4226 35.4534Z" fill="#EDFCFF"/>
<path d="M1.7137 47.6293L1.11285 45.8069C0.700058 44.554 0.74352 43.1955 1.23555 41.9715C1.72758 40.7475 2.6365 39.7369 3.80168 39.1182L11.8882 34.8075L10.9919 40.1996L10.2108 41.5013L8.91397 44.2048L1.7137 47.6293ZM10.9619 36.1142L4.13215 39.754C3.11464 40.2947 2.32095 41.1776 1.89126 42.2467C1.46157 43.3157 1.42351 44.5022 1.7838 45.5967L2.1343 46.658L8.38321 43.7042L9.58993 41.1708L10.351 39.8942L10.9619 36.1142Z" fill="#BECACC"/>
<path d="M63.632 35.4534L71.0926 39.4586C72.1803 40.0411 73.0277 40.9885 73.4857 42.1341C73.9436 43.2798 73.9827 44.5502 73.5962 45.7218L73.1255 47.1637L66.436 43.9445L65.1742 41.296L64.393 39.9943L63.632 35.4534Z" fill="#EDFCFF"/>
<path d="M73.3459 47.6293L66.1456 44.2048L64.8287 41.4412L64.0226 40.0444L63.1714 34.8025L71.2579 39.1132C72.4249 39.7313 73.3352 40.7427 73.8274 41.968C74.3196 43.1934 74.3619 44.5534 73.9467 45.8069L73.3459 47.6293ZM66.6714 43.7042L72.9453 46.648L73.2908 45.5866C73.6521 44.4923 73.6146 43.3054 73.1848 42.2361C72.755 41.1668 71.9607 40.284 70.9425 39.744L64.1127 36.1042L64.7236 39.8692L65.4647 41.1158L66.6714 43.7042Z" fill="#BECACC"/>
<path d="M47.2487 141.197H27.811C18.1522 141.197 10.321 142.163 10.321 129.792V22.3913C10.321 9.74472 18.3325 0.707886 28.2015 0.707886H46.8581C56.7322 0.707886 64.7386 9.71969 64.7386 22.3913V129.817C64.7386 142.163 56.9225 141.197 47.2487 141.197Z" fill="#EDFCFF"/>
<path d="M51.0494 141.567H49.2068H47.244H27.8113H25.8535C20.3456 141.608 15.5988 141.638 12.7298 138.789C10.8721 136.941 9.96582 134.003 9.96582 129.777V22.3914C9.96582 9.82995 17.807 0.362549 28.2018 0.362549H46.8584C57.2532 0.362549 65.0894 9.83496 65.0894 22.3914V129.817C65.0894 134.023 64.1881 136.961 62.3305 138.829C59.7868 141.332 55.7611 141.567 51.0494 141.567ZM27.8113 140.832H49.2118C54.5544 140.872 59.171 140.902 61.8297 138.263C63.5472 136.556 64.3834 133.757 64.3834 129.752V22.3914C64.3834 10.2305 56.8476 1.06346 46.8584 1.06346H28.2018C18.1875 1.06346 10.6768 10.2305 10.6768 22.3914V129.817C10.6768 133.822 11.513 136.601 13.2305 138.328C15.8943 140.967 20.5108 140.942 25.8535 140.897L27.8113 140.832Z" fill="#BECACC"/>
<path d="M26.0082 6.87096H49.0411C53.7349 6.83561 58.3245 8.25396 62.1798 10.9313C59.0503 4.63803 53.3572 0.707886 46.8479 0.707886H28.2014C21.6921 0.707886 15.994 4.63803 12.8695 10.9313C16.7248 8.25396 21.3144 6.83561 26.0082 6.87096Z" fill="#4E5557"/>
<path d="M57.2932 134.984H17.2461V55.1143H18.1874V134.038H56.3518V55.1143H57.2932V134.984Z" fill="#8E9A9E"/>
<path d="M24.3563 63.5503H23.4149V126.933H24.3563V63.5503Z" fill="#C8D8DE"/>
<path d="M33.2787 63.5503H32.3374V126.933H33.2787V63.5503Z" fill="#C8D8DE"/>
<path d="M42.2017 63.5503H41.2604V126.933H42.2017V63.5503Z" fill="#C8D8DE"/>
<path d="M51.1192 63.5503H50.1779V126.933H51.1192V63.5503Z" fill="#C8D8DE"/>
<path d="M24.271 2.38037C23.4748 2.38037 18.2875 3.60698 14.7975 8.84885C17.7067 7.23589 20.9482 6.31424 24.271 6.15532C26.6193 6.15532 26.5943 2.38037 24.271 2.38037Z" fill="#BECACC"/>
<path d="M50.8189 2.38037C51.6201 2.38037 56.8275 3.60698 60.2924 8.84885C57.3837 7.23472 54.1419 6.31299 50.8189 6.15532C48.4756 6.15532 48.5006 2.38037 50.8189 2.38037Z" fill="#BECACC"/>
<path d="M29.16 6.77918L23.6874 29.8914L24.6034 30.1082L30.076 6.99603L29.16 6.77918Z" fill="#C8D8DE"/>
<path d="M45.9121 6.76382L44.996 6.98035L50.4605 30.0944L51.3766 29.8779L45.9121 6.76382Z" fill="#C8D8DE"/>
<path d="M62.8959 76.8229L58.4396 79.4063V98.3361H62.8959V76.8229Z" fill="#4E5557"/>
<path d="M62.8959 41.2961L58.4396 57.998V73.223L62.8959 70.6396V41.2961Z" fill="#4E5557"/>
<path d="M58.4396 124.025L62.8959 126.057V103.688H58.4396V124.025Z" fill="#4E5557"/>
<path d="M11.6427 76.8229L16.1041 79.4063V98.3361H11.6427V76.8229Z" fill="#4E5557"/>
<path d="M11.6427 41.2961L16.1041 57.998V73.223L11.6427 70.6396V41.2961Z" fill="#4E5557"/>
<path d="M16.1041 124.025L11.6427 126.057V103.688H16.1041V124.025Z" fill="#4E5557"/>
<path d="M10.9366 134.879C11.9381 138.423 14.2113 140 17.2306 140.691V134.879H10.9366Z" fill="#DA5A61"/>
<path d="M64.1229 134.879H57.3032V140.797C60.5879 140.171 63.0414 138.624 64.1229 134.879Z" fill="#DA5A61"/>
<path d="M48.2602 134.513H47.3188V141.202H48.2602V134.513Z" fill="#8E9A9E"/>
<path d="M27.3504 134.513H26.4091V141.202H27.3504V134.513Z" fill="#8E9A9E"/>
<path d="M57.0574 55.3548C56.8121 56.8919 55.37 56.6015 53.948 56.1859C48.4684 54.6379 42.798 53.8694 37.104 53.9029C28.9023 53.9029 23.5847 55.0845 20.6405 56.0057C19.1834 56.4663 17.6913 56.7016 17.481 55.1145L14.8222 35.0883C14.7422 34.5247 14.8449 33.9503 15.1153 33.4494C15.3856 32.9484 15.8093 32.5472 16.3243 32.3046C19.2084 30.9979 25.8379 28.76 37.2492 28.76C48.0796 28.76 55.5002 31.3284 58.7248 32.7202C59.2573 32.9648 59.6936 33.3792 59.9654 33.8983C60.2372 34.4174 60.3292 35.012 60.2269 35.5889L57.0574 55.3548Z" fill="#4E5557"/>
</svg>
