<svg width="385" height="136" viewBox="0 0 385 136" fill="none" xmlns="http://www.w3.org/2000/svg">
<g opacity="0.5">
<path fill-rule="evenodd" clip-rule="evenodd" d="M212.448 34.3421C164.659 32.5795 171.866 0.395858 145.304 11.2554C124.492 19.7488 83.151 -5.33987 72.6307 2.5146C61.943 10.4866 -41.0305 56.6723 20.698 108.318C32.8802 118.516 57.3617 86.627 107.556 84.7717C119.787 84.3204 145.304 140.761 298.468 134.289C342.112 138.404 368.741 114.559 370.968 103.789C376.106 78.8987 260.238 36.1048 212.448 34.3421Z" fill="#747F97"/>
<path d="M249.823 63.3201C253.172 71.1345 261.835 94.4115 245.637 89.8335C229.439 85.2554 198.192 99.6016 213.542 107.974C228.891 116.347 298.664 107.974 306.338 107.974C314.013 107.974 318.09 99.676 310.525 89.8335C302.959 79.9909 281.99 84.9353 276.336 66.9664C270.682 48.9974 245.637 53.552 249.823 63.3201Z" fill="#4D5A78"/>
<path fill-rule="evenodd" clip-rule="evenodd" d="M205.543 64.9492C195.245 47.5041 192.109 38.8846 172.826 31.9772C162.194 28.1775 114.39 29.1261 95.4873 16.3768C76.5843 3.62745 42.8934 27.3755 43.6912 48.814C44.3318 66.0015 80.4582 64.6848 95.9823 66.6289C125.551 70.3265 126.399 50.0651 163.936 73.1702C201.472 96.2753 215.841 82.3944 205.543 64.9492Z" fill="#607495"/>
<path fill-rule="evenodd" clip-rule="evenodd" d="M340.401 42.36C350.739 59.7812 329.901 57.7373 349.2 64.5996C359.84 68.3744 382.577 66.6869 383.899 59.2395C385.221 51.7922 382.351 43.458 358.397 16.7432C334.444 -9.97159 330.063 24.9388 340.401 42.36Z" fill="#747F97"/>
<path fill-rule="evenodd" clip-rule="evenodd" d="M181.894 44.2455C162.937 30.1595 135.591 34.3875 113.816 27.7876C91.6294 21.0768 68.6346 33.9216 89.335 36.37C102.875 37.9718 120.799 38.6728 133.571 44.1778C142.763 48.1409 162.624 69.3585 179.999 66.9666C197.375 64.5746 184.098 51.9305 181.894 44.2455Z" fill="#4D5A78"/>
</g>
</svg>
