<svg width="50" height="50" viewBox="0 0 50 50" fill="none" xmlns="http://www.w3.org/2000/svg">
<path d="M25 50C18.0208 50 12.1094 47.5781 7.26562 42.7344C2.42187 37.8906 0 31.9792 0 25C0 18.0208 2.42187 12.1094 7.26562 7.26563C12.1094 2.42188 18.0208 1.08131e-05 25 1.08131e-05C28.5937 1.08131e-05 32.0312 0.741677 35.3125 2.22501C38.5937 3.70834 41.4062 5.83126 43.75 8.59376V3.12501C43.75 2.23959 44.05 1.49689 44.65 0.896886C45.25 0.296886 45.9917 -0.00207252 46.875 1.08131e-05C47.7604 1.08131e-05 48.5031 0.300011 49.1031 0.900011C49.7031 1.50001 50.0021 2.24168 50 3.12501V18.75C50 19.6354 49.7 20.3781 49.1 20.9781C48.5 21.5781 47.7583 21.8771 46.875 21.875H31.25C30.3646 21.875 29.6219 21.575 29.0219 20.975C28.4219 20.375 28.1229 19.6333 28.125 18.75C28.125 17.8646 28.425 17.1219 29.025 16.5219C29.625 15.9219 30.3667 15.6229 31.25 15.625H41.25C39.5833 12.7083 37.3042 10.4167 34.4125 8.75001C31.5208 7.08334 28.3833 6.25001 25 6.25001C19.7917 6.25001 15.3646 8.07293 11.7187 11.7188C8.07292 15.3646 6.25 19.7917 6.25 25C6.25 30.2083 8.07292 34.6354 11.7187 38.2812C15.3646 41.9271 19.7917 43.75 25 43.75C28.5937 43.75 31.9146 42.799 34.9625 40.8969C38.0104 38.9948 40.2885 36.4562 41.7969 33.2813C42.0573 32.7083 42.4875 32.226 43.0875 31.8344C43.6875 31.4427 44.2989 31.2479 44.9219 31.25C46.1198 31.25 47.0187 31.6667 47.6187 32.5C48.2187 33.3333 48.2833 34.2708 47.8125 35.3125C45.8333 39.7396 42.7865 43.2948 38.6719 45.9781C34.5573 48.6615 30 50.0021 25 50Z" fill="white"/>
</svg>
