<svg width="84" height="84" viewBox="0 0 84 84" fill="none" xmlns="http://www.w3.org/2000/svg">
<rect x="0.500488" y="0.5" width="83" height="83" rx="19.5" fill="white" fill-opacity="0.1" stroke="white"/>
<path fill-rule="evenodd" clip-rule="evenodd" d="M41.1913 24.0036C41.1913 22.3708 39.3405 21.426 38.0181 22.3838L13.8273 39.9055C12.7249 40.704 12.7249 42.3466 13.8273 43.145L38.0181 60.6667C39.3405 61.6245 41.1913 60.6798 41.1913 59.047V51.0603C41.1913 49.9557 42.0868 49.0603 43.1913 49.0603H69.8679C70.9725 49.0603 71.8679 48.1649 71.8679 47.0603V36.7087C71.8679 35.6041 70.9725 34.7087 69.8679 34.7087H43.1913C42.0868 34.7087 41.1913 33.8132 41.1913 32.7087V24.0036Z" fill="#D9D9D9"/>
</svg>
