<svg width="125" height="123" viewBox="0 0 125 123" fill="none" xmlns="http://www.w3.org/2000/svg">
<path d="M88.9918 40.5343C90.104 40.136 90.8524 38.8068 90.4387 37.7008C90.7412 37.9987 91.1009 38.2325 91.496 38.3879C91.8912 38.5434 92.3137 38.6173 92.7381 38.6054C93.1626 38.5934 93.5802 38.4958 93.966 38.3184C94.3518 38.1409 94.6977 37.8873 94.983 37.5729C95.2683 37.2584 95.4871 36.8894 95.6262 36.4882C95.7653 36.0871 95.8219 35.6619 95.7926 35.2383C95.7633 34.8147 95.6486 34.4014 95.4555 34.0232C95.2624 33.645 94.9949 33.3098 94.669 33.0376L95.0387 32.3992C96.5017 30.4979 95.7104 27.3166 93.5279 26.3254C91.3455 25.3343 88.4255 26.8322 87.9673 29.1848C87.1177 27.5698 84.8507 26.979 83.2295 27.8133C81.6083 28.6475 80.7611 30.6632 81.0946 32.4557C81.428 34.2482 82.8586 35.7346 84.5627 36.3831C84.5538 37.5758 84.9808 38.7306 85.7635 39.6305C86.5793 40.4918 87.8826 40.9296 88.9918 40.5343Z" fill="#89858F" fill-opacity="0.5"/>
<path d="M109.721 55.885C108.274 55.6939 106.883 56.3938 105.585 57.034C104.287 57.6742 103.014 58.3719 102.173 59.513C101.332 60.654 101.118 62.401 102.085 63.4414C100.117 64.3425 100.583 67.7992 101.691 69.0774C102.255 69.6932 103.012 70.0989 103.837 70.2277C104.662 70.3566 105.506 70.201 106.231 69.7865C106.319 70.2393 106.515 70.6644 106.801 71.0263C107.087 71.3881 107.455 71.6762 107.876 71.8664C108.296 72.0567 108.756 72.1435 109.216 72.1196C109.677 72.0957 110.125 71.9618 110.524 71.7292C110.922 71.4966 111.259 71.1719 111.506 70.7824C111.753 70.3929 111.903 69.9499 111.944 69.4904C111.985 69.031 111.915 68.5684 111.741 68.1414C111.566 67.7144 111.292 67.3355 110.941 67.0363C111.806 66.8189 112.592 66.3571 113.202 65.7058C113.813 65.0545 114.223 64.2414 114.384 63.3633C114.678 61.5829 114.253 59.7587 113.203 58.2914C112.348 57.1042 111.148 56.072 109.721 55.885Z" fill="#89858F" fill-opacity="0.5"/>
<path d="M31.5101 80.7382C29.6587 79.8226 27.0779 80.4947 26.1888 82.3578C26.1963 81.6155 26.0537 80.8793 25.7696 80.1935C25.4854 79.5076 25.0656 78.8863 24.5352 78.3668C24.0049 77.8474 23.375 77.4404 22.6835 77.1705C21.9919 76.9006 21.2529 76.7733 20.5109 76.7962C19.7689 76.8191 19.0391 76.9917 18.3655 77.3037C17.6919 77.6158 17.0883 78.0607 16.591 78.6119C16.0937 79.1631 15.7129 79.8091 15.4716 80.5111C15.2302 81.2132 15.1333 81.9568 15.1866 82.6972L13.9346 83.0071C9.76649 83.4748 6.72488 88.3326 8.12752 92.2815C9.53016 96.2304 14.9597 98.0854 18.4756 95.8056C17.4753 98.8351 19.4842 102.404 22.5019 103.431C25.5196 104.458 29.084 103.077 30.9342 100.481C32.7845 97.8855 32.9178 94.281 31.6647 91.3499C33.176 89.9132 34.1104 87.974 34.2922 85.8968C34.3854 83.8248 33.3539 81.6537 31.5101 80.7382Z" fill="#949298" fill-opacity="0.7"/>
<path d="M65.7283 31.182C67.4794 27.7672 66.9759 25.1051 65.8767 22.3244C64.682 19.2989 63.0626 17.5572 60.6302 15.7358C58.6896 14.2782 56.4106 13.3372 54.0069 13.0009C51.2391 12.62 48.4384 12.5368 45.6528 12.7529C37.7874 13.2077 29.4651 19.2177 27.4696 26.8403L27.3328 27.3862C25.2014 36.5893 33.5253 40.6943 33.5253 40.6943C32.9399 40.9855 32.3727 41.3118 31.8267 41.6714C29.2792 43.5194 23.041 47.9071 23.626 58.1976C23.9737 64.4486 27.5053 69.3208 33.9304 73.1942C40.4008 77.0911 42.0034 77.0104 42.0034 77.0104C42.0034 77.0104 37.523 89.9473 47.3691 87.9258C42.2639 91.8118 45.846 97.1602 45.846 97.1602C46.4271 98.1237 47.2265 98.9372 48.1797 99.5351C49.1329 100.133 50.2132 100.499 51.3336 100.602C52.0811 100.702 52.8416 100.616 53.5479 100.351C54.2542 100.087 54.8845 99.6528 55.3829 99.0869C56.1925 98.1917 56.8434 97.1651 57.3077 96.0511C57.2363 96.953 57.4372 97.8556 57.8845 98.642C58.5566 99.8419 59.9501 101.135 62.8393 101.822C68.925 103.264 74.1575 96.7698 74.3433 96.5365C70.3125 106.109 84.389 114.847 94.0788 98.7481C96.2413 93.6423 96.4216 92.0824 95.9094 89.2821C95.0969 85.0217 93.4627 80.48 90.1824 79.1834C87.0611 77.9497 84.0046 78.6343 81.6351 79.7087C79.9989 80.4558 78.4848 81.4456 77.1439 82.6445C77.1439 82.6445 76.2999 79.2929 73.6025 79.8683C72.8254 80.0093 72.0796 80.2876 71.4001 80.6901C72.5117 79.4505 73.5556 78.1518 74.5272 76.7997C77.9904 71.9895 82.1129 64.3316 79.3721 57.827C74.9733 47.4118 64.2404 46.4235 64.2404 46.4235C64.2404 46.4235 66.6507 43.771 65.1307 40.6117C63.6106 37.4524 61.2104 37.446 61.2104 37.446L60.7555 37.3257C62.8212 35.6447 64.5146 33.5525 65.7283 31.182Z" fill="#A5A4A4" fill-opacity="0.7"/>
<path d="M70.7283 28.182C72.4794 24.7672 71.9759 22.1051 70.8767 19.3244C69.682 16.2989 68.0626 14.5572 65.6302 12.7358C63.6896 11.2782 61.4106 10.3372 59.0069 10.0009C56.2391 9.62 53.4384 9.53684 50.6528 9.75286C42.7874 10.2077 34.4651 16.2177 32.4696 23.8403L32.3328 24.3862C30.2014 33.5893 38.5253 37.6943 38.5253 37.6943C37.9399 37.9855 37.3727 38.3118 36.8267 38.6714C34.2792 40.5194 28.041 44.9071 28.626 55.1976C28.9737 61.4486 32.5053 66.3208 38.9304 70.1942C45.4008 74.0911 47.0034 74.0104 47.0034 74.0104C47.0034 74.0104 42.523 86.9473 52.3691 84.9258C47.2639 88.8118 50.846 94.1602 50.846 94.1602C51.4271 95.1237 52.2265 95.9372 53.1797 96.5351C54.1328 97.133 55.2132 97.4985 56.3336 97.6022C57.0811 97.7019 57.8416 97.6157 58.5479 97.3514C59.2542 97.0871 59.8845 96.6528 60.3829 96.0869C61.1925 95.1917 61.8434 94.1651 62.3077 93.0511C62.2363 93.953 62.4372 94.8556 62.8845 95.642C63.5566 96.8419 64.9501 98.1354 67.8393 98.8218C73.925 100.264 79.1575 93.7698 79.3433 93.5365C75.3124 103.109 89.389 111.847 99.0788 95.7481C101.241 90.6423 101.422 89.0824 100.909 86.282C100.097 82.0217 98.4627 77.48 95.1824 76.1833C92.0611 74.9497 89.0046 75.6343 86.6351 76.7087C84.9989 77.4558 83.4848 78.4456 82.1439 79.6445C82.1439 79.6445 81.2999 76.2929 78.6025 76.8683C77.8254 77.0093 77.0796 77.2876 76.4 77.6901C77.5117 76.4505 78.5556 75.1518 79.5272 73.7997C82.9904 68.9895 87.1129 61.3316 84.3721 54.827C79.9733 44.4118 69.2404 43.4235 69.2404 43.4235C69.2404 43.4235 71.6507 40.7709 70.1307 37.6117C68.6106 34.4524 66.2104 34.446 66.2104 34.446L65.7555 34.3257C67.8212 32.6447 69.5146 30.5525 70.7283 28.182Z" fill="#E0E0E0" fill-opacity="0.7"/>
<path d="M89.9918 38.5343C91.104 38.136 91.8524 36.8068 91.4387 35.7008C91.7412 35.9987 92.1009 36.2325 92.496 36.3879C92.8912 36.5434 93.3137 36.6173 93.7381 36.6054C94.1626 36.5934 94.5802 36.4958 94.966 36.3184C95.3518 36.1409 95.6977 35.8873 95.983 35.5729C96.2683 35.2584 96.4871 34.8894 96.6262 34.4882C96.7653 34.0871 96.8219 33.6619 96.7926 33.2383C96.7633 32.8147 96.6486 32.4014 96.4555 32.0232C96.2624 31.645 95.9949 31.3098 95.669 31.0376L96.0387 30.3992C97.5017 28.4979 96.7104 25.3166 94.5279 24.3254C92.3455 23.3343 89.4255 24.8322 88.9673 27.1848C88.1177 25.5698 85.8507 24.979 84.2295 25.8133C82.6083 26.6475 81.7611 28.6632 82.0946 30.4557C82.428 32.2482 83.8586 33.7346 85.5627 34.3831C85.5538 35.5758 85.9808 36.7306 86.7635 37.6305C87.5793 38.4918 88.8826 38.9296 89.9918 38.5343Z" fill="#E0E0E0" fill-opacity="0.7"/>
<path d="M28.5101 77.7382C26.6587 76.8226 24.0779 77.4947 23.1888 79.3578C23.1963 78.6155 23.0537 77.8793 22.7696 77.1935C22.4854 76.5076 22.0656 75.8863 21.5352 75.3668C21.0049 74.8474 20.375 74.4404 19.6835 74.1705C18.9919 73.9006 18.2529 73.7733 17.5109 73.7962C16.7689 73.8191 16.0391 73.9917 15.3655 74.3037C14.6919 74.6158 14.0883 75.0607 13.591 75.6119C13.0937 76.1631 12.7129 76.8091 12.4716 77.5111C12.2302 78.2132 12.1333 78.9568 12.1866 79.6972L10.9346 80.0071C6.76649 80.4748 3.72488 85.3326 5.12752 89.2815C6.53016 93.2304 11.9597 95.0854 15.4756 92.8056C14.4753 95.8351 16.4842 99.4043 19.5019 100.431C22.5196 101.458 26.084 100.077 27.9342 97.481C29.7845 94.8855 29.9178 91.281 28.6647 88.3499C30.176 86.9132 31.1104 84.974 31.2922 82.8968C31.3854 80.8248 30.3539 78.6537 28.5101 77.7382Z" fill="#E0E0E0" fill-opacity="0.7"/>
<path d="M110.721 53.885C109.274 53.6939 107.883 54.3938 106.585 55.034C105.287 55.6742 104.014 56.3719 103.173 57.513C102.332 58.654 102.118 60.401 103.085 61.4414C101.117 62.3425 101.583 65.7992 102.691 67.0774C103.255 67.6932 104.012 68.0989 104.837 68.2277C105.662 68.3566 106.506 68.201 107.231 67.7865C107.319 68.2393 107.515 68.6644 107.801 69.0263C108.087 69.3881 108.455 69.6762 108.876 69.8664C109.296 70.0567 109.756 70.1435 110.216 70.1196C110.677 70.0957 111.125 69.9618 111.524 69.7292C111.922 69.4966 112.259 69.1719 112.506 68.7824C112.753 68.3929 112.903 67.9499 112.944 67.4904C112.985 67.031 112.915 66.5684 112.741 66.1414C112.566 65.7144 112.292 65.3355 111.941 65.0363C112.806 64.8189 113.592 64.3571 114.202 63.7058C114.813 63.0545 115.223 62.2414 115.384 61.3633C115.678 59.5829 115.253 57.7587 114.203 56.2914C113.348 55.1042 112.148 54.072 110.721 53.885Z" fill="#E0E0E0" fill-opacity="0.7"/>
<path fill-rule="evenodd" clip-rule="evenodd" d="M70.2085 98.9066C70.2459 98.9179 70.2775 98.9432 70.2966 98.9774C70.3157 99.0115 70.3207 99.0517 70.3107 99.0895C70.2958 99.1262 70.2694 99.157 70.2354 99.1774C70.2015 99.1977 70.1618 99.2065 70.1224 99.2024C70.0828 99.1982 70.045 99.1835 70.0129 99.1598C69.9807 99.1362 69.9554 99.1045 69.9395 99.068C69.9358 99.0605 69.9338 99.0522 69.9338 99.0438C69.9338 99.0353 69.9358 99.0271 69.9395 99.0196C69.9457 98.9993 69.9591 98.9821 69.9772 98.9711C70.0097 98.9353 70.0503 98.9076 70.0955 98.8905C70.1191 98.8825 70.1446 98.8818 70.1686 98.8885C70.1926 98.8952 70.214 98.909 70.23 98.9281L70.2085 98.9066Z" fill="#EACB2A"/>
<path fill-rule="evenodd" clip-rule="evenodd" d="M56.1848 101.655C56.2032 101.661 56.2204 101.67 56.2353 101.682C56.2501 101.694 56.2624 101.709 56.2715 101.726C56.2805 101.743 56.286 101.762 56.2877 101.781C56.2895 101.8 56.2874 101.82 56.2816 101.838C56.2683 101.876 56.2422 101.908 56.2078 101.929C56.1734 101.949 56.1329 101.957 56.0933 101.951C56.0546 101.946 56.0179 101.931 55.9868 101.907C55.9557 101.884 55.9312 101.852 55.9158 101.817C55.912 101.809 55.91 101.801 55.91 101.792C55.91 101.784 55.912 101.776 55.9158 101.768C55.9165 101.758 55.9199 101.748 55.9256 101.74C55.9312 101.731 55.939 101.724 55.9481 101.72C55.9836 101.685 56.0256 101.658 56.0718 101.639C56.0946 101.632 56.1191 101.631 56.1422 101.638C56.1653 101.645 56.1857 101.658 56.2009 101.677L56.1848 101.655Z" fill="#EACB2A"/>
<path fill-rule="evenodd" clip-rule="evenodd" d="M68.9928 102.403C68.9834 102.299 68.9477 102.199 68.8891 102.113C68.8304 102.027 68.7507 101.957 68.6576 101.91C68.5644 101.863 68.4609 101.841 68.3567 101.845C68.2525 101.85 68.1512 101.88 68.0622 101.935C68.0195 102.04 67.9997 102.154 68.0042 102.267C68.0086 102.381 68.0373 102.492 68.0882 102.594C68.139 102.696 68.211 102.786 68.2993 102.857C68.3876 102.929 68.4901 102.981 68.6001 103.011C68.6987 102.943 68.778 102.851 68.8299 102.743C68.8818 102.636 68.9046 102.516 68.896 102.397L68.9928 102.403Z" fill="#EACB2A"/>
<path fill-rule="evenodd" clip-rule="evenodd" d="M38.7237 92.0369C38.7968 92.1561 38.8205 92.2991 38.7899 92.4355C38.7594 92.572 38.6769 92.6912 38.5599 92.7678C38.443 92.8444 38.3008 92.8725 38.1635 92.8461C38.0262 92.8197 37.9045 92.7409 37.8244 92.6264C37.7442 92.5118 37.7117 92.3706 37.7339 92.2325C37.7561 92.0945 37.8312 91.9705 37.9432 91.8868C38.0553 91.8032 38.1955 91.7665 38.3342 91.7844C38.4728 91.8024 38.599 91.8737 38.6861 91.9831L38.7237 92.0369Z" fill="#EACB2A"/>
<path fill-rule="evenodd" clip-rule="evenodd" d="M70.7142 83.1934L69.8104 83.656C69.9141 83.7802 70.0518 83.8714 70.2067 83.9182C70.3616 83.9651 70.5268 83.9655 70.6819 83.9196C70.7356 83.8624 70.7761 83.7941 70.8006 83.7196C70.8251 83.6451 70.833 83.5661 70.8238 83.4882C70.8146 83.4103 70.7884 83.3354 70.7472 83.2686C70.7059 83.2019 70.6506 83.145 70.585 83.1019L70.7142 83.1934Z" fill="#EACB2A"/>
<path fill-rule="evenodd" clip-rule="evenodd" d="M92.0643 107.97C92.0398 107.859 91.9752 107.761 91.883 107.695C91.7907 107.628 91.6771 107.598 91.564 107.61C91.3381 107.658 91.2467 108.013 91.4457 108.121C91.6447 108.229 91.8545 108.03 91.9836 107.852L92.0643 107.97Z" fill="#EACB2A"/>
<path fill-rule="evenodd" clip-rule="evenodd" d="M80.8218 89.1537C80.8271 89.2884 80.7817 89.4201 80.6945 89.5229C80.6073 89.6257 80.4847 89.692 80.351 89.7087C80.2172 89.7254 80.0821 89.6913 79.9723 89.6131C79.8625 89.535 79.786 89.4184 79.758 89.2866C79.7301 89.1547 79.7526 89.0172 79.8212 88.9011C79.8898 88.7851 79.9995 88.6991 80.1285 88.6601C80.2575 88.621 80.3965 88.6319 80.5179 88.6904C80.6393 88.7489 80.7343 88.8509 80.7841 88.9762L80.8218 89.1537Z" fill="#EACB2A"/>
<path fill-rule="evenodd" clip-rule="evenodd" d="M68.8099 96.5876C68.8153 96.7223 68.7698 96.8541 68.6826 96.9569C68.5954 97.0597 68.4729 97.126 68.3391 97.1427C68.2054 97.1594 68.0702 97.1253 67.9604 97.0471C67.8506 96.9689 67.7742 96.8524 67.7462 96.7205C67.7182 96.5887 67.7408 96.4511 67.8094 96.3351C67.878 96.2191 67.9876 96.1331 68.1167 96.094C68.2457 96.055 68.3846 96.0658 68.506 96.1244C68.6275 96.1829 68.7225 96.2849 68.7723 96.4101L68.8099 96.5876Z" fill="#EACB2A"/>
<path fill-rule="evenodd" clip-rule="evenodd" d="M84.5658 102.758C84.5521 102.697 84.5251 102.64 84.4868 102.591C84.4485 102.542 84.3997 102.503 84.3442 102.475C84.2886 102.447 84.2275 102.432 84.1654 102.431C84.1032 102.429 84.0416 102.442 83.9848 102.467C83.9333 102.5 83.8905 102.545 83.86 102.598C83.8294 102.651 83.8121 102.711 83.8095 102.772C83.8069 102.833 83.819 102.894 83.8448 102.95C83.8706 103.005 83.9094 103.054 83.9579 103.091C84.0123 103.118 84.0727 103.13 84.1331 103.126C84.1934 103.121 84.2516 103.101 84.3018 103.068C84.352 103.034 84.3924 102.987 84.4189 102.933C84.4454 102.878 84.4571 102.818 84.4528 102.758H84.5658Z" fill="#EACB2A"/>
<path fill-rule="evenodd" clip-rule="evenodd" d="M81.8008 103.371C81.5964 103.129 81.2898 102.989 81.0854 103.215C80.9884 103.351 80.9418 103.517 80.9536 103.684C80.9653 103.851 81.0348 104.008 81.15 104.129C81.3813 104.291 81.6879 103.995 81.6879 103.624L81.8008 103.371Z" fill="#EACB2A"/>
<path d="M90.0741 73.8335L79.5531 81.7572L81.3817 83.1637L73.3984 91.0471L85.6855 82.3126L83.7989 80.8614L90.0741 73.8335Z" fill="#EACB2A"/>
<path d="M33.85 68.1909L44.5655 77.3248L42.516 78.7019L50.5257 87.6261L37.9759 77.5077L40.09 76.0876L33.85 68.1909Z" fill="#EACB2A"/>
<path d="M66.1578 46.6795L60.2621 67.7178H64.0922L61.4994 86.1417L68.912 62.2471H64.9582L66.1578 46.6795Z" fill="#EACB2A"/>
</svg>
