<svg width="30" height="30" viewBox="0 0 68 68" fill="none" xmlns="http://www.w3.org/2000/svg">
<circle cx="33.5225" cy="27.9302" r="18.0726" fill="white"/>
<mask id="mask0_222_351" style="mask-type:alpha" maskUnits="userSpaceOnUse" x="0" y="0" width="68" height="68">
<rect width="68" height="68" fill="#D9D9D9"/>
</mask>
<g mask="url(#mask0_222_351)">
<path d="M17 65.1667V43.2792C15.2055 41.2959 13.8125 39.0292 12.8208 36.4792C11.8291 33.9292 11.3333 31.214 11.3333 28.3334C11.3333 22.0056 13.5291 16.6459 17.9208 12.2542C22.3125 7.86258 27.6722 5.66675 34 5.66675C40.3278 5.66675 45.6875 7.86258 50.0791 12.2542C54.4708 16.6459 56.6666 22.0056 56.6666 28.3334C56.6666 31.214 56.1708 33.9292 55.1791 36.4792C54.1875 39.0292 52.7944 41.2959 51 43.2792V65.1667L34 59.5001L17 65.1667ZM34 45.3334C38.7222 45.3334 42.7361 43.6806 46.0416 40.3751C49.3472 37.0695 51 33.0556 51 28.3334C51 23.6112 49.3472 19.5973 46.0416 16.2917C42.7361 12.9862 38.7222 11.3334 34 11.3334C29.2778 11.3334 25.2639 12.9862 21.9583 16.2917C18.6528 19.5973 17 23.6112 17 28.3334C17 33.0556 18.6528 37.0695 21.9583 40.3751C25.2639 43.6806 29.2778 45.3334 34 45.3334ZM22.6666 56.7376L34 53.8334L45.3333 56.7376V47.9542C43.6805 48.8987 41.8979 49.6424 39.9854 50.1855C38.0729 50.7286 36.0778 51.0001 34 51.0001C31.9222 51.0001 29.9271 50.7286 28.0146 50.1855C26.1021 49.6424 24.3194 48.8987 22.6666 47.9542V56.7376Z" fill="#074989"/>
</g>
<path d="M30.3353 31.7547H33.1224V23.8553L33.4232 22.4954L32.4607 23.6753L30.6761 24.8952L29.5733 23.3953L34.145 19.7156H35.6088V31.7547H38.3358V33.9546H30.3353V31.7547Z" fill="#074989"/>
</svg>
