<svg width="174" height="74" viewBox="0 0 174 74" fill="none" xmlns="http://www.w3.org/2000/svg">
<path d="M26.56 5.88H18.8L13.88 29H8.72L13.6 5.88L5.84 5.88L6.88 0.999998L27.56 0.999998L26.56 5.88ZM37.1472 22.8L28.9872 22.8L25.6672 29L20.1472 29L35.7072 0.799998L39.5472 0.799998L43.1872 29H37.9472L37.1472 22.8ZM31.2672 18.4L36.9472 18.4L36.3072 12.16L36.3472 7.76H36.1472L34.5472 12.2L31.2672 18.4ZM52.4284 0.999998L57.6284 0.999998L68.7484 0.999998L67.7084 5.88L56.5884 5.88L55.3484 11.72C55.8018 11.64 56.3484 11.56 56.9884 11.48C57.6284 11.4 58.2551 11.36 58.8684 11.36C60.3351 11.36 61.5751 11.56 62.5884 11.96C63.6284 12.36 64.4684 12.8933 65.1084 13.56C65.7484 14.2267 66.2151 15 66.5084 15.88C66.8284 16.76 66.9884 17.6667 66.9884 18.6C66.9884 20.28 66.6951 21.7867 66.1084 23.12C65.5484 24.4533 64.7084 25.5867 63.5884 26.52C62.4951 27.4533 61.1484 28.1733 59.5484 28.68C57.9484 29.16 56.1351 29.4 54.1084 29.4C53.6818 29.4 53.1751 29.3867 52.5884 29.36C52.0284 29.36 51.3618 29.32 50.5884 29.24C49.8151 29.1867 49.0684 29.12 48.3484 29.04C47.6551 28.96 47.0551 28.8533 46.5484 28.72L52.4284 0.999998ZM52.5884 24.68C52.8551 24.76 53.2684 24.8133 53.8284 24.84C54.3884 24.8667 54.9351 24.88 55.4684 24.88C56.2151 24.88 56.9484 24.7733 57.6684 24.56C58.3884 24.32 59.0284 23.9867 59.5884 23.56C60.1751 23.1067 60.6418 22.5467 60.9884 21.88C61.3351 21.2133 61.5084 20.44 61.5084 19.56C61.5084 18.1733 61.0951 17.2133 60.2684 16.68C59.4684 16.1467 58.3351 15.88 56.8684 15.88C56.4951 15.88 56.0418 15.92 55.5084 16C54.9751 16.0533 54.6018 16.1067 54.3884 16.16L52.5884 24.68ZM88.0625 5.88L82.4625 5.88C81.8492 8.41333 81.2625 10.72 80.7025 12.8C80.1692 14.88 79.6225 16.7467 79.0625 18.4C78.5292 20.0533 77.9558 21.52 77.3425 22.8C76.7292 24.08 76.0625 25.2 75.3425 26.16C74.8625 26.8 74.3558 27.32 73.8225 27.72C73.3158 28.12 72.7958 28.44 72.2625 28.68C71.7558 28.8933 71.2625 29.04 70.7825 29.12C70.3025 29.2267 69.8492 29.28 69.4225 29.28C68.1958 29.28 67.2358 29.0933 66.5425 28.72L68.1025 24C68.2358 24.0533 68.3692 24.0933 68.5025 24.12C68.6625 24.1467 68.8092 24.16 68.9425 24.16C69.3958 24.1867 69.8492 24.08 70.3025 23.84C70.7825 23.6 71.2225 23.2133 71.6225 22.68C72.1025 22.0933 72.6092 21.24 73.1425 20.12C73.6758 19 74.2225 17.56 74.7825 15.8C75.3692 14.04 75.9692 11.9467 76.5825 9.52C77.2225 7.09333 77.8892 4.25333 78.5825 0.999998L83.5025 0.999998L89.0625 0.999998L94.2625 0.999998L88.3425 29H83.1825L88.0625 5.88ZM112.688 13.76L113.848 10.2H113.608L111.048 14.04L98.0078 29H94.0078L99.9278 0.999998L105.128 0.999998L101.968 15.96L100.768 19.64H101.008L103.648 15.68L116.608 0.999998H120.608L114.688 29L109.488 29L112.688 13.76ZM142.156 34H138.516L138.996 29H134.716H125.516H120.316L126.236 0.999998L131.436 0.999998L126.516 24.12H135.716L140.636 0.999998L145.796 0.999998L140.916 24.12H144.276L142.156 34ZM162.007 22.8H153.847L150.527 29H145.007L160.567 0.799998H164.407L168.047 29H162.807L162.007 22.8ZM156.127 18.4H161.807L161.167 12.16L161.207 7.76H161.007L159.407 12.2L156.127 18.4ZM21.6 45.88H16C15.3867 48.4133 14.8 50.72 14.24 52.8C13.7067 54.88 13.16 56.7467 12.6 58.4C12.0667 60.0533 11.4933 61.52 10.88 62.8C10.2667 64.08 9.6 65.2 8.88 66.16C8.4 66.8 7.89333 67.32 7.36 67.72C6.85333 68.12 6.33333 68.44 5.8 68.68C5.29333 68.8933 4.8 69.04 4.32 69.12C3.84 69.2267 3.38667 69.28 2.96 69.28C1.73333 69.28 0.773333 69.0933 0.08 68.72L1.64 64C1.77333 64.0533 1.90667 64.0933 2.04 64.12C2.2 64.1467 2.34667 64.16 2.48 64.16C2.93333 64.1867 3.38667 64.08 3.84 63.84C4.32 63.6 4.76 63.2133 5.16 62.68C5.64 62.0933 6.14667 61.24 6.68 60.12C7.21333 59 7.76 57.56 8.32 55.8C8.90667 54.04 9.50667 51.9467 10.12 49.52C10.76 47.0933 11.4267 44.2533 12.12 41H17.04H22.6L27.8 41L21.88 69H16.72L21.6 45.88ZM46.2253 53.76L47.3853 50.2H47.1453L44.5853 54.04L31.5453 69H27.5453L33.4653 41H38.6653L35.5053 55.96L34.3053 59.64H34.5453L37.1853 55.68L50.1453 41H54.1453L48.2253 69L43.0253 69L46.2253 53.76ZM76.0531 74H72.4131L72.8931 69H55.8131L54.1731 74H50.4931L52.5731 64.12H55.3731C55.6131 63.8267 56.0531 63.1867 56.6931 62.2C57.3598 61.1867 58.0931 59.76 58.8931 57.92C59.6931 56.0533 60.5198 53.7333 61.3731 50.96C62.2531 48.1867 63.0398 44.8667 63.7331 41L68.4131 41H74.4931H79.6931L74.7731 64.12H78.1731L76.0531 74ZM69.6131 64.12L73.4531 45.88L67.6131 45.88C66.4931 50.68 65.3331 54.5867 64.1331 57.6C62.9331 60.6133 61.8798 62.7867 60.9731 64.12H69.6131ZM87.0966 41H92.2966H102.857L101.817 45.88H91.2566L89.8566 52.4H99.4966L98.4166 57.28H88.8566L87.3766 64.12H98.1366L97.1366 69H86.3766H81.1766L87.0966 41ZM107.974 41.28C109.094 41.0667 110.28 40.9067 111.534 40.8C112.814 40.6667 114.094 40.6 115.374 40.6C116.734 40.6 117.987 40.76 119.134 41.08C120.307 41.3733 121.32 41.84 122.174 42.48C123.054 43.12 123.734 43.9467 124.214 44.96C124.694 45.9467 124.934 47.1333 124.934 48.52C124.934 50.6 124.574 52.3467 123.854 53.76C123.134 55.1467 122.174 56.28 120.974 57.16C119.8 58.0133 118.454 58.6267 116.934 59C115.414 59.3467 113.867 59.52 112.294 59.52C112.16 59.52 111.947 59.52 111.654 59.52C111.387 59.52 111.094 59.52 110.774 59.52C110.48 59.4933 110.187 59.4667 109.894 59.44C109.627 59.4133 109.427 59.3867 109.294 59.36L107.294 69H102.094L107.974 41.28ZM110.334 54.64C110.44 54.6667 110.587 54.6933 110.774 54.72C110.96 54.7467 111.16 54.7733 111.374 54.8C111.614 54.8 111.827 54.8 112.014 54.8C112.227 54.8 112.387 54.8 112.494 54.8C113.4 54.8 114.267 54.7067 115.094 54.52C115.947 54.3067 116.694 53.9867 117.334 53.56C117.974 53.1067 118.48 52.52 118.854 51.8C119.254 51.08 119.454 50.2 119.454 49.16C119.454 48.3867 119.32 47.7467 119.054 47.24C118.814 46.7333 118.48 46.3467 118.054 46.08C117.627 45.7867 117.12 45.5867 116.534 45.48C115.974 45.3733 115.374 45.32 114.734 45.32C114.254 45.32 113.787 45.3467 113.334 45.4C112.907 45.4267 112.547 45.4667 112.254 45.52L110.334 54.64ZM125.976 58.52C125.976 56.04 126.31 53.7067 126.976 51.52C127.67 49.3067 128.643 47.3867 129.896 45.76C131.15 44.1067 132.656 42.8133 134.416 41.88C136.203 40.92 138.19 40.44 140.376 40.44C141.816 40.44 143.11 40.6533 144.256 41.08C145.43 41.5067 146.416 42.1733 147.216 43.08C148.043 43.96 148.683 45.08 149.136 46.44C149.59 47.8 149.816 49.4133 149.816 51.28C149.816 53.7867 149.47 56.1467 148.776 58.36C148.11 60.5733 147.15 62.52 145.896 64.2C144.67 65.8533 143.19 67.16 141.456 68.12C139.75 69.08 137.856 69.56 135.776 69.56C132.63 69.56 130.216 68.64 128.536 66.8C126.856 64.9333 126.003 62.1733 125.976 58.52ZM131.456 58.36C131.456 60.28 131.816 61.8133 132.536 62.96C133.283 64.1067 134.496 64.68 136.176 64.68C137.403 64.68 138.51 64.32 139.496 63.6C140.51 62.8533 141.376 61.8667 142.096 60.64C142.816 59.3867 143.363 57.96 143.736 56.36C144.136 54.76 144.336 53.0933 144.336 51.36C144.336 49.2533 143.923 47.72 143.096 46.76C142.27 45.8 141.136 45.32 139.696 45.32C138.496 45.32 137.39 45.6667 136.376 46.36C135.39 47.0533 134.523 48 133.776 49.2C133.056 50.3733 132.483 51.76 132.056 53.36C131.656 54.9333 131.456 56.6 131.456 58.36ZM156.838 41.2C157.345 41.12 157.918 41.04 158.558 40.96C159.198 40.88 159.878 40.8133 160.598 40.76C161.318 40.7067 162.052 40.6667 162.798 40.64C163.572 40.6133 164.318 40.6 165.038 40.6C166.265 40.6 167.398 40.7333 168.438 41C169.505 41.24 170.412 41.6267 171.158 42.16C171.932 42.6933 172.532 43.3867 172.958 44.24C173.412 45.0667 173.638 46.0667 173.638 47.24C173.638 48.12 173.492 48.9733 173.198 49.8C172.905 50.6 172.478 51.32 171.918 51.96C171.385 52.6 170.732 53.1333 169.958 53.56C169.212 53.9867 168.358 54.2667 167.398 54.4V54.6C167.905 54.7067 168.412 54.9067 168.918 55.2C169.425 55.4667 169.878 55.8267 170.278 56.28C170.678 56.7067 170.998 57.2267 171.238 57.84C171.478 58.4267 171.598 59.0933 171.598 59.84C171.598 61.5467 171.265 63.0133 170.598 64.24C169.932 65.44 169.038 66.4267 167.918 67.2C166.798 67.9467 165.492 68.5067 163.998 68.88C162.505 69.2267 160.932 69.4 159.278 69.4C158.852 69.4 158.292 69.4 157.598 69.4C156.932 69.4 156.212 69.3733 155.438 69.32C154.665 69.2933 153.892 69.24 153.118 69.16C152.345 69.08 151.638 68.96 150.998 68.8L156.838 41.2ZM156.878 64.64C156.985 64.6933 157.172 64.7333 157.438 64.76C157.732 64.7867 158.038 64.8133 158.358 64.84C158.705 64.84 159.052 64.8533 159.398 64.88C159.745 64.88 160.038 64.88 160.278 64.88C160.945 64.88 161.625 64.8 162.318 64.64C163.038 64.48 163.678 64.2133 164.238 63.84C164.825 63.4667 165.305 62.9867 165.678 62.4C166.052 61.8133 166.238 61.0933 166.238 60.24C166.238 59.5733 166.092 59.0267 165.798 58.6C165.505 58.1733 165.118 57.84 164.638 57.6C164.158 57.3333 163.598 57.16 162.958 57.08C162.345 56.9733 161.705 56.92 161.038 56.92H158.478L156.878 64.64ZM159.398 52.76H161.118C161.492 52.76 161.932 52.76 162.438 52.76C162.945 52.7333 163.372 52.6933 163.718 52.64C164.198 52.56 164.705 52.4267 165.238 52.24C165.798 52.0533 166.292 51.7867 166.718 51.44C167.172 51.0933 167.545 50.6533 167.838 50.12C168.132 49.5867 168.278 48.92 168.278 48.12C168.278 46.9733 167.892 46.1867 167.118 45.76C166.372 45.3333 165.412 45.12 164.238 45.12C163.545 45.12 162.905 45.1333 162.318 45.16C161.732 45.1867 161.278 45.2267 160.958 45.28L159.398 52.76Z" fill="white"/>
</svg>
