<svg width="69" height="66" viewBox="0 0 69 66" fill="none" xmlns="http://www.w3.org/2000/svg">
<path d="M34.5 0C27.7616 0 21.6431 0.553095 17.3575 1.40317C15.6863 1.7383 14.3925 2.12519 13.3953 2.49574C14.3925 2.86629 15.6863 3.25318 17.3575 3.58831C21.6431 4.43839 27.7616 4.99148 34.5 4.99148C41.2384 4.99148 47.3569 4.43839 51.6425 3.58831C53.3137 3.25318 54.6074 2.86629 55.6047 2.49574C54.6074 2.12519 53.3137 1.7383 51.6425 1.40317C47.3569 0.553095 41.2384 0 34.5 0ZM7.33068 1.44677C2.18253 3.87167 -0.593703 8.5362 0.107093 13.1844C0.646167 16.5411 3.04505 19.5899 6.84552 21.1729C9.02876 22.0993 11.6702 22.5897 14.7699 22.5625C18.3547 29.2923 23.2064 34.8505 28.4085 37.4388V49.3999C23.8263 52.2062 20.7806 58.0369 17.7887 64.031C28.2467 66.7284 40.7802 66.5921 51.1843 64.0038C48.2194 58.0096 45.1467 52.2062 40.5915 49.3999V37.4388C45.7936 34.8505 50.6453 29.2923 54.2301 22.5625C57.3298 22.5897 59.9712 22.0993 62.1545 21.1729C65.955 19.5899 68.3538 16.5411 68.8929 13.1844C69.5937 8.5362 66.8175 3.87167 61.6693 1.44677C61.7771 1.77372 61.831 2.12247 61.831 2.49574C61.831 3.68095 61.2111 4.65091 60.5642 5.26122C59.9443 5.87153 59.2435 6.2775 58.4618 6.64532C56.8985 7.38096 54.9309 7.93133 52.559 8.39997C47.8421 9.34268 41.508 9.89577 34.5 9.89577C27.492 9.89577 21.1579 9.34268 16.441 8.39997C14.0691 7.93133 12.1015 7.38096 10.5382 6.64532C9.75652 6.2775 9.05572 5.87153 8.43579 5.26122C7.7889 4.65091 7.16896 3.68095 7.16896 2.49574C7.16896 2.12247 7.22287 1.77372 7.33068 1.44677ZM9.10963 5.8906C9.72956 9.79769 10.8616 13.7674 12.4249 17.5356C10.9155 17.3857 9.70261 17.0697 8.70532 16.6528C6.17168 15.5902 5.14743 14.029 4.90485 12.4269C4.58141 10.2663 5.79432 7.48177 9.10963 5.8906ZM59.8904 5.8906C63.2057 7.48177 64.4186 10.2663 64.0951 12.4269C63.8526 14.029 62.8283 15.5902 60.2947 16.6528C59.2974 17.0697 58.0845 17.3857 56.5751 17.5356C58.1384 13.7674 59.2704 9.79769 59.8904 5.8906Z" fill="white"/>
</svg>
