<svg width="394" height="204" viewBox="0 0 394 204" fill="none" xmlns="http://www.w3.org/2000/svg">
<path d="M391.669 154.401L3.48734 183.777L-51.4888 6.59815L312.018 34.6806L391.669 154.401Z" fill="#074989"/>
<path d="M-19.6936 156.297L389.849 167.055L280.403 15.3439L-56.0002 28.716L-19.6936 156.297Z" fill="white"/>
<path d="M54.0823 63.2111C54.0823 59.1202 54.6321 55.2712 55.7318 51.6642C56.8755 48.0132 58.4811 44.846 60.5485 42.1627C62.616 39.4355 65.1013 37.302 68.0045 35.7624C70.9517 34.1789 74.2289 33.3871 77.8359 33.3871C80.2113 33.3871 82.3447 33.739 84.2362 34.4428C86.1717 35.1466 87.7992 36.2463 89.1189 37.7419C90.4825 39.1935 91.5382 41.041 92.286 43.2844C93.0338 45.5278 93.4077 48.1891 93.4077 51.2683C93.4077 55.4032 92.8359 59.2961 91.6922 62.9472C90.5925 66.5982 89.0089 69.8093 86.9415 72.5806C84.918 75.3078 82.4767 77.4633 79.6174 79.0468C76.8022 80.6304 73.679 81.4222 70.2479 81.4222C65.0573 81.4222 61.0764 79.9046 58.3051 76.8694C55.5339 73.7902 54.1263 69.2375 54.0823 63.2111ZM63.1218 62.9472C63.1218 66.1143 63.7157 68.6436 64.9034 70.5351C66.135 72.4266 68.1365 73.3724 70.9078 73.3724C72.9312 73.3724 74.7567 72.7785 76.3843 71.5908C78.0558 70.3592 79.4855 68.7316 80.6731 66.7081C81.8608 64.6407 82.7626 62.2873 83.3784 59.648C84.0382 57.0087 84.3681 54.2595 84.3681 51.4003C84.3681 47.9252 83.6863 45.3959 82.3227 43.8123C80.9591 42.2287 79.0896 41.4369 76.7142 41.4369C74.7347 41.4369 72.9092 42.0088 71.2377 43.1525C69.6101 44.2962 68.1805 45.8577 66.9488 47.8372C65.7611 49.7727 64.8154 52.0601 64.1116 54.6994C63.4518 57.2947 63.1218 60.0439 63.1218 62.9472Z" fill="#55B2EF"/>
<path d="M112.777 34.3108L109.742 48.629C109.61 49.2008 109.522 49.7287 109.478 50.2126C109.478 50.6964 109.478 51.1803 109.478 51.6642C109.478 53.3797 109.874 54.6554 110.666 55.4912C111.501 56.3269 112.843 56.7448 114.691 56.7448C116.274 56.7448 117.748 56.5689 119.111 56.217C120.519 55.8651 121.707 55.3152 122.674 54.5674L126.963 34.3108H135.541L125.776 80.4984H117.198L121.157 61.8914C120.541 62.1994 119.903 62.5073 119.243 62.8152C118.584 63.1231 117.858 63.409 117.066 63.673C116.274 63.9369 115.372 64.1568 114.361 64.3328C113.393 64.4647 112.293 64.5307 111.062 64.5307C109.522 64.5307 108.092 64.3328 106.773 63.9369C105.497 63.541 104.375 62.9252 103.408 62.0894C102.484 61.2536 101.758 60.1979 101.23 58.9222C100.702 57.6466 100.438 56.151 100.438 54.4354C100.438 53.0718 100.592 51.6862 100.9 50.2786L104.265 34.3108H112.777Z" fill="#55B2EF"/>
<path d="M150.981 60.7697H147.88L143.723 80.4984H135.146L144.911 34.3108H153.489L149.134 54.7654L151.179 54.0395L166.817 34.3108H177.11L160.483 53.9076L156.524 56.217L159.427 58.7903L169.456 80.4984H159.889L150.981 60.7697Z" fill="#55B2EF"/>
<path d="M206.392 55.3592L208.305 49.4868H207.909L203.686 55.8211L182.176 80.4984H175.578L185.343 34.3108H193.921L188.708 58.9882L186.729 65.0586H187.125L191.48 58.5263L212.858 34.3108H219.456L209.691 80.4984H201.113L206.392 55.3592Z" fill="#55B2EF"/>
<path d="M223.593 76.1436C223.593 74.604 224.077 73.3944 225.044 72.5146C226.012 71.5908 227.288 71.129 228.871 71.129C230.499 71.129 231.797 71.5908 232.764 72.5146C233.732 73.3944 234.216 74.604 234.216 76.1436C234.216 77.6832 233.732 78.9149 232.764 79.8386C231.797 80.7624 230.499 81.2242 228.871 81.2242C227.288 81.2242 226.012 80.7624 225.044 79.8386C224.077 78.9149 223.593 77.6832 223.593 76.1436ZM228.542 52.258C228.542 50.7184 229.025 49.5088 229.993 48.629C230.961 47.7052 232.237 47.2434 233.82 47.2434C235.448 47.2434 236.745 47.7052 237.713 48.629C238.681 49.5088 239.165 50.7184 239.165 52.258C239.165 53.7976 238.681 55.0293 237.713 55.953C236.745 56.8768 235.448 57.3387 233.82 57.3387C232.237 57.3387 230.961 56.8768 229.993 55.953C229.025 55.0293 228.542 53.7976 228.542 52.258Z" fill="#55B2EF"/>
<path d="M150.062 10.5635L34.9466 22.6651L142.037 18.4284L150.062 10.5635Z" fill="white"/>
<path d="M91.1019 10.353L56.2245 18.3584L114.752 12.5639L91.1019 10.353Z" fill="white"/>
</svg>
