<svg width="60" height="74" viewBox="0 0 90 110" fill="none" xmlns="http://www.w3.org/2000/svg">
<g filter="url(#filter0_d_234_58187)">
<path d="M56.4436 96C55.853 95.978 55.2625 95.9414 54.6729 95.9377C51.257 95.9139 47.8402 95.9111 44.4252 95.8699C43.4996 95.8579 42.5556 95.8359 41.6566 95.6461C40.2375 95.3472 39.0289 94.5697 37.9257 93.6382C34.8129 91.0076 32.4874 87.75 30.5015 84.2218C28.0195 79.8107 25.9394 75.2052 23.8464 70.6043C22.1609 66.9001 20.5422 63.1629 18.5363 59.6146C18.0052 58.6766 17.3726 57.7854 16.9432 56.8034C15.8116 54.2142 15.5296 51.5461 16.6777 48.8816C17.6482 46.627 19.4243 45.337 21.8304 44.9299C23.6157 44.6282 25.3287 44.9124 26.7615 46.0301C27.7503 46.8012 28.5835 47.7795 29.4523 48.6982C30.3212 49.6169 31.1488 50.5751 32.058 51.5873C32.0708 51.3801 32.0845 51.2545 32.0845 51.1289C32.0845 45.6129 32.0845 40.0961 32.0964 34.5801C32.0964 34.1822 31.96 34.0071 31.6222 33.8301C28.0076 31.9377 25.3965 29.1394 24.1229 25.2197C23.4354 23.1054 23.3786 20.9269 23.6414 18.7099C24.3143 13.0252 28.7254 8.14098 34.4613 6.82801C39.0262 5.78369 43.213 6.77299 46.8825 9.72351C49.5202 11.8443 51.2103 14.6233 51.821 17.9149C52.623 22.2408 51.7889 26.2805 48.9828 29.7876C48.558 30.3185 48.1139 30.9401 47.5344 31.2124C46.8587 31.5306 46.8019 31.9459 46.8019 32.5419C46.8019 34.1611 46.7827 35.7803 46.7717 37.4014C46.7754 37.4806 46.7836 37.5596 46.7965 37.6379C47.5545 37.427 48.2815 37.1511 49.0331 37.0291C51.8713 36.5707 54.2618 37.383 56.0975 39.645C56.5061 40.1537 56.8805 40.6891 57.2181 41.2477C57.3902 41.5291 57.5752 41.4806 57.794 41.4054C58.3946 41.2 58.9796 40.9332 59.593 40.7828C62.9806 39.953 66.3681 41.5053 67.9758 44.597C68.0948 44.8253 68.2294 45.0454 68.342 45.2443C69.1175 44.9785 69.8518 44.6355 70.6236 44.476C74.4075 43.6912 77.1523 45.1178 79.0365 48.3847C79.4368 49.0809 79.6391 49.8736 79.6216 50.6769C79.5895 57.6607 79.5694 64.6437 79.6161 71.6266C79.6444 75.9103 78.4378 79.8419 76.4565 83.5672C74.1676 87.871 70.9532 91.4028 67.1802 94.4469C66.5338 94.9686 65.8801 95.4802 65.2292 95.9964L56.4436 96ZM35.8438 39.2195H35.6607C35.6607 45.038 35.6451 50.8566 35.6808 56.6742C35.6854 57.3682 35.3686 57.7542 34.8925 58.0907C34.215 58.5712 33.4862 58.5043 32.9049 57.9266C32.3744 57.3997 31.8556 56.8606 31.3484 56.3093C29.2683 54.0363 27.179 51.7707 25.1291 49.4702C24.4214 48.6762 23.6056 48.37 22.572 48.4993C21.3973 48.6432 20.0854 49.4547 19.8739 50.7273C19.5717 52.5537 19.6441 54.3187 20.6136 55.9902C21.7352 57.9211 22.8695 59.8548 23.829 61.8674C26.2095 66.8543 28.4599 71.9017 30.8238 76.8959C32.4718 80.3746 34.2644 83.7808 36.5551 86.8899C38.0841 88.9657 39.7797 90.8719 42.1565 92.0245C42.3838 92.1411 42.6337 92.2068 42.8889 92.217C49.5669 92.261 56.2458 92.283 62.9238 92.3426C63.6562 92.349 64.2523 92.2363 64.765 91.6907C65.0653 91.3716 65.437 91.1195 65.7721 90.8362C68.8762 88.2375 71.4428 85.0557 73.3272 81.4703C74.3965 79.4531 75.3185 77.3525 75.6728 75.0851C75.8962 73.6621 75.9026 72.1969 75.9154 70.7492C75.9713 64.1477 75.996 57.5516 76.029 50.9519C76.0382 50.8024 76.0164 50.6525 75.9649 50.5118C75.2782 48.9962 74.305 47.8895 72.4455 48.0133C71.6893 48.0647 70.9431 48.0133 70.2738 48.524C69.3537 49.2264 68.8904 50.1506 68.7073 51.2572C68.4949 52.5409 67.5858 53.256 66.51 52.9993C66.0964 52.8925 65.7291 52.6528 65.4645 52.3169C65.2 51.9811 65.0526 51.5676 65.0451 51.1399C65.0241 49.8563 64.9627 48.5726 64.9627 47.289C64.9627 46.6793 64.8062 46.1887 64.4015 45.7138C63.3944 44.5319 62.1328 44.0176 60.6203 44.3385C59.1353 44.6511 58.2078 45.612 57.8453 47.0983C57.7446 47.5109 57.6841 47.9354 57.5459 48.3342C57.3152 48.9999 56.558 49.4592 55.8576 49.4097C55.0565 49.3529 54.3433 48.8358 54.2527 48.0995C54.151 47.2743 54.195 46.4253 54.1428 45.59C54.0915 44.7712 54.0915 43.9314 53.902 43.1419C53.5358 41.6346 51.9693 40.5114 50.4797 40.5683C48.59 40.6398 47.1709 41.8161 46.8175 43.538C46.7133 44.0859 46.5256 44.6144 46.2609 45.105C45.9468 45.6606 45.1695 45.8825 44.5763 45.7184C43.8438 45.5176 43.2945 44.9363 43.2615 44.2514C43.1929 42.8495 43.1205 41.4466 43.1105 40.0447C43.0848 36.5312 43.0931 33.0168 43.0857 29.5006C43.0857 27.2863 43.1004 25.0712 43.0555 22.8578C43.039 22.0473 43.1095 21.2019 42.6893 20.4446C42.4002 19.9194 41.9868 19.4733 41.4855 19.1452C40.9842 18.8172 40.4102 18.6172 39.8138 18.5629C39.2175 18.5086 38.6169 18.6016 38.0647 18.8338C37.5126 19.0659 37.0257 19.4301 36.6467 19.8945C36.2741 20.3483 35.8456 20.8269 35.8456 21.4852C35.8425 27.3985 35.8419 33.3099 35.8438 39.2195ZM46.7388 26.4584H46.9136C50.1767 20.7426 48.0663 14.0191 42.7021 11.3235C36.6595 8.28676 30.5922 11.0411 28.0314 16.4534C25.64 21.5073 28.166 27.4459 31.895 29.7399C31.9591 29.3154 32.0598 28.9404 32.0653 28.5645C32.0882 26.9599 32.0598 25.3554 32.0973 23.7518C32.1221 22.7313 32.1129 21.6888 32.3207 20.6995C32.9616 17.6509 35.2899 15.4733 38.4412 14.9754C41.2089 14.5353 44.058 15.7089 45.7005 18.344C46.3753 19.4269 46.845 20.5445 46.7598 21.8923C46.6646 23.4107 46.7388 24.9364 46.7388 26.4584Z" fill="#074989"/>
<path d="M50.6981 6C51.9228 6.53762 52.6597 7.59996 53.4643 8.59326C55.5586 11.1801 56.7513 14.1821 57.327 17.4207C57.5659 18.7647 57.5623 20.1667 57.5339 21.5402C57.4991 23.2037 57.3389 24.8635 56.8584 26.4764C56.0012 29.4164 54.5055 32.1284 52.4794 34.4163C52.1335 34.8036 51.739 35.144 51.3059 35.429C50.6011 35.8948 49.8834 35.7816 49.2766 35.1905C48.5965 34.5287 48.4308 33.7857 48.894 33.0502C49.2253 32.5236 49.6445 32.0486 50.0564 31.5773C51.8999 29.4756 53.0633 27.026 53.5942 24.3047C54.2478 20.952 54.0245 17.6481 52.699 14.4638C51.9668 12.7147 50.9141 11.169 49.6921 9.73201C49.4944 9.50003 49.3123 9.25516 49.1301 9.01029C48.2724 7.85772 48.5809 6.97765 49.8331 6.17491C49.9329 6.11047 50.0436 6.06076 50.1489 6.0046L50.6981 6Z" fill="#074989"/>
<path d="M17.6421 21.5452C17.6613 16.0318 19.1674 11.7083 22.2226 7.94471C22.6267 7.44751 23.073 6.9826 23.5247 6.52691C23.8438 6.20331 24.2736 6.01511 24.7258 6.00087C25.1781 5.98663 25.6186 6.14745 25.9571 6.45034C26.2837 6.7333 26.4909 7.1314 26.5363 7.56329C26.5817 7.99518 26.4618 8.42824 26.2013 8.77398C25.541 9.6909 24.8022 10.5506 24.1657 11.4832C22.5373 13.8387 21.5702 16.5943 21.3666 19.4587C21.0923 23.0867 21.8495 26.4305 23.725 29.506C24.3898 30.5963 25.2411 31.5704 26.0065 32.5989C26.6521 33.4669 26.728 34.2169 26.2424 34.9207C25.6746 35.7435 24.4456 36.0101 23.7295 35.3303C22.8911 34.5318 22.124 33.6604 21.4371 32.7262C19.8623 30.6027 18.7467 28.1694 18.1625 25.5837C17.815 24.0405 17.6303 22.4806 17.6421 21.5452Z" fill="#074989"/>
<path d="M18.9024 7.86694C18.9875 8.45301 18.5863 8.87017 18.2447 9.32334C17.4459 10.3838 16.5775 11.4027 15.8924 12.5333C14.0659 15.5495 13.4851 18.8675 13.748 22.3654C14.0228 26.0812 15.5379 29.2478 17.9222 32.0351C18.1109 32.2566 18.296 32.4809 18.4819 32.7052C18.781 33.0594 18.9351 33.5149 18.913 33.9795C18.8909 34.444 18.6942 34.8826 18.3628 35.2063C17.6786 35.8801 16.6114 35.9124 15.9098 35.1519C14.9702 34.1504 14.0998 33.0853 13.3047 31.964C11.4727 29.329 10.4587 26.3553 10.1289 23.1739C9.63883 18.4411 10.5255 13.9833 13.1444 9.97586C13.9184 8.7908 14.8747 7.72203 15.8008 6.64219C16.2725 6.08843 16.9293 5.85861 17.6593 6.08843C18.5497 6.357 18.9024 6.86739 18.9024 7.86694Z" fill="#074989"/>
<path d="M65.1888 20.9462C65.0886 26.0487 63.4667 30.3305 60.3832 34.051C59.9844 34.5319 59.543 34.9747 59.0645 35.3739C58.4434 35.8909 57.5756 35.806 56.9035 35.2373C56.2924 34.7203 56.0839 33.8627 56.511 33.1712C56.9599 32.4474 57.5 31.7809 58.0245 31.1079C59.6255 29.0556 60.7502 26.7541 61.2119 24.1913C62.1398 19.038 61.1017 14.338 57.7923 10.2288C57.3907 9.73029 56.9918 9.22623 56.6376 8.69354C56.0912 7.8682 56.1604 7.31521 56.8434 6.60896C57.5874 5.83901 58.5072 5.78916 59.314 6.51664C60.8276 7.88205 61.9222 9.57058 62.8438 11.3764C63.8519 13.3538 64.6779 15.4052 64.932 17.6393C65.0649 18.8109 65.1159 19.9926 65.1888 20.9462Z" fill="#074989"/>
</g>
<defs>
<filter id="filter0_d_234_58187" x="0" y="0" width="89.6226" height="110" filterUnits="userSpaceOnUse" color-interpolation-filters="sRGB">
<feFlood flood-opacity="0" result="BackgroundImageFix"/>
<feColorMatrix in="SourceAlpha" type="matrix" values="0 0 0 0 0 0 0 0 0 0 0 0 0 0 0 0 0 0 127 0" result="hardAlpha"/>
<feOffset dy="4"/>
<feGaussianBlur stdDeviation="5"/>
<feComposite in2="hardAlpha" operator="out"/>
<feColorMatrix type="matrix" values="0 0 0 0 0.847059 0 0 0 0 0.92549 0 0 0 0 1 0 0 0 0.5 0"/>
<feBlend mode="normal" in2="BackgroundImageFix" result="effect1_dropShadow_234_58187"/>
<feBlend mode="normal" in="SourceGraphic" in2="effect1_dropShadow_234_58187" result="shape"/>
</filter>
</defs>
</svg>
