<svg width="30" height="30" viewBox="0 0 68 69" fill="none" xmlns="http://www.w3.org/2000/svg">
<circle cx="33.5225" cy="28.7644" r="18.0726" fill="white"/>
<mask id="mask0_222_376" style="mask-type:alpha" maskUnits="userSpaceOnUse" x="0" y="0" width="68" height="69">
<rect y="0.916992" width="68" height="68" fill="#D9D9D9"/>
</mask>
<g mask="url(#mask0_222_376)">
<path d="M16.9999 66.0837V44.1962C15.2055 42.2128 13.8124 39.9462 12.8208 37.3962C11.8291 34.8462 11.3333 32.1309 11.3333 29.2503C11.3333 22.9226 13.5291 17.5628 17.9208 13.1712C22.3124 8.77951 27.6721 6.58368 33.9999 6.58368C40.3277 6.58368 45.6874 8.77951 50.0791 13.1712C54.4708 17.5628 56.6666 22.9226 56.6666 29.2503C56.6666 32.1309 56.1708 34.8462 55.1791 37.3962C54.1874 39.9462 52.7944 42.2128 50.9999 44.1962V66.0837L33.9999 60.417L16.9999 66.0837ZM33.9999 46.2503C38.7221 46.2503 42.736 44.5976 46.0416 41.292C49.3471 37.9865 50.9999 33.9726 50.9999 29.2503C50.9999 24.5281 49.3471 20.5142 46.0416 17.2087C42.736 13.9031 38.7221 12.2503 33.9999 12.2503C29.2777 12.2503 25.2638 13.9031 21.9583 17.2087C18.6527 20.5142 16.9999 24.5281 16.9999 29.2503C16.9999 33.9726 18.6527 37.9865 21.9583 41.292C25.2638 44.5976 29.2777 46.2503 33.9999 46.2503ZM22.6666 57.6545L33.9999 54.7503L45.3333 57.6545V48.8712C43.6805 49.8156 41.8978 50.5594 39.9853 51.1024C38.0728 51.6455 36.0777 51.917 33.9999 51.917C31.9221 51.917 29.927 51.6455 28.0145 51.1024C26.102 50.5594 24.3194 49.8156 22.6666 48.8712V57.6545Z" fill="#074989"/>
</g>
<path d="M37.57 24.1536C37.57 24.8472 37.4408 25.5476 37.1824 26.2548C36.9376 26.962 36.618 27.6556 36.2236 28.3356C35.8428 29.0156 35.4144 29.6752 34.9384 30.3144C34.476 30.94 34.0204 31.518 33.5716 32.0484L32.4904 32.8848V32.9868L33.9592 32.7012H37.876V34.9452H29.2876V33.5784C29.614 33.2384 29.9812 32.844 30.3892 32.3952C30.7972 31.9328 31.2052 31.45 31.6132 30.9468C32.0348 30.43 32.4428 29.8996 32.8372 29.3556C33.2316 28.8116 33.5852 28.2676 33.898 27.7236C34.2108 27.166 34.4556 26.6288 34.6324 26.112C34.8228 25.5952 34.918 25.1056 34.918 24.6432C34.918 24.0856 34.7548 23.63 34.4284 23.2764C34.1156 22.9092 33.6124 22.7256 32.9188 22.7256C32.4836 22.7256 32.0348 22.8208 31.5724 23.0112C31.1236 23.188 30.7428 23.4192 30.43 23.7048L29.3692 21.828C29.8996 21.3928 30.498 21.046 31.1644 20.7876C31.8444 20.5156 32.64 20.3796 33.5512 20.3796C34.136 20.3796 34.6732 20.4612 35.1628 20.6244C35.6524 20.7876 36.074 21.0256 36.4276 21.3384C36.7812 21.6512 37.06 22.0456 37.264 22.5216C37.468 22.984 37.57 23.528 37.57 24.1536Z" fill="#074989"/>
</svg>
