<svg width="30" height="30" viewBox="0 0 68 69" fill="none" xmlns="http://www.w3.org/2000/svg">
<circle cx="33.5225" cy="28.7644" r="18.0726" fill="white"/>
<mask id="mask0_222_396" style="mask-type:alpha" maskUnits="userSpaceOnUse" x="0" y="0" width="68" height="69">
<rect y="0.833984" width="68" height="68" fill="#D9D9D9"/>
</mask>
<g mask="url(#mask0_222_396)">
<path d="M16.9999 66.0007V44.1132C15.2055 42.1298 13.8124 39.8632 12.8208 37.3132C11.8291 34.7632 11.3333 32.0479 11.3333 29.1673C11.3333 22.8396 13.5291 17.4798 17.9208 13.0882C22.3124 8.6965 27.6721 6.50067 33.9999 6.50067C40.3277 6.50067 45.6874 8.6965 50.0791 13.0882C54.4707 17.4798 56.6666 22.8396 56.6666 29.1673C56.6666 32.0479 56.1707 34.7632 55.1791 37.3132C54.1874 39.8632 52.7944 42.1298 50.9999 44.1132V66.0007L33.9999 60.334L16.9999 66.0007ZM33.9999 46.1673C38.7221 46.1673 42.736 44.5146 46.0416 41.209C49.3471 37.9034 50.9999 33.8896 50.9999 29.1673C50.9999 24.4451 49.3471 20.4312 46.0416 17.1257C42.736 13.8201 38.7221 12.1673 33.9999 12.1673C29.2777 12.1673 25.2638 13.8201 21.9583 17.1257C18.6527 20.4312 16.9999 24.4451 16.9999 29.1673C16.9999 33.8896 18.6527 37.9034 21.9583 41.209C25.2638 44.5146 29.2777 46.1673 33.9999 46.1673ZM22.6666 57.5715L33.9999 54.6673L45.3333 57.5715V48.7882C43.6805 49.7326 41.8978 50.4764 39.9853 51.0194C38.0728 51.5625 36.0777 51.834 33.9999 51.834C31.9221 51.834 29.927 51.5625 28.0145 51.0194C26.102 50.4764 24.3194 49.7326 22.6666 48.7882V57.5715Z" fill="#074989"/>
</g>
<path d="M32.9295 32.6858C33.7918 32.6858 34.4455 32.4664 34.8906 32.0277C35.3496 31.5889 35.5791 31.0571 35.5791 30.4322C35.5791 29.6744 35.3426 29.116 34.8697 28.7571C34.3968 28.3981 33.6527 28.2186 32.6374 28.2186H31.1353V26.8426L33.6597 23.5521L34.8489 22.6546L33.2007 22.8341H29.6957V20.6404H37.6654V22.0564L34.7237 25.8255L33.8057 26.364V26.4637L34.682 26.344C35.1688 26.3839 35.6278 26.4903 36.0589 26.6631C36.504 26.8359 36.8865 27.0885 37.2064 27.4209C37.5402 27.74 37.8045 28.1389 37.9992 28.6175C38.1939 29.0961 38.2913 29.6478 38.2913 30.2727C38.2913 31.0571 38.1522 31.7352 37.874 32.3068C37.6097 32.8785 37.2342 33.3572 36.7474 33.7427C36.2745 34.1283 35.7182 34.4141 35.0784 34.6002C34.4386 34.7864 33.7501 34.8794 33.0129 34.8794C32.4009 34.8794 31.7681 34.8263 31.1144 34.7199C30.4607 34.6135 29.9322 34.4606 29.5288 34.2612L30.259 32.1074C30.6206 32.2803 31.017 32.4199 31.4482 32.5262C31.8933 32.6326 32.387 32.6858 32.9295 32.6858Z" fill="#074989"/>
</svg>
