<svg width="64" height="71" viewBox="0 0 64 71" fill="none" xmlns="http://www.w3.org/2000/svg">
<path d="M31.9301 71C28.4859 70.8972 25.05 70.805 21.6106 70.6904C19.1296 70.6076 16.9705 69.6268 14.9717 68.2465C11.2151 65.6465 8.48353 62.1745 6.35527 58.186C3.69612 53.2024 2.24362 47.8596 1.47878 42.2994C0.409893 34.5599 1.13674 26.9646 3.53579 19.562C5.19019 14.459 7.71987 9.78275 11.5322 5.90652C14.7674 2.61645 18.7151 0.805967 23.3375 0.333256C28.088 -0.151273 32.8196 -0.0212779 37.5643 0.196169C39.2804 0.275348 41.0085 0.288348 42.7056 0.550702C46.5892 1.15105 49.7816 3.11634 52.4313 5.93133C57.5156 11.3344 60.4028 17.8484 61.8137 25.0312C62.4693 28.3686 63.0726 31.7484 62.9942 35.1602C62.9313 37.9067 62.6379 40.6579 62.2816 43.3854C61.6878 47.8762 60.4895 52.2109 58.5358 56.3188C56.8125 59.9409 54.7353 63.3196 51.7092 66.0294C49.3434 68.1495 46.7353 69.9293 43.5334 70.4635C41.5952 70.7873 39.6011 70.818 37.6284 70.8913C35.7282 70.9586 33.8279 70.9066 31.9277 70.9066L31.9301 71ZM56.2472 35.5845C56.1724 34.1888 56.1284 32.792 56.018 31.3998C55.5263 25.1258 53.3066 19.621 48.8778 15.0133C46.0275 12.0506 42.6724 10.7104 38.5892 11.1252C36.3113 11.3616 34.4253 12.4181 32.7318 13.8788C29.3066 16.8332 27.1854 20.6078 25.8434 24.8551C23.9669 30.8101 23.8576 36.8691 24.974 42.9564C25.8719 47.8525 27.8505 52.2925 31.3066 55.956C33.746 58.5417 36.6011 60.3959 40.4016 60.1726C43.0334 60.0189 45.4883 59.3796 47.5144 57.6105C49.0679 56.2514 50.3565 54.656 51.4776 52.9247C54.904 47.6386 56.347 41.8255 56.2472 35.5845Z" fill="white"/>
<path d="M47.2839 39.4476C48.5903 39.4476 49.715 39.4476 50.8373 39.4476C51.1546 39.4386 51.4721 39.4516 51.7875 39.4866C52.8053 39.6355 53.3148 40.2926 53.1937 41.303C52.8777 43.9325 51.8872 46.3539 50.8433 48.7553C50.7091 49.0614 50.5737 49.3674 50.4324 49.6712C50.1509 50.2751 49.7934 50.4842 49.1568 50.3353C49.0497 50.305 48.9501 50.2526 48.8646 50.1815C48.7791 50.1105 48.7095 50.0224 48.6604 49.9229C47.6438 47.2414 46.6509 44.5505 45.6533 41.8608C45.5713 41.6398 45.487 41.4188 45.4157 41.1943C45.1604 40.3836 45.4276 39.8364 46.2412 39.6071C46.5843 39.5285 46.9329 39.4752 47.2839 39.4476Z" fill="white"/>
<path d="M31.1294 31.6705C30.298 31.6705 29.4667 31.7024 28.6353 31.6622C27.6056 31.6114 27.1674 31.1517 27.2874 30.1437C27.6686 26.9375 28.6187 23.9169 30.4477 21.2153C30.8812 20.576 31.3111 20.6162 31.589 21.3217C32.7252 24.2131 33.8495 27.1104 34.9619 30.0137C35.3277 30.9733 34.9216 31.5843 33.8503 31.6552C32.9465 31.7166 32.0356 31.6682 31.127 31.6682L31.1294 31.6705Z" fill="white"/>
<path d="M49.2838 31.6704C48.4346 31.6704 47.5831 31.6917 46.7339 31.6645C45.5914 31.6278 45.2517 31.2272 45.6021 30.1093C46.1353 28.404 46.7755 26.7317 47.3954 25.0548C47.8159 23.912 48.2553 22.7752 48.7387 21.6584C48.8574 21.3748 49.1425 21.0533 49.4204 20.9659C49.8444 20.8311 50.1555 21.1597 50.342 21.539C51.6318 24.1614 52.7315 26.8487 53.1615 29.763C53.3705 31.1811 52.9311 31.6893 51.4798 31.6917C50.7482 31.6917 50.0166 31.6917 49.2838 31.6917V31.6704Z" fill="white"/>
<path d="M40.2695 57.0336C39.3099 56.7725 38.3147 56.5976 37.4002 56.2265C36.3455 55.7975 36.1247 55.0672 36.5475 54.0095C37.1769 52.4413 37.8539 50.8908 38.4406 49.3084C38.8432 48.2247 39.146 47.1032 39.4703 45.9911C39.5724 45.6437 39.7078 45.288 40.1009 45.353C40.2442 45.3865 40.3785 45.4507 40.4944 45.5412C40.6103 45.6316 40.705 45.746 40.7719 45.8765C41.8836 48.669 42.9655 51.4734 44.038 54.2813C44.3147 55.0045 44.1199 55.5505 43.4643 56.0315C42.5273 56.7181 41.4453 56.8587 40.3182 56.8706L40.2695 57.0336Z" fill="white"/>
<path d="M31.6484 39.9393C32.3337 39.9712 33.3218 40.0066 34.3076 40.0681C35.0629 40.1142 35.3764 40.6082 35.1092 41.2794C34.2007 43.604 33.3004 45.9321 32.3895 48.2519C32.1733 48.8014 31.9536 49.351 31.6947 49.8804C31.3076 50.6734 30.8456 50.6958 30.3598 49.9525C29.1057 48.0345 28.3313 45.9132 27.7565 43.7139C27.5676 42.9906 27.3847 42.2638 27.2612 41.5276C27.0866 40.4994 27.5819 39.9416 28.6163 39.9357C29.5261 39.9346 30.4358 39.9393 31.6484 39.9393Z" fill="white"/>
<path d="M36.532 16.7479C36.532 15.7056 36.9702 15.0556 37.8218 14.7803C39.6199 14.2 41.4002 14.2177 43.0985 15.1454C44.0688 15.6749 44.2719 16.2823 43.8812 17.3093C42.8598 19.988 41.84 22.6702 40.8218 25.356C40.764 25.5437 40.6813 25.723 40.5759 25.889C40.3194 26.2329 40.0118 26.2435 39.7446 25.902C39.6199 25.7258 39.5248 25.5306 39.4631 25.3241C38.6104 22.877 37.762 20.4276 36.918 17.9758C36.7553 17.496 36.6139 17.0091 36.532 16.7479Z" fill="white"/>
<path d="M42.5403 35.8022C42.7125 37.2569 42.0403 38.3359 41.0711 39.2754C40.5878 39.7481 40.0379 39.767 39.5272 39.3333C37.0486 37.2321 37.5545 33.6159 39.6377 31.8456C40.0866 31.4627 40.5605 31.5513 40.9726 31.9366C42.0153 32.9092 42.6531 34.0638 42.5426 35.5351C42.5343 35.6332 42.5403 35.7313 42.5403 35.8022Z" fill="white"/>
</svg>
