<svg width="89" height="49" viewBox="0 0 89 49" fill="none" xmlns="http://www.w3.org/2000/svg">
<path d="M10.0291 0H4.45288V46.2721H10.0291V0Z" fill="#CAD7E8"/>
<path style="mix-blend-mode:screen" d="M7.24162 0H5.32324V46.2721H7.24162V0Z" fill="url(#paint0_linear_144_15132)"/>
<path style="mix-blend-mode:multiply" d="M10.029 0H7.84351V46.2721H10.029V0Z" fill="url(#paint1_linear_144_15132)"/>
<path d="M14.1904 46.272H0V48.8362H14.1904V46.272Z" fill="#3C3C3B"/>
<g style="mix-blend-mode:multiply">
<path d="M8.2168 3.91128V2.13241C8.2168 1.72759 7.88835 1.39941 7.48319 1.39941H6.99879C6.59363 1.39941 6.26518 1.72759 6.26518 2.13241V3.91128C6.26518 4.3161 6.59363 4.64428 6.99879 4.64428H7.48319C7.88835 4.64428 8.2168 4.3161 8.2168 3.91128Z" fill="#D8DEDF"/>
</g>
<path d="M8.00989 3.59331V2.00345C8.00989 1.66986 7.73923 1.39941 7.40536 1.39941H7.07945C6.74558 1.39941 6.47493 1.66986 6.47493 2.00345V3.59331C6.47493 3.9269 6.74558 4.19733 7.07945 4.19733H7.40536C7.73923 4.19733 8.00989 3.9269 8.00989 3.59331Z" fill="#3C3C3B"/>
<path d="M7.40522 1.56812H7.07803C6.83734 1.56812 6.64221 1.76308 6.64221 2.00357V3.59472C6.64221 3.83521 6.83734 4.03017 7.07803 4.03017H7.40522C7.64592 4.03017 7.84104 3.83521 7.84104 3.59472V2.00357C7.84104 1.76308 7.64592 1.56812 7.40522 1.56812Z" fill="#FAAC1B"/>
<g style="mix-blend-mode:multiply">
<path d="M7.78488 1.79419V3.23975C7.78505 3.2943 7.77441 3.34835 7.7536 3.39878C7.73278 3.44921 7.7022 3.49502 7.66359 3.53359C7.62499 3.57216 7.57913 3.60274 7.52865 3.62353C7.47818 3.64433 7.4241 3.65494 7.3695 3.65477H7.11389C7.00373 3.65477 6.89808 3.61105 6.82018 3.53321C6.74228 3.45538 6.69852 3.34982 6.69852 3.23975V1.79419C6.66264 1.85818 6.64371 1.93027 6.64355 2.00362V3.59476C6.64355 3.65194 6.65484 3.70856 6.67674 3.7614C6.69864 3.81423 6.73074 3.86224 6.77121 3.90267C6.81168 3.94311 6.85972 3.97518 6.9126 3.99706C6.96548 4.01895 7.02215 4.03022 7.07938 4.03022H7.40656C7.46379 4.03022 7.52048 4.01895 7.57335 3.99706C7.62623 3.97518 7.67426 3.94311 7.71473 3.90267C7.7552 3.86224 7.78731 3.81423 7.80922 3.7614C7.83112 3.70856 7.84238 3.65194 7.84238 3.59476V2.00362C7.84139 1.93005 7.8216 1.85796 7.78488 1.79419Z" fill="#FAAC1B"/>
</g>
<g style="mix-blend-mode:screen">
<path d="M7.01168 1.77417H7.47051C7.51966 1.77417 7.56679 1.79368 7.60155 1.8284C7.6363 1.86313 7.65583 1.91023 7.65583 1.95933V2.50206C7.65583 2.51764 7.64963 2.53258 7.63861 2.5436C7.62758 2.55461 7.61263 2.5608 7.59703 2.5608H6.88643C6.87084 2.5608 6.85588 2.55461 6.84486 2.5436C6.83383 2.53258 6.82764 2.51764 6.82764 2.50206V1.95933C6.82764 1.91045 6.84698 1.86354 6.88146 1.82885C6.91594 1.79416 6.96275 1.77451 7.01168 1.77417Z" fill="#875D0F"/>
</g>
<path style="mix-blend-mode:screen" d="M9.76202 0.342041H4.72131V1.12484H9.76202V0.342041Z" fill="url(#paint2_linear_144_15132)"/>
<path d="M83.9272 0H78.351V46.2721H83.9272V0Z" fill="#CAD7E8"/>
<path style="mix-blend-mode:screen" d="M81.1396 0H79.2212V46.2721H81.1396V0Z" fill="url(#paint3_linear_144_15132)"/>
<path style="mix-blend-mode:multiply" d="M83.9272 0H81.7417V46.2721H83.9272V0Z" fill="url(#paint4_linear_144_15132)"/>
<path d="M88.0883 46.272H73.8979V48.8362H88.0883V46.272Z" fill="#3C3C3B"/>
<g style="mix-blend-mode:multiply">
<path d="M82.1147 3.91126V2.13241C82.1147 1.72759 81.7863 1.39941 81.3811 1.39941H80.8967C80.4916 1.39941 80.1631 1.72759 80.1631 2.13241V3.91126C80.1631 4.31609 80.4916 4.64426 80.8967 4.64426H81.3811C81.7863 4.64426 82.1147 4.31609 82.1147 3.91126Z" fill="#D8DEDF"/>
</g>
<path d="M81.9076 3.59329V2.00343C81.9076 1.66984 81.6369 1.39941 81.3031 1.39941H80.9772C80.6433 1.39941 80.3726 1.66984 80.3726 2.00343V3.59329C80.3726 3.92688 80.6433 4.19731 80.9772 4.19731H81.3031C81.6369 4.19731 81.9076 3.92688 81.9076 3.59329Z" fill="#3C3C3B"/>
<path d="M81.3032 1.56812H80.976C80.7353 1.56812 80.5402 1.76308 80.5402 2.00357V3.59472C80.5402 3.83521 80.7353 4.03017 80.976 4.03017H81.3032C81.5439 4.03017 81.739 3.83521 81.739 3.59472V2.00357C81.739 1.76308 81.5439 1.56812 81.3032 1.56812Z" fill="#FAAC1B"/>
<g style="mix-blend-mode:multiply">
<path d="M81.6828 1.79419V3.23975C81.683 3.2943 81.6723 3.34835 81.6515 3.39878C81.6307 3.44921 81.6001 3.49502 81.5615 3.53359C81.5229 3.57216 81.4771 3.60274 81.4266 3.62353C81.3761 3.64433 81.322 3.65494 81.2674 3.65477H81.0118C80.9017 3.65477 80.796 3.61105 80.7181 3.53321C80.6402 3.45538 80.5965 3.34982 80.5965 3.23975V1.79419C80.5606 1.85818 80.5417 1.93027 80.5415 2.00362V3.59476C80.5415 3.65194 80.5528 3.70856 80.5747 3.7614C80.5966 3.81423 80.6287 3.86224 80.6691 3.90267C80.7096 3.94311 80.7577 3.97518 80.8105 3.99706C80.8634 4.01895 80.9201 4.03022 80.9773 4.03022H81.3045C81.3617 4.03022 81.4184 4.01895 81.4713 3.99706C81.5242 3.97518 81.5722 3.94311 81.6127 3.90267C81.6532 3.86224 81.6852 3.81423 81.7071 3.7614C81.7291 3.70856 81.7403 3.65194 81.7403 3.59476V2.00362C81.7393 1.93005 81.7195 1.85796 81.6828 1.79419Z" fill="#FAAC1B"/>
</g>
<g style="mix-blend-mode:screen">
<path d="M80.9096 1.77417H81.3685C81.4176 1.77417 81.4647 1.79368 81.4995 1.8284C81.5342 1.86313 81.5538 1.91023 81.5538 1.95933V2.50206C81.5538 2.51764 81.5476 2.53258 81.5366 2.5436C81.5255 2.55461 81.5106 2.5608 81.495 2.5608H80.7844C80.7767 2.5608 80.769 2.55928 80.7619 2.55633C80.7547 2.55338 80.7483 2.54905 80.7428 2.5436C80.7374 2.53814 80.733 2.53167 80.7301 2.52454C80.7271 2.51741 80.7256 2.50977 80.7256 2.50206V1.95933C80.7256 1.91045 80.7449 1.86354 80.7794 1.82885C80.8139 1.79416 80.8607 1.77451 80.9096 1.77417Z" fill="#875D0F"/>
</g>
<path style="mix-blend-mode:screen" d="M83.6598 0.342041H78.6191V1.12484H83.6598V0.342041Z" fill="url(#paint5_linear_144_15132)"/>
<path style="mix-blend-mode:multiply" d="M10.0291 32.7388H4.45288V34.1358H10.0291V32.7388Z" fill="url(#paint6_linear_144_15132)"/>
<path style="mix-blend-mode:multiply" d="M83.9272 32.7388H78.351V34.1358H83.9272V32.7388Z" fill="url(#paint7_linear_144_15132)"/>
<path d="M88.2021 5.55591H0V32.7381H88.2021V5.55591Z" fill="#FF4242"/>
<path d="M9.57146 19.2888H0L12.8369 5.55591H22.4084L9.57146 19.2888Z" fill="#FCF1F2"/>
<path d="M9.57146 19.2888H0L12.8369 32.7382H22.4084L9.57146 19.2888Z" fill="#FCF1F2"/>
<path d="M31.5033 19.2888H21.9305L34.7687 5.55591H44.3402L31.5033 19.2888Z" fill="#FCF1F2"/>
<path d="M31.5033 19.2888H21.9305L34.7687 32.7382H44.3402L31.5033 19.2888Z" fill="#FCF1F2"/>
<path d="M53.4336 19.2888H43.8622L56.6991 5.55591H66.2706L53.4336 19.2888Z" fill="#FCF1F2"/>
<path d="M53.4336 19.2888H43.8622L56.6991 32.7382H66.2706L53.4336 19.2888Z" fill="#FCF1F2"/>
<path d="M75.3653 19.2888H65.7926L78.6308 5.55591H88.2023L75.3653 19.2888Z" fill="#FCF1F2"/>
<path d="M75.3653 19.2888H65.7926L78.6308 32.7382H88.2023L75.3653 19.2888Z" fill="#FCF1F2"/>
<path style="mix-blend-mode:multiply" d="M88.2021 15.605H0V17.0442H88.2021V15.605Z" fill="url(#paint8_linear_144_15132)"/>
<path style="mix-blend-mode:multiply" d="M88.2021 17.0432H0V21.9954H88.2021V17.0432Z" fill="url(#paint9_linear_144_15132)"/>
<path style="mix-blend-mode:multiply" d="M88.2021 30.7717H0V32.737H88.2021V30.7717Z" fill="url(#paint10_linear_144_15132)"/>
<path style="mix-blend-mode:screen" d="M88.2021 5.96753H0V7.73107H88.2021V5.96753Z" fill="url(#paint11_linear_144_15132)"/>
<path style="mix-blend-mode:screen" d="M88.2021 21.3721H0V23.1356H88.2021V21.3721Z" fill="url(#paint12_linear_144_15132)"/>
<defs>
<linearGradient id="paint0_linear_144_15132" x1="5.32324" y1="23.1354" x2="7.24162" y2="23.1354" gradientUnits="userSpaceOnUse">
<stop/>
<stop offset="0.1" stop-color="#1B222E"/>
<stop offset="0.22" stop-color="#42526E"/>
<stop offset="0.78" stop-color="#42526E"/>
<stop offset="1"/>
</linearGradient>
<linearGradient id="paint1_linear_144_15132" x1="7.84351" y1="23.1354" x2="10.0303" y2="23.1354" gradientUnits="userSpaceOnUse">
<stop stop-color="white"/>
<stop offset="0.8" stop-color="#969DB0"/>
<stop offset="1" stop-color="white"/>
</linearGradient>
<linearGradient id="paint2_linear_144_15132" x1="7.24167" y1="1.12484" x2="7.24167" y2="0.342041" gradientUnits="userSpaceOnUse">
<stop/>
<stop offset="1" stop-color="#6F7B8A"/>
</linearGradient>
<linearGradient id="paint3_linear_144_15132" x1="79.2212" y1="23.1354" x2="81.1396" y2="23.1354" gradientUnits="userSpaceOnUse">
<stop/>
<stop offset="0.1" stop-color="#1B222E"/>
<stop offset="0.22" stop-color="#42526E"/>
<stop offset="0.78" stop-color="#42526E"/>
<stop offset="1"/>
</linearGradient>
<linearGradient id="paint4_linear_144_15132" x1="81.7417" y1="23.1354" x2="83.9285" y2="23.1354" gradientUnits="userSpaceOnUse">
<stop stop-color="white"/>
<stop offset="0.8" stop-color="#969DB0"/>
<stop offset="1" stop-color="white"/>
</linearGradient>
<linearGradient id="paint5_linear_144_15132" x1="81.1395" y1="1.12484" x2="81.1395" y2="0.342041" gradientUnits="userSpaceOnUse">
<stop/>
<stop offset="1" stop-color="#6F7B8A"/>
</linearGradient>
<linearGradient id="paint6_linear_144_15132" x1="7.24163" y1="32.7388" x2="7.24163" y2="34.1345" gradientUnits="userSpaceOnUse">
<stop offset="0.2" stop-color="#969DB0"/>
<stop offset="1" stop-color="white"/>
</linearGradient>
<linearGradient id="paint7_linear_144_15132" x1="81.1397" y1="32.7388" x2="81.1397" y2="34.1345" gradientUnits="userSpaceOnUse">
<stop offset="0.2" stop-color="#969DB0"/>
<stop offset="1" stop-color="white"/>
</linearGradient>
<linearGradient id="paint8_linear_144_15132" x1="44.101" y1="17.0429" x2="44.101" y2="15.605" gradientUnits="userSpaceOnUse">
<stop offset="0.2" stop-color="#969DB0"/>
<stop offset="1" stop-color="white"/>
</linearGradient>
<linearGradient id="paint9_linear_144_15132" x1="44.101" y1="17.0445" x2="44.101" y2="21.9954" gradientUnits="userSpaceOnUse">
<stop offset="0.2" stop-color="#969DB0"/>
<stop offset="1" stop-color="white"/>
</linearGradient>
<linearGradient id="paint10_linear_144_15132" x1="44.101" y1="32.7383" x2="44.101" y2="30.7717" gradientUnits="userSpaceOnUse">
<stop stop-color="white"/>
<stop offset="0.2" stop-color="#969DB0"/>
<stop offset="1" stop-color="white"/>
</linearGradient>
<linearGradient id="paint11_linear_144_15132" x1="44.101" y1="7.73107" x2="44.101" y2="5.96753" gradientUnits="userSpaceOnUse">
<stop/>
<stop offset="1" stop-color="#6F7B8A"/>
</linearGradient>
<linearGradient id="paint12_linear_144_15132" x1="44.101" y1="23.1356" x2="44.101" y2="21.3721" gradientUnits="userSpaceOnUse">
<stop/>
<stop offset="1" stop-color="#6F7B8A"/>
</linearGradient>
</defs>
</svg>
