<svg width="384" height="135" viewBox="0 0 384 135" fill="none" xmlns="http://www.w3.org/2000/svg">
<g opacity="0.5">
<path fill-rule="evenodd" clip-rule="evenodd" d="M211.612 33.9471C163.823 32.1845 171.03 0.000838458 144.468 10.8604C123.656 19.3538 82.3151 -5.73489 71.7948 2.11958C61.1071 10.0916 -41.8664 56.2772 19.8621 107.923C32.0442 118.12 56.5257 86.232 106.72 84.3767C118.951 83.9254 144.468 140.365 297.632 133.894C341.276 138.009 367.905 114.164 370.132 103.394C375.27 78.5037 259.402 35.7097 211.612 33.9471Z" fill="#3B4C71"/>
<path d="M248.987 62.925C252.336 70.7395 260.999 94.0165 244.801 89.4385C228.603 84.8604 197.356 99.2066 212.706 107.579C228.055 115.952 297.828 107.579 305.503 107.579C313.177 107.579 317.254 99.281 309.689 89.4385C302.123 79.5959 281.154 84.5403 275.5 66.5713C269.847 48.6024 244.801 53.157 248.987 62.925Z" fill="#223152"/>
<path fill-rule="evenodd" clip-rule="evenodd" d="M204.707 64.5542C194.409 47.1091 191.273 38.4896 171.99 31.5822C161.358 27.7825 113.554 28.731 94.6514 15.9817C75.7484 3.23243 42.0575 26.9804 42.8552 48.419C43.4958 65.6064 79.6223 64.2898 95.1463 66.2339C124.715 69.9315 125.563 49.6701 163.1 72.7752C200.636 95.8802 215.005 81.9993 204.707 64.5542Z" fill="#35405F"/>
<path fill-rule="evenodd" clip-rule="evenodd" d="M339.565 41.965C349.903 59.3862 329.065 57.3423 348.364 64.2046C359.004 67.9794 381.741 66.2919 383.063 58.8445C384.385 51.3971 381.515 43.063 357.562 16.3482C333.608 -10.3666 329.227 24.5438 339.565 41.965Z" fill="#3B4C71"/>
<path fill-rule="evenodd" clip-rule="evenodd" d="M181.058 43.8505C162.101 29.7645 134.755 33.9925 112.98 27.3925C90.7935 20.6818 67.7986 33.5266 88.4991 35.975C102.039 37.5768 119.963 38.2778 132.735 43.7828C141.927 47.7459 161.788 68.9635 179.163 66.5715C196.539 64.1796 183.262 51.5355 181.058 43.8505Z" fill="#223152"/>
</g>
</svg>
