<svg width="111" height="50" viewBox="0 0 111 50" fill="none" xmlns="http://www.w3.org/2000/svg">
<g opacity="0.5">
<path d="M12.059 12.3537L15.8826 12.6479L15.5884 13.5302H13.5296L9.41189 12.0596L6.17655 10.0008L1.76473 7.35368L9.53674e-07 3.82422L1.76473 6.47131L2.6471 7.6478L9.70601 10.589L12.059 12.3537Z" fill="#675641"/>
<path d="M12.6473 4.1177L17.9415 6.47067L18.5297 7.05892L19.4121 4.70595L14.412 3.52946L8.82373 0L12.6473 4.1177Z" fill="#675641"/>
<path d="M97.0603 9.99986C96.5897 9.99986 94.7074 11.3724 93.825 12.0587L93.5309 11.4705L96.7662 9.41162L101.472 10.294C100.198 10.1959 97.5309 9.99986 97.0603 9.99986Z" fill="#675641"/>
<path d="M110.001 49.9999C109.959 49.8613 109.913 49.7144 109.861 49.5608C109.685 48.9819 109.408 48.0002 109.119 46.7648C108.734 45.1177 106.802 43.7255 105.884 43.2353L99.7072 43.5292L93.8248 42.6471L87.9423 40.8823L87.3541 42.0588L92.9424 43.5292L99.4131 44.1177C100.492 44.0195 103.178 43.7645 105.296 43.5292C107.283 43.3084 109.081 47.2155 109.861 49.5608C109.92 49.7537 109.968 49.9019 110.001 49.9999Z" fill="#675641"/>
<path d="M100.589 27.9414C96.8247 29.3532 90.3932 37.9415 87.6481 42.0592H82.3539C79.1185 42.0592 57.9418 46.1771 51.177 45.0006C44.4122 43.8241 25.5884 29.7063 23.5295 26.1768C21.4707 22.6474 15 15.8826 14.7059 13.5296C14.4118 11.1766 16.4706 9.41171 17.9412 7.64699C19.4118 5.88226 13.8235 4.41183 16.4706 5.00007C19.1177 5.58832 20.5883 3.82359 22.0589 2.94122C23.2354 2.23533 33.5297 4.41183 38.5297 5.58832C42.5494 4.41177 51.4711 1.99985 55.0005 1.76455C59.4124 1.47043 73.8243 7.64699 75.5891 9.41171C77.3538 11.1764 90.001 7.64699 90.8834 7.64699C91.7657 7.64699 94.1187 8.23523 93.8246 11.7647C93.5305 15.2941 105.295 26.1766 100.589 27.9414Z" fill="#473825"/>
<path d="M100.589 27.9414C96.8247 29.3532 97.9423 30.0004 97.0599 30.2945C96.3737 30.2945 90.2363 15.8826 87.648 15.8826C84.4127 15.8826 80.295 19.1179 73.5302 17.9414C70.264 17.3734 62.7994 4.78174 51.7652 7.35304C39.9458 10.1073 27.5355 9.76665 26.4708 7.94129C24.4119 4.41183 15 15.8826 14.7059 13.5296C14.4118 11.1766 16.4706 9.41172 17.9412 7.64699C19.4118 5.88226 13.8235 4.41183 16.4706 5.00007C19.1177 5.58832 20.5883 3.82359 22.0589 2.94122C23.2354 2.23533 33.5297 4.41183 38.5297 5.58832C42.5494 4.41177 51.4711 1.99985 55.0005 1.76455C59.4124 1.47043 73.8243 7.64699 75.5891 9.41171C77.3538 11.1764 90.001 7.64699 90.8834 7.64699C91.7657 7.64699 94.1187 8.23523 93.8246 11.7647C93.5305 15.2941 105.295 26.1766 100.589 27.9414Z" fill="#2B2019"/>
<path d="M91.6813 29.076L93.6453 29.9406L93.6668 29.9414C93.7563 29.9443 94.1048 29.9542 94.4255 29.9455C94.6645 29.9398 94.8864 29.9217 94.9777 29.885C95.2064 29.7883 96.3311 28.7549 96.3311 28.7549L92.5246 27.7333L91.6813 29.076Z" fill="#322711"/>
<path d="M92.7421 27.8049C92.7421 27.8049 91.9399 29.24 91.7122 29.0889C91.4845 28.9377 90.6057 28.15 90.6057 28.15L90.644 26.8813L93.2296 26.2059L92.7421 27.8049Z" fill="#644F2C"/>
<path d="M95.4832 26.0154C95.7801 26.3388 96.6246 27.1481 96.5099 27.8753L96.398 28.6037C96.398 28.6037 93.2693 28.3547 93.0759 27.7994C92.8824 27.2442 93.3238 26.4281 93.4935 26.3147C93.6506 26.2092 94.9189 25.8267 95.3407 26.0116C95.3681 26.0237 95.462 25.9925 95.4832 26.0154Z" fill="#3D291B"/>
<path d="M95.52 26.0466C95.52 26.0466 94.8274 25.5336 93.0075 25.7916C92.2439 25.8997 90.6581 26.8498 90.6581 26.8498L94.1073 26.641L95.52 26.0466Z" fill="#745B43"/>
<path d="M95.928 28.5337L95.9328 28.1847C95.967 28.1456 95.9961 28.0995 96.0181 28.0496C96.04 27.9997 96.0544 27.9471 96.0601 27.8954C96.0649 27.8351 96.0599 27.7776 96.0453 27.7265C96.0307 27.6753 96.0069 27.6316 95.9754 27.5981L95.9288 27.3939L95.9157 27.7335L95.9978 27.8022L95.9739 27.9842L95.8159 28.2154L95.8238 28.5317L95.928 28.5337Z" fill="#44331C"/>
<path d="M95.9114 28.5708L95.56 29.0761L95.4484 29.1254L95.2582 29.408L95.1952 29.3802L94.9463 29.702L94.8368 29.8738L94.943 29.6327L95.154 29.3707L95.0834 29.4152L95.0082 29.4844L95.1524 29.3107L95.2482 29.3366L95.4548 29.0383L95.5351 29.0182L95.7943 28.57L95.9114 28.5708Z" fill="#675943"/>
<path d="M94.6564 30.0471C94.6743 29.894 94.7221 29.7471 94.7974 29.6136C94.8831 29.4839 94.9868 29.366 95.1057 29.2629L95.0708 29.0512L95.138 28.8216C95.138 28.8216 94.8426 29.0563 94.8132 29.0057C94.7838 28.9552 94.6589 29.1136 94.6589 29.1136L94.4922 29.4924L94.1464 29.7343L93.7795 29.9996C93.88 30.0079 94.2849 30.0381 94.6564 30.0471Z" fill="#675943"/>
<path d="M93.9014 26.5013L93.9611 26.7212L93.908 26.7579L93.9859 26.8946L93.9473 26.9823L94.0317 27.1507L93.9168 26.991L93.9422 26.9488L93.8414 26.771L93.9107 26.699L93.782 26.58L93.9014 26.5013Z" fill="#44331C"/>
<path d="M93.7972 26.5459L93.5924 26.4558L93.4903 26.3204L93.2815 26.3189L92.773 26.5967L93.2724 26.3529L93.4693 26.3493L93.5496 26.5344L93.6681 26.6293L93.7972 26.5459Z" fill="#675943"/>
<path d="M93.2352 26.8C93.2352 26.8 93.0398 27.244 93.0361 27.4477C93.0325 27.6513 93.0848 27.9233 93.0432 27.9755C93.0016 28.0277 92.795 28.3633 92.7592 28.4288C92.7234 28.4942 92.394 28.9819 92.3033 29.0491C92.2125 29.1162 92.1589 29.2327 92.1009 29.2607C92.1009 29.2607 92.3326 29.1057 92.4139 28.9791C92.4952 28.8524 92.8195 28.4625 92.8423 28.3895C92.8652 28.3166 93.0237 28.041 93.0839 28.0327C93.1441 28.0244 93.2103 28.1187 93.2616 28.1412C93.3128 28.1638 93.6518 28.3407 93.7588 28.3548C93.8657 28.3688 94.1308 28.4373 94.1308 28.4373L94.4486 28.4791C94.4486 28.4791 94.0081 28.3744 93.9095 28.331C93.8055 28.2811 93.6954 28.2455 93.5812 28.2248C93.4811 28.2076 93.1802 28.0269 93.1392 27.9598C93.0982 27.8927 93.0741 27.5956 93.0741 27.5956C93.0648 27.508 93.0712 27.4175 93.093 27.329C93.1301 27.2026 93.2352 26.8 93.2352 26.8Z" fill="#634630"/>
<path d="M95.5261 26.0327C95.5261 26.0327 95.2408 26.114 95.1872 26.1262C95.1336 26.1384 94.7494 26.2667 94.7136 26.2733C94.6777 26.28 94.1924 26.4591 94.1135 26.4469C94.018 26.4449 93.9231 26.4527 93.8307 26.4704C93.8307 26.4704 94.1673 26.5091 94.1943 26.4825C94.2214 26.4558 94.6701 26.3096 94.6809 26.3059C94.6917 26.3023 94.9737 26.2181 95.0094 26.2065C95.0452 26.1949 95.5261 26.0327 95.5261 26.0327Z" fill="#634630"/>
<path d="M93.3488 26.6045C93.3488 26.6045 93.3813 26.564 93.2913 26.5792C93.2013 26.5944 92.6697 26.6404 92.6697 26.6404C92.6697 26.6404 91.6317 26.7664 91.6004 26.769L90.658 26.8496L92.0554 26.6711L93.2262 26.5274C93.3899 26.497 93.5535 26.4763 93.7163 26.4652C93.7529 26.474 93.7915 26.4757 93.8306 26.4702C93.8306 26.4702 93.4188 26.4929 93.3488 26.6045Z" fill="#634630"/>
<path d="M20.6981 13.1667L23.1664 14.3894L23.1935 14.3923C23.304 14.4074 23.7392 14.4639 24.1385 14.4955C24.4366 14.5192 24.7123 14.5283 24.8252 14.499C25.1081 14.4202 26.4866 13.4082 26.4866 13.4082L21.7217 11.7732L20.6981 13.1667Z" fill="#322711"/>
<path d="M21.9921 11.88C21.9921 11.88 21.0237 13.3841 20.737 13.1847C20.4503 12.9853 19.3374 11.9905 19.3374 11.9905L19.3565 10.5745L22.5644 10.1524L21.9921 11.88Z" fill="#644F2C"/>
<path d="M25.0974 10.0968C25.5332 10.5264 26.7616 11.6202 26.6617 12.4332L26.5658 13.2482C26.5658 13.2482 22.2348 12.3534 21.9239 11.678C21.6129 11.0026 22.1559 10.151 22.3803 10.0543C22.5883 9.96369 24.3058 9.77005 24.9016 10.0652C24.9444 10.0864 25.0671 10.0667 25.0974 10.0968Z" fill="#3D291B"/>
<path d="M25.4151 10.2706C25.4151 10.2706 24.5412 9.60697 22.2784 9.66078C21.3244 9.68103 19.3728 10.5414 19.3728 10.5414L23.6683 10.7536L25.4151 10.2706Z" fill="#745B43"/>
<path d="M25.7175 13.636L25.7157 13.2459C25.7575 13.2064 25.7928 13.1586 25.8191 13.1056C25.8453 13.0525 25.862 12.9955 25.868 12.9384C25.8727 12.8715 25.8651 12.8064 25.8458 12.7473C25.8265 12.6881 25.7959 12.6361 25.7558 12.5944L25.6936 12.359L25.6849 12.7377L25.7883 12.8259L25.7629 13.0259L25.5708 13.2651L25.588 13.6196L25.7175 13.636Z" fill="#44331C"/>
<path d="M25.6982 13.6743L25.3684 13.9992L25.245 14.0102L25.0679 14.1938L24.988 14.1542L24.7491 14.3546L24.6489 14.4674L24.7335 14.2967L24.9385 14.136L24.8629 14.1537L24.7855 14.1917L24.9264 14.0862L25.0443 14.1319L25.2376 13.9408L25.3284 13.9448L25.5588 13.6434L25.6982 13.6743Z" fill="#675943"/>
<path d="M23.9538 14.4081C23.9988 14.2518 24.064 14.0979 24.1461 13.9539C24.2353 13.8106 24.3353 13.6772 24.4435 13.5571L24.4623 13.3498L24.5588 13.1101C24.5588 13.1101 24.2972 13.384 24.2863 13.3378C24.2754 13.2916 24.1526 13.4665 24.1526 13.4665L23.9532 13.8692L23.653 14.1584L23.3336 14.4726C23.403 14.4689 23.6888 14.4463 23.9538 14.4081Z" fill="#675943"/>
<path d="M21.7962 11.0848C21.7962 11.0848 21.6091 11.4623 21.6272 11.6534C21.6453 11.8444 21.7385 12.1114 21.6943 12.1513C21.6502 12.1912 21.4371 12.4656 21.4014 12.5192C21.3657 12.5728 21.0215 12.9643 20.919 13.0093C20.8165 13.0543 20.7649 13.1523 20.6979 13.1666C20.6979 13.1666 20.961 13.0681 21.0449 12.9664C21.1288 12.8646 21.4777 12.5641 21.4972 12.5001C21.5167 12.4361 21.6777 12.2095 21.7495 12.2142C21.8213 12.2189 21.9116 12.3215 21.976 12.3534C22.0404 12.3853 22.4696 12.6216 22.6 12.6577C22.7304 12.6938 23.0583 12.8127 23.0583 12.8127L23.4468 12.9181C23.4468 12.9181 22.9033 12.728 22.7794 12.6666C22.6484 12.5982 22.5115 12.5416 22.3715 12.4978C22.2485 12.4614 21.8654 12.2281 21.8082 12.1571C21.7511 12.086 21.6894 11.8005 21.6894 11.8005C21.6685 11.7159 21.6664 11.6318 21.6831 11.5528C21.7124 11.4446 21.7962 11.0848 21.7962 11.0848Z" fill="#634630"/>
<path d="M25.4224 10.2559C25.4224 10.2559 25.0205 10.4068 24.9484 10.4248C24.8763 10.4427 24.3325 10.6738 24.2834 10.6857C24.2344 10.6976 23.5459 11.0122 23.4424 10.9983C23.3144 11.0014 23.1854 11.0201 23.0577 11.0539C23.0577 11.0539 23.5023 11.0921 23.5439 11.0485C23.5855 11.005 24.2178 10.7453 24.2326 10.7398C24.2473 10.7343 24.6434 10.5828 24.6937 10.5623C24.744 10.5417 25.4224 10.2559 25.4224 10.2559Z" fill="#634630"/>
<path d="M22.5111 11.0396C22.5111 11.0396 22.5427 11.0147 22.439 11.0039C22.3353 10.993 21.7153 10.8928 21.7153 10.8928C21.7153 10.8928 20.5111 10.7263 20.4739 10.72L19.3727 10.5413L20.9927 10.7573L22.3539 10.9432C22.542 10.961 22.7316 10.9865 22.9219 11.0199C22.9666 11.0365 23.0124 11.0479 23.0576 11.0537C23.0576 11.0537 22.5752 10.9654 22.5111 11.0396Z" fill="#634630"/>
<path d="M28.058 11.5612L29.4291 12.2404L29.444 12.2427C29.5042 12.2524 29.7425 12.291 29.9608 12.316C30.0869 12.3361 30.2126 12.3418 30.3346 12.3327C30.4874 12.2995 31.2158 11.8125 31.2158 11.8125L28.5855 10.8722L28.058 11.5612Z" fill="#322711"/>
<path d="M28.9693 11.0464C28.9693 11.0464 28.4321 11.7718 28.1944 11.6281C27.9568 11.4843 27.0145 10.7933 27.0145 10.7933L26.86 10.0037L29.1879 10.1513L28.9693 11.0464Z" fill="#644F2C"/>
<path d="M30.6504 9.56363C30.8715 9.84378 31.5063 10.5465 31.3669 11.1677L31.2275 11.7889C31.2275 11.7889 28.6999 11.5377 28.5775 11.0603C28.455 10.5828 28.8659 9.8905 29.0113 9.79408C29.1567 9.69765 30.1995 9.39825 30.5303 9.5621C30.5573 9.57329 30.6338 9.54661 30.6504 9.56363Z" fill="#3D291B"/>
<path d="M30.9392 9.72077C30.9392 9.72077 30.3684 9.25349 28.7961 9.41409C28.1358 9.48201 26.7379 10.2508 26.7379 10.2508L29.7051 10.1881L30.9392 9.72077Z" fill="#745B43"/>
<path d="M31.2239 11.7957L31.1446 11.5617C31.1744 11.5463 31.1967 11.5246 31.2099 11.4981C31.223 11.4715 31.2268 11.4406 31.2209 11.4076C31.2124 11.3682 31.193 11.3274 31.164 11.2877C31.135 11.2481 31.097 11.2104 31.0524 11.1771L30.9497 11.024L31.0167 11.2491L31.1296 11.3234L31.1469 11.4386L31.0208 11.543L31.107 11.7584L31.2239 11.7957Z" fill="#44331C"/>
<path d="M31.2158 11.8125L30.8866 12.1382L30.7629 12.1483L30.5856 12.3326L30.5056 12.2929L30.2662 12.4925L30.1665 12.6056L30.2508 12.4353L30.4562 12.2742L30.3805 12.292L30.3031 12.3298L30.444 12.2244L30.562 12.2701L30.7561 12.0793L30.8471 12.0829L31.0769 11.7817L31.2158 11.8125Z" fill="#675943"/>
<path d="M30.163 12.4763C30.1601 12.4156 30.1757 12.3613 30.2089 12.3164C30.2486 12.2744 30.2998 12.2395 30.3611 12.2126L30.3226 12.1213L30.3429 12.0361C30.3429 12.0361 30.188 12.0934 30.1666 12.0695C30.1451 12.0456 30.0842 12.0936 30.0842 12.0936L30.018 12.2272L29.8334 12.2831L29.6395 12.3441C29.7 12.3584 29.9425 12.424 30.163 12.4763Z" fill="#675943"/>
<path d="M28.8811 9.99961C28.8811 9.99961 28.7412 10.2822 28.7547 10.4252C28.7683 10.5683 28.8342 10.7662 28.8054 10.7993C28.7765 10.8324 28.6144 11.0344 28.5847 11.0768C28.4799 11.2104 28.3589 11.333 28.2233 11.443C28.1466 11.4775 28.1081 11.5503 28.0579 11.5612C28.1564 11.5256 28.2443 11.4751 28.3182 11.4117C28.3812 11.3346 28.6416 11.1098 28.6566 11.0621C28.6715 11.0144 28.7916 10.8447 28.8457 10.8483C28.8998 10.8519 28.9672 10.9288 29.0151 10.9525C29.1663 11.0379 29.3222 11.1151 29.4817 11.1837C29.5789 11.2105 29.8253 11.2997 29.8253 11.2997L30.1173 11.3796C30.1173 11.3796 29.7078 11.2386 29.6166 11.1896C29.5175 11.1373 29.4137 11.0943 29.3075 11.0616C29.2396 11.0509 29.1723 11.0288 29.1094 10.9965C29.0466 10.9641 28.9896 10.9223 28.9419 10.8734C28.8941 10.8246 28.8567 10.7698 28.8317 10.7123C28.8067 10.6548 28.7948 10.5957 28.7966 10.5388C28.7808 10.4755 28.7791 10.4126 28.7915 10.3535C28.8231 10.2696 28.8811 9.99961 28.8811 9.99961Z" fill="#634630"/>
<path d="M30.9451 9.70898C30.9451 9.70898 30.6785 9.80651 30.6295 9.82159C30.5806 9.83667 30.2198 9.98778 30.1852 9.996C30.1506 10.0042 29.6944 10.2134 29.6253 10.2032C29.5398 10.2057 29.4538 10.2183 29.3686 10.241C29.3686 10.241 29.6671 10.262 29.6971 10.2388C29.7271 10.2156 30.1461 10.0375 30.1566 10.0338C30.1672 10.0302 30.4272 9.92816 30.4644 9.91485L30.9451 9.70898Z" fill="#634630"/>
<path d="M28.9666 10.298C28.9666 10.298 28.9925 10.2702 28.9181 10.274C28.8438 10.2778 28.4028 10.2657 28.4028 10.2657C28.4028 10.2657 27.5424 10.271 27.5211 10.272L26.7377 10.2505L27.8953 10.2371L28.8682 10.2307C29.0034 10.222 29.1387 10.2205 29.2735 10.2262C29.304 10.236 29.336 10.2409 29.3684 10.2407C29.3684 10.2407 29.0227 10.2203 28.9666 10.298Z" fill="#634630"/>
<path d="M54.6302 34.0043L56.2831 34.823L56.3012 34.825C56.3752 34.8351 56.6666 34.8729 56.934 34.8941C57.1336 34.91 57.3183 34.9161 57.3938 34.8964C57.5833 34.8437 58.5063 34.166 58.5063 34.166L55.3157 33.0711L54.6302 34.0043Z" fill="#322711"/>
<path d="M55.4963 33.1424C55.4963 33.1424 54.8479 34.1496 54.6559 34.0161C54.4639 33.8825 53.7187 33.2164 53.7187 33.2164L53.7315 32.2682L55.8796 31.9855L55.4963 33.1424Z" fill="#644F2C"/>
<path d="M57.5761 31.948C57.8679 32.2357 58.6905 32.9682 58.6236 33.5126L58.5594 34.0583C58.5594 34.0583 55.6593 33.4591 55.451 33.0069C55.2428 32.5546 55.6064 31.9843 55.7567 31.9195C55.896 31.8589 57.046 31.7292 57.445 31.9268C57.4737 31.9411 57.5558 31.9279 57.5761 31.948Z" fill="#3D291B"/>
<path d="M57.7888 32.065C57.7888 32.065 57.2037 31.6207 55.6884 31.6567C55.0496 31.6703 53.7427 32.2464 53.7427 32.2464L56.6191 32.3885L57.7888 32.065Z" fill="#745B43"/>
<path d="M57.9909 34.3184L57.9897 34.0572C58.0177 34.0308 58.0413 33.9988 58.0589 33.9633C58.0765 33.9277 58.0877 33.8896 58.0917 33.8513C58.0948 33.8065 58.0898 33.7629 58.0769 33.7233C58.0639 33.6837 58.0434 33.6489 58.0166 33.621L57.9749 33.4633L57.9691 33.7169L58.0384 33.776L58.0213 33.9099L57.8927 34.0701L57.9042 34.3075L57.9909 34.3184Z" fill="#44331C"/>
<path d="M57.9785 34.3442L57.7576 34.5618L57.675 34.5691L57.5564 34.6921L57.5029 34.6656L57.343 34.7998L57.2758 34.8753L57.3325 34.761L57.4698 34.6534L57.4191 34.6652L57.3673 34.6907L57.4617 34.6201L57.5406 34.6506L57.6701 34.5227L57.7309 34.5254L57.8852 34.3235L57.9785 34.3442Z" fill="#675943"/>
<path d="M56.8103 34.835C56.8404 34.7304 56.884 34.6273 56.9391 34.5309C56.9988 34.4349 57.0657 34.3456 57.1382 34.2652L57.1508 34.1263L57.2154 33.9659C57.2154 33.9659 57.0402 34.1493 57.0329 34.1183C57.0256 34.0874 56.9434 34.2045 56.9434 34.2045L56.8098 34.4741L56.6089 34.6678L56.3949 34.8782C56.4415 34.8757 56.6328 34.8606 56.8103 34.835Z" fill="#675943"/>
<path d="M55.3656 32.6105C55.3656 32.6105 55.2404 32.8633 55.2525 32.9912C55.2646 33.1191 55.327 33.2979 55.2974 33.3246C55.2679 33.3514 55.1251 33.5351 55.1013 33.571C55.0774 33.6069 54.8469 33.869 54.7782 33.8992C54.7096 33.9293 54.675 33.9949 54.6302 34.0045C54.6302 34.0045 54.8063 33.9385 54.8625 33.8704C54.9187 33.8023 55.1523 33.601 55.1654 33.5582C55.1784 33.5154 55.2862 33.3636 55.3343 33.3668C55.3824 33.3699 55.4429 33.4386 55.486 33.46C55.5292 33.4813 55.8166 33.6396 55.9039 33.6638C55.9912 33.6879 56.2108 33.7675 56.2108 33.7675L56.4709 33.8381C56.4709 33.8381 56.107 33.7108 56.024 33.6697C55.9363 33.6239 55.8446 33.586 55.7509 33.5567C55.6685 33.5323 55.412 33.3761 55.3737 33.3285C55.3354 33.2809 55.2941 33.0898 55.2941 33.0898C55.2801 33.0331 55.2787 32.9768 55.2899 32.9239C55.3095 32.8514 55.3656 32.6105 55.3656 32.6105Z" fill="#634630"/>
<path d="M57.7937 32.0552C57.7937 32.0552 57.5246 32.1563 57.4763 32.1683C57.4281 32.1803 57.0639 32.3351 57.031 32.343C56.9982 32.351 56.5371 32.5616 56.4679 32.5523C56.3821 32.5544 56.2957 32.5669 56.2102 32.5896C56.2102 32.5896 56.5079 32.6151 56.5358 32.586C56.5637 32.5568 56.9871 32.3829 56.997 32.3793C57.0069 32.3756 57.2721 32.2741 57.3058 32.2604C57.3395 32.2466 57.7937 32.0552 57.7937 32.0552Z" fill="#634630"/>
<path d="M55.8443 32.5799C55.8443 32.5799 55.8654 32.5633 55.7959 32.556C55.7265 32.5487 55.3114 32.4816 55.3114 32.4816C55.3114 32.4816 54.505 32.3701 54.4801 32.3659L53.7427 32.2462L54.8275 32.3909L55.739 32.5154C55.8649 32.5273 55.9919 32.5444 56.1193 32.5667C56.1493 32.5778 56.1799 32.5855 56.2102 32.5894C56.2102 32.5894 55.8871 32.5302 55.8443 32.5799Z" fill="#634630"/>
<path d="M59.5585 32.9289L60.4767 33.3837L60.4866 33.3852C60.5269 33.3918 60.6865 33.4176 60.8327 33.4343C60.9171 33.4478 61.0013 33.4516 61.083 33.4455C61.1853 33.4233 61.6731 33.0972 61.6731 33.0972L59.9117 32.4675L59.5585 32.9289Z" fill="#322711"/>
<path d="M60.1688 32.5839C60.1688 32.5839 59.809 33.0697 59.6499 32.9734C59.4908 32.8772 58.8598 32.4145 58.8598 32.4145L58.7563 31.8857L60.3151 31.9846L60.1688 32.5839Z" fill="#644F2C"/>
<path d="M61.2945 31.5912C61.4426 31.7788 61.8677 32.2494 61.7743 32.6654L61.681 33.0813C61.681 33.0813 59.9884 32.9131 59.9064 32.5934C59.8244 32.2737 60.0995 31.8101 60.1969 31.7455C60.2943 31.681 60.9926 31.4805 61.2141 31.5902C61.2322 31.5977 61.2834 31.5798 61.2945 31.5912Z" fill="#3D291B"/>
<path d="M61.4878 31.6964C61.4878 31.6964 61.1055 31.3835 60.0527 31.491C59.6105 31.5365 58.6745 32.0513 58.6745 32.0513L60.6614 32.0093L61.4878 31.6964Z" fill="#745B43"/>
<path d="M61.6785 33.086L61.6254 32.9293C61.6454 32.919 61.6603 32.9045 61.6692 32.8867C61.678 32.8689 61.6805 32.8483 61.6765 32.8261C61.6709 32.7998 61.6579 32.7724 61.6385 32.7459C61.619 32.7193 61.5936 32.6941 61.5637 32.6718L61.4949 32.5693L61.5398 32.72L61.6154 32.7698L61.627 32.8469L61.5426 32.9168L61.6003 33.0611L61.6785 33.086Z" fill="#44331C"/>
<path d="M61.6731 33.0972L61.4527 33.3152L61.3698 33.3221L61.2511 33.4454L61.1975 33.4189L61.0372 33.5525L60.9704 33.6283L61.0269 33.5142L61.1644 33.4063L61.1137 33.4183L61.0619 33.4436L61.1563 33.373L61.2352 33.4036L61.3653 33.2758L61.4262 33.2782L61.58 33.0765L61.6731 33.0972Z" fill="#675943"/>
<path d="M60.968 33.5415C60.9661 33.5009 60.9765 33.4645 60.9987 33.4344C61.0253 33.4063 61.0596 33.383 61.1007 33.3649L61.0749 33.3038L61.0885 33.2468C61.0885 33.2468 60.9847 33.2851 60.9704 33.2691C60.956 33.2532 60.9153 33.2852 60.9153 33.2852L60.8709 33.3747L60.7473 33.4121L60.6174 33.453C60.6579 33.4626 60.8203 33.5065 60.968 33.5415Z" fill="#675943"/>
<path d="M60.1099 31.8832C60.1099 31.8832 60.0161 32.0724 60.0252 32.1682C60.0343 32.264 60.0784 32.3966 60.0591 32.4187C60.0398 32.4409 59.9313 32.5762 59.9114 32.6045C59.8412 32.694 59.7601 32.7761 59.6694 32.8497C59.618 32.8729 59.5922 32.9216 59.5586 32.9289C59.6246 32.905 59.6835 32.8712 59.7329 32.8288C59.7751 32.7772 59.9495 32.6266 59.9595 32.5947C59.9695 32.5627 60.0499 32.4491 60.0861 32.4515C60.1224 32.4539 60.1675 32.5054 60.1996 32.5213C60.3008 32.5785 60.4052 32.6302 60.512 32.6761C60.5771 32.6941 60.7421 32.7538 60.7421 32.7538L60.9376 32.8073C60.9376 32.8073 60.6634 32.7129 60.6024 32.68C60.536 32.6451 60.4665 32.6163 60.3954 32.5943C60.3499 32.5872 60.3048 32.5724 60.2627 32.5507C60.2207 32.5291 60.1825 32.5011 60.1505 32.4684C60.1186 32.4357 60.0935 32.3989 60.0768 32.3604C60.0601 32.3219 60.0521 32.2824 60.0533 32.2443C60.0427 32.2019 60.0416 32.1598 60.0499 32.1202C60.071 32.064 60.1099 31.8832 60.1099 31.8832Z" fill="#634630"/>
<path d="M61.4917 31.6885C61.4917 31.6885 61.3132 31.7538 61.2804 31.7639C61.2476 31.774 61.006 31.8752 60.9829 31.8807C60.9597 31.8862 60.6542 32.0262 60.6079 32.0194C60.5507 32.0211 60.4931 32.0296 60.4361 32.0447C60.4361 32.0447 60.6359 32.0588 60.656 32.0433C60.6761 32.0277 60.9567 31.9085 60.9637 31.906C60.9708 31.9036 61.1449 31.8352 61.1698 31.8263L61.4917 31.6885Z" fill="#634630"/>
<path d="M60.167 32.0828C60.167 32.0828 60.1843 32.0642 60.1345 32.0667C60.0847 32.0692 59.7894 32.0612 59.7894 32.0612C59.7894 32.0612 59.2133 32.0647 59.199 32.0654L58.6745 32.051L59.4496 32.042L60.1011 32.0377C60.1916 32.0319 60.2822 32.0309 60.3725 32.0347C60.3929 32.0412 60.4144 32.0445 60.436 32.0444C60.436 32.0444 60.2046 32.0307 60.167 32.0828Z" fill="#634630"/>
<path d="M84.707 34.1186L81.401 31.5338M57.6478 37.354L52.3536 40.2952L41.7652 36.1775L38.2358 37.9422M50.883 20.0008L38.8671 13.9335L41.177 10.883L41.7652 9.11829L41.177 6.47119M35.2004 12.4668L35.8828 20.0008L38.2358 23.2361M72.9421 20.8831L75.5892 18.5302L72.9421 15.2948L70.5891 8.23592M83.2364 20.8831L89.7071 17.6478V13.236L92.6483 12.0595M95.3346 10.883H97.5346L101.201 13.9335H102.668M94.6012 25.667L98.2679 20.0008L100.468 18.3336L104.135 19.0669L106.335 10.883" stroke="#4E3A3A" stroke-width="0.2" stroke-linejoin="round"/>
<path d="M22.7336 2.93354L22.0003 2.2002H19.0669L13.2002 7.3336L9.53347 4.40022L4.40006 2.93354" stroke="#514E4E" stroke-width="0.2" stroke-linejoin="round"/>
</g>
</svg>
