<svg width="382" height="135" viewBox="0 0 382 135" fill="none" xmlns="http://www.w3.org/2000/svg">
<g style="mix-blend-mode:multiply" opacity="0.6">
<path fill-rule="evenodd" clip-rule="evenodd" d="M212.465 33.6124C164.675 31.8498 171.882 -0.333878 145.321 10.5257C124.509 19.0191 83.1676 -6.0696 72.6473 1.78487C61.9596 9.75691 -41.0139 55.9425 20.7146 107.588C32.8968 117.786 57.3783 85.8973 107.572 84.042C119.804 83.5906 145.321 140.031 298.484 133.559C342.129 137.674 368.757 113.829 370.984 103.059C376.122 78.169 260.255 35.375 212.465 33.6124Z" fill="#878077"/>
<path d="M249.84 62.5903C253.189 70.4048 261.851 93.6818 245.653 89.1037C229.456 84.5257 198.208 98.8719 213.558 107.244C228.908 115.617 298.68 107.244 306.355 107.244C314.03 107.244 318.107 98.9463 310.541 89.1037C302.976 79.2612 282.007 84.2056 276.353 66.2366C270.699 48.2677 245.653 52.8222 249.84 62.5903Z" fill="#5A5A5E"/>
<path fill-rule="evenodd" clip-rule="evenodd" d="M205.559 64.2195C195.261 46.7743 192.126 38.1549 172.843 31.2475C162.211 27.4478 114.407 28.3963 95.5039 15.647C76.6009 2.89771 42.91 26.6457 43.7078 48.0843C44.3484 65.2717 80.4748 63.955 95.9989 65.8991C125.568 69.5968 126.416 49.3354 163.952 72.4405C201.489 95.5455 215.857 81.6646 205.559 64.2195Z" fill="#746C6C"/>
<path fill-rule="evenodd" clip-rule="evenodd" d="M337.244 42.2675C347.582 59.6887 326.744 57.6448 346.043 64.5071C356.683 68.2819 379.42 66.5944 380.742 59.147C382.064 51.6996 379.194 43.3654 355.24 16.6507C331.287 -10.0641 326.906 24.8463 337.244 42.2675Z" fill="#878077"/>
<path fill-rule="evenodd" clip-rule="evenodd" d="M181.91 43.5158C162.954 29.4297 135.608 33.6578 113.833 27.0578C91.646 20.3471 68.6512 33.1919 89.3516 35.6403C102.891 37.2421 120.815 37.943 133.587 43.4481C142.779 47.4112 162.641 68.6288 180.016 66.2368C197.392 63.8449 184.114 51.2008 181.91 43.5158Z" fill="#5A5A5E"/>
</g>
</svg>
