<svg width="384" height="135" viewBox="0 0 384 135" fill="none" xmlns="http://www.w3.org/2000/svg">
<g opacity="0.5">
<path fill-rule="evenodd" clip-rule="evenodd" d="M211.473 33.5533C163.684 31.7907 170.89 -0.39296 144.329 10.4666C123.517 18.96 82.1759 -6.12868 71.6556 1.72579C60.9679 9.69783 -42.0056 55.8834 19.7229 107.529C31.9051 117.727 56.3866 85.8382 106.581 83.9829C118.812 83.5316 144.329 139.972 297.492 133.5C341.137 137.615 367.766 113.77 369.992 103C375.13 78.1099 259.263 35.3159 211.473 33.5533Z" fill="#3B4C71"/>
<path d="M248.848 62.5312C252.197 70.3457 260.859 93.6227 244.662 89.0447C228.464 84.4666 197.217 98.8128 212.566 107.185C227.916 115.558 297.688 107.185 305.363 107.185C313.038 107.185 317.115 98.8872 309.55 89.0447C301.984 79.2021 281.015 84.1465 275.361 66.1775C269.707 48.2086 244.662 52.7632 248.848 62.5312Z" fill="#223152"/>
<path fill-rule="evenodd" clip-rule="evenodd" d="M204.568 64.1604C194.27 46.7153 191.134 38.0958 171.851 31.1884C161.219 27.3887 113.415 28.3372 94.5122 15.5879C75.6092 2.83863 41.9183 26.5866 42.7161 48.0252C43.3567 65.2127 79.4831 63.896 95.0072 65.8401C124.576 69.5377 125.424 49.2763 162.961 72.3814C200.497 95.4864 214.865 81.6055 204.568 64.1604Z" fill="#35405F"/>
<path fill-rule="evenodd" clip-rule="evenodd" d="M339.426 41.5709C349.764 58.9922 328.926 56.9483 348.225 63.8105C358.865 67.5854 381.602 65.8979 382.924 58.4505C384.246 51.0031 381.376 42.6689 357.422 15.9541C333.469 -10.7607 329.088 24.1497 339.426 41.5709Z" fill="#3B4C71"/>
<path fill-rule="evenodd" clip-rule="evenodd" d="M180.919 43.4567C161.962 29.3707 134.616 33.5987 112.841 26.9987C90.6543 20.288 67.6595 33.1328 88.3599 35.5812C101.899 37.183 119.824 37.884 132.596 43.389C141.788 47.3521 161.649 68.5697 179.024 66.1777C196.4 63.7858 183.123 51.1417 180.919 43.4567Z" fill="#223152"/>
</g>
</svg>
