<svg width="454" height="36" viewBox="0 0 454 36" fill="none" xmlns="http://www.w3.org/2000/svg">
<path d="M441.072 35.691C441.181 35.1287 441.297 34.568 441.397 34.0058C441.471 33.5976 441.523 33.1848 441.585 32.7735C441.173 32.832 440.761 32.8767 440.352 32.9537C439.755 33.0662 439.162 33.2002 438.567 33.3249C438.53 33.2233 438.493 33.1201 438.458 33.0169C438.824 32.7719 439.182 32.5131 439.558 32.2836C441.893 30.8618 441.974 29.9622 439.608 28.5481C434.604 25.5551 429.288 24.081 423.517 26.1097C419.491 27.5238 415.393 27.7163 411.22 27.2234C409.407 27.0082 407.662 26.4028 406.105 25.4489C403.994 24.1734 403.705 20.8477 405.914 19.3673C406.316 19.1139 406.78 18.9769 407.255 18.9715C414.135 18.9468 421.014 18.9576 427.897 18.953C429.808 18.953 431.684 18.7127 433.482 18.0287C437.72 16.4144 439.903 11.7716 438.299 7.79428C437.663 6.21537 436.061 4.52092 434.411 3.78923C434.69 4.09731 434.845 4.27446 435.006 4.44698C436.785 6.38019 437.526 8.62918 437.022 11.2248C436.541 13.7094 435.001 15.3546 432.649 16.134C431.318 16.5969 429.925 16.8566 428.517 16.9042C422.742 16.989 416.964 16.9412 411.191 16.9412C411.094 16.9412 410.995 16.9243 410.82 16.9089C411.856 15.484 413.275 14.9263 414.891 14.6953C416.818 14.4211 418.665 14.6136 420.452 15.4331C421.153 15.7485 421.887 15.9876 422.639 16.1464C425.016 16.6593 428.376 14.8293 429.084 12.625C429.201 12.2218 429.156 11.7891 428.958 11.4189C428.222 10.2528 426.541 9.72441 425.216 10.1157C424.643 10.2867 424.381 10.5778 424.656 11.1832C424.782 11.4611 424.815 11.7721 424.751 12.0704L423.494 11.0907L422.689 12.2676L422.462 12.1983C422.405 11.9444 422.365 11.6871 422.342 11.4281C422.319 10.7226 421.932 10.5039 421.278 10.5547C420.801 10.5988 420.32 10.5432 419.867 10.3914C420.197 10.2794 420.52 10.1477 420.834 9.99706C420.988 9.91079 421.224 9.68128 421.196 9.57653C421.158 9.47705 421.1 9.3864 421.025 9.31012C420.951 9.23385 420.862 9.17354 420.763 9.13289C420.509 9.03431 420.21 9.05279 419.936 8.99734C419.662 8.94188 419.421 8.86332 419.012 8.75241C419.967 7.88054 421.168 8.38118 422.237 7.71418L420.456 6.85772C421.279 6.52037 421.997 6.60663 422.613 7.07645C423.44 7.70186 424.244 7.74807 425.199 7.34448C425.87 7.04251 426.603 6.90576 427.338 6.9457C428.072 6.98563 428.786 7.20109 429.42 7.574C429.622 7.68645 429.828 7.7912 430.036 7.88209C430.84 8.23792 431.198 8.10698 431.577 7.32754C432.388 5.67469 432.028 4.60102 430.387 3.71221C428.93 2.92352 427.339 2.67398 425.723 2.53688C418.295 1.9007 410.849 2.05936 403.409 2.02393C402.264 2.02393 401.121 2.02393 399.763 2.02393C400.561 1.3631 401.171 0.827034 401.819 0.341806C402.038 0.214322 402.29 0.155809 402.543 0.173903C409.498 0.198549 416.456 0.173901 423.409 0.292512C427.086 0.35875 430.725 0.862462 434.172 2.27655C437.309 3.56279 439.61 5.70858 440.933 8.8356C441.2 9.46562 441.44 9.64585 442.111 9.28385C443.392 8.59375 444.73 8.62456 446.018 9.31312C446.469 9.55556 446.901 9.83101 447.312 10.1372C448.948 11.3588 450.644 12.3061 452.842 11.5991L451.727 12.4894L454 12.987V13.141L451.901 13.5446L452.879 15.41L452.706 15.6041L450.678 14.8709C450.554 15.4778 450.444 16.0262 450.334 16.5746L450.129 16.5992C449.986 16.2911 449.821 15.9831 449.706 15.675C449.533 15.1959 449.274 15.0788 448.848 15.3931C448.464 15.6765 448.077 15.9476 447.683 16.2249L447.495 16.0801C447.756 15.6426 447.973 15.1713 448.29 14.7769C448.709 14.2563 448.598 13.9051 448.127 13.4953C447.01 12.5279 444.063 12.3462 442.929 13.3043C442.621 13.56 442.441 14.1531 442.477 14.5674C442.712 17.2573 442.127 19.9554 440.799 22.3064C440.456 22.9303 440.613 23.3092 441.156 23.6373C441.437 23.8172 441.726 23.9823 442.024 24.1318C443.011 24.5939 443.613 25.3641 444.014 26.3561C444.759 28.2046 445.299 28.4619 447.313 28.2786C448.118 28.2062 448.942 28.3386 449.758 28.3772L449.767 28.6437L447.121 29.4708L449.777 30.8865L449.707 31.1792H446.534C446.588 31.4255 446.658 31.6679 446.745 31.9047C446.944 32.3191 447.207 32.7042 447.361 33.137C447.495 33.5144 447.515 33.9334 447.574 34.3354C447.203 34.2245 446.804 34.1645 446.463 33.9888C446.035 33.767 445.662 33.442 445.255 33.174C444.31 32.5578 444.114 32.6025 443.407 33.4374C442.749 34.2076 442.05 34.9454 441.369 35.6972L441.072 35.691Z" fill="white"/>
<path d="M180.016 12.391L175.799 25.0223H176.646C181.804 25.0223 186.963 25.0223 192.124 25.0223C193.279 25.0223 193.544 24.8359 193.912 23.7438C195.311 19.6124 196.706 15.4795 198.099 11.3451C198.446 10.3192 198.241 10.0665 197.05 10.0665H161.775C161.85 9.77694 161.892 9.55974 161.961 9.35178C162.925 6.47277 163.908 3.59837 164.849 0.711658C165.003 0.232592 165.227 0.0847168 165.717 0.0847168C179.347 0.09704 192.978 0.105251 206.608 0.109359C207.531 0.123045 208.449 0.238243 209.347 0.452871C212.517 1.17224 214.016 3.37964 213.275 6.53285C212.74 8.80956 211.946 11.0277 211.209 13.2536C209.757 17.6392 208.258 22.0077 206.788 26.3871C204.915 31.968 200.916 34.9995 194.995 35.0334C183.058 35.1012 171.119 35.0627 159.185 35.0657C159.059 35.0657 158.931 35.0457 158.723 35.0272C158.816 34.7346 158.894 34.4742 158.98 34.217C161.319 27.2215 163.654 20.226 165.986 13.2305C166.193 12.6036 166.458 12.3679 167.157 12.3756C171.134 12.4156 175.115 12.3956 179.093 12.3956L180.016 12.391Z" fill="white"/>
<path d="M126.682 12.391L125.835 15.0096H141.937C143.283 15.0096 143.459 14.8849 143.878 13.6371C144.169 12.7668 144.463 11.8965 144.737 11.0185C144.938 10.3823 144.757 10.1235 144.089 10.0649C143.833 10.0418 143.576 10.0649 143.319 10.0649H107.735C107.805 9.78767 107.845 9.5751 107.913 9.37176C108.875 6.49275 109.857 3.6199 110.795 0.733178C110.959 0.226385 111.195 0.0800451 111.719 0.0815855C125.45 0.0949357 139.182 0.103667 152.914 0.107774C153.862 0.116802 154.806 0.231501 155.728 0.449744C158.963 1.19992 160.503 3.39346 159.644 6.58209C158.715 10.0418 157.397 13.4015 156.25 16.8058C156.211 16.9003 156.165 16.9919 156.113 17.0799C154.265 20.6229 151.25 22.4883 147.362 23.0875C147.063 23.1337 146.766 23.1923 146.378 23.2631C147.074 24.6279 147.727 25.9219 148.391 27.2112C149.559 29.4817 150.73 31.7513 151.905 34.0198C152.386 34.944 152.318 35.0565 151.261 35.0565C146.666 35.0565 142.073 35.0472 137.478 35.0703C136.938 35.0703 136.666 34.8978 136.435 34.4249C134.74 30.9574 133.024 27.5069 131.342 24.038C131.074 23.4834 130.768 23.2477 130.124 23.2677C128.045 23.3109 125.967 23.3109 123.888 23.2677C123.243 23.2523 122.999 23.4988 122.81 24.0641C121.691 27.4823 120.525 30.885 119.421 34.3063C119.23 34.8947 118.974 35.0857 118.343 35.0765C114.313 35.0441 110.283 35.0595 106.254 35.0595H105.385C105.693 34.1122 105.972 33.2449 106.26 32.3823C108.398 25.9973 110.547 19.6154 112.663 13.2228C112.871 12.5927 113.136 12.3617 113.831 12.3679C117.808 12.4079 121.787 12.3879 125.766 12.3879L126.682 12.391Z" fill="white"/>
<path d="M70.8448 12.3923C70.5613 13.2426 70.3133 13.9897 70.0622 14.7352C69.0281 17.8068 67.995 20.8779 66.9629 23.9484C66.681 24.7925 66.832 25.0144 67.7331 25.0159C73.4573 25.0159 79.1799 25.0159 84.904 25.0267C85.722 25.0267 86.2088 24.6647 86.4568 23.9253C87.8657 19.7149 89.2736 15.5044 90.6805 11.294C91.0056 10.3235 90.8038 10.0617 89.7378 10.0617C82.6027 10.0617 75.468 10.0617 68.3339 10.0617H57.9423C58.5585 5.39423 62.4095 1.38918 67.2186 0.454156C68.3748 0.227735 69.5496 0.110659 70.7277 0.104481C80.0728 0.0767538 89.4179 0.079324 98.763 0.112186C100.039 0.112291 101.31 0.286947 102.539 0.631301C105.23 1.40921 106.521 3.49953 105.914 6.23529C105.435 8.39186 104.694 10.4945 104 12.5987C102.434 17.3478 100.855 22.0907 99.2252 26.8182C97.5492 31.6858 94.0694 34.3477 88.9568 34.9068C87.9877 35.008 87.0137 35.0569 86.0393 35.0532C76.8523 35.0593 67.6643 35.0501 58.4753 35.0254C57.4765 35.0041 56.4841 34.8592 55.5208 34.5941C52.5078 33.8239 51.1091 31.6674 51.7823 28.6559C52.2136 26.7227 52.896 24.8418 53.5152 22.9564C54.6058 19.6373 55.7221 16.326 56.8641 13.0223C56.9503 12.7728 57.2553 12.4185 57.4617 12.4169C61.875 12.383 66.2913 12.3923 70.8448 12.3923Z" fill="white"/>
<path d="M237.53 10.0618C238.428 6.85311 239.498 3.90015 242.364 2.00546C244.42 0.65144 246.715 0.0999719 249.141 0.0953507C258.715 0.0799467 268.29 0.0825168 277.865 0.103056C278.762 0.110281 279.654 0.220892 280.526 0.4327C283.422 1.12896 284.723 3.12533 283.958 5.99048C283.192 8.85563 282.214 11.69 281.276 14.5274C279.098 21.1188 276.873 27.6871 274.707 34.2769C274.501 34.9023 274.218 35.0826 273.578 35.0779C269.573 35.0487 265.568 35.0625 261.563 35.0625H260.657L263.975 25.0145C263.617 24.996 263.369 24.9729 263.121 24.9729C257.781 24.9729 252.442 24.9821 247.1 24.9559C246.446 24.9559 246.185 25.1593 245.987 25.7847C245.002 28.8655 243.953 31.934 242.92 35.0271H229.148L236.706 12.414H250.483C250.039 13.7726 249.608 15.0912 249.149 16.5007C249.457 16.5191 249.699 16.5453 249.939 16.5453C255.331 16.5453 260.722 16.5453 266.114 16.5592C266.665 16.5592 266.918 16.4052 267.084 15.8676C267.546 14.3795 268.074 12.9161 268.567 11.4404C268.942 10.3159 268.758 10.0633 267.572 10.0633C257.895 10.0633 248.218 10.0633 238.54 10.0633L237.53 10.0618Z" fill="white"/>
<path d="M299.867 12.4033C299.713 12.8424 299.588 13.1458 299.485 13.4554C297.16 20.4006 294.84 27.3478 292.525 34.2971C292.337 34.8655 292.1 35.0873 291.459 35.0812C287.715 35.0442 283.967 35.0627 280.153 35.0627C280.221 34.7962 280.261 34.5821 280.33 34.3757C282.702 27.2898 285.072 20.2039 287.439 13.1181C287.622 12.5635 287.856 12.3818 288.448 12.3833C297.253 12.4049 306.057 12.4049 314.861 12.3833C315.457 12.3833 315.758 12.5373 315.998 13.1073C317.195 15.9817 318.446 18.833 319.68 21.692C319.789 21.9477 319.914 22.1972 320.105 22.6054C320.259 22.2049 320.377 21.9415 320.468 21.6689C322.791 14.7257 325.108 7.78058 327.42 0.833359C327.62 0.229521 327.882 1.37324e-06 328.545 0.00616299C331.984 0.0446731 335.424 0.0246471 338.865 0.0246471H339.739C339.651 0.3774 339.605 0.640811 339.52 0.893437C336.486 9.96128 333.449 19.0312 330.409 28.1031C329.229 31.6122 327.033 34.0922 323.232 34.8255C322.425 34.9733 321.606 35.0491 320.786 35.0519C318.45 35.0827 316.114 35.0873 313.778 35.0519C312.986 35.0346 312.197 34.9365 311.425 34.7592C309.923 34.4234 308.9 33.5115 308.294 32.0805C305.638 25.7997 302.966 19.5272 300.278 13.2629C300.175 13.0149 300.047 12.7761 299.867 12.4033Z" fill="white"/>
<path d="M49.8086 20.8925C49.0384 23.1461 48.3006 25.3935 47.5258 27.6287C46.1995 31.455 43.5577 33.8627 39.6004 34.8039C38.9529 34.9622 38.2891 35.0444 37.6225 35.0488C27.1765 35.0611 16.7305 35.056 6.28452 35.0334C5.3621 35.0216 4.4447 34.8953 3.55338 34.6575C0.752925 33.9335 -0.520986 31.9541 0.196842 29.1675C0.849974 26.6289 1.73725 24.1489 2.5552 21.6534C3.50717 18.7452 4.50227 15.8507 5.4604 12.944C5.58979 12.5558 5.74691 12.3771 6.20133 12.3787C10.4621 12.3987 14.7228 12.391 18.9867 12.3925C19.1099 12.3925 19.2332 12.4126 19.438 12.431C18.7926 14.3535 18.1595 16.2343 17.5295 18.1167C16.8804 20.0514 16.2335 21.9872 15.5886 23.924C15.2974 24.7974 15.4345 25.0146 16.3187 25.0146C22.2231 25.0223 28.1259 25.0146 34.0334 25.0285C34.5047 25.0285 34.7265 24.8744 34.8621 24.4354C35.1871 23.3879 35.5245 22.3435 35.9111 21.3176C35.9928 21.1004 36.307 20.8201 36.5165 20.8201C40.8527 20.7939 45.1905 20.8047 49.5283 20.8108C49.6244 20.828 49.7184 20.8554 49.8086 20.8925Z" fill="white"/>
<path d="M39.5574 10.0697H6.51416C7.79732 4.71367 10.3005 0.231095 17.9624 0.124807C28.1507 -0.0169099 38.342 0.0724362 48.5318 0.0986231C52.2719 0.107865 55.1355 3.81716 54.1758 7.49256C53.5704 9.80317 52.6986 12.0475 51.9453 14.3227H38.1756C38.6347 12.9086 39.0783 11.5407 39.5574 10.0697Z" fill="white"/>
<path d="M338.83 10.0138C339.787 7.17026 340.719 4.39291 341.654 1.61556C342.191 0.0166215 342.191 0.018158 343.895 0.018158H388.658C388.448 0.657426 388.272 1.20273 388.089 1.74649C387.217 4.33283 386.335 6.91609 385.48 9.50859C385.347 9.90755 385.172 10.0708 384.733 10.0708C369.541 10.0585 354.349 10.0539 339.157 10.057C339.047 10.0485 338.938 10.0341 338.83 10.0138Z" fill="white"/>
<path d="M368.15 12.442C367.432 14.5816 366.735 16.658 366.041 18.7345C364.296 23.9596 362.55 29.1851 360.804 34.4112C360.679 34.7855 360.596 35.0797 360.062 35.0767C355.776 35.0505 351.492 35.0628 347.207 35.0597C347.081 35.0516 346.956 35.0372 346.831 35.0166L348.653 29.5589C350.502 24.0443 352.343 18.5291 354.177 13.0134C354.308 12.6191 354.424 12.3742 354.947 12.3773C359.231 12.4019 363.517 12.3927 367.801 12.3942C367.875 12.3942 367.95 12.4142 368.15 12.442Z" fill="white"/>
<path d="M230.886 12.3907C230.256 14.2761 229.677 16.0137 229.096 17.7513C227.248 23.2675 225.399 28.779 223.569 34.3045C223.375 34.8929 223.118 35.0839 222.491 35.0747C218.436 35.0454 214.382 35.0593 210.322 35.0593H209.548C209.635 34.7512 209.693 34.517 209.772 34.2891C212.127 27.2494 214.48 20.2082 216.83 13.1655C217.016 12.6033 217.243 12.3676 217.891 12.3722C221.919 12.4107 225.949 12.3922 229.979 12.3922L230.886 12.3907Z" fill="white"/>
<path d="M314.619 10.0282H288.493C289.331 7.62518 289.879 5.16208 291.573 3.20422C293.422 1.07538 295.813 0.137275 298.579 0.0956843C301.27 0.0556338 303.971 0.0648762 306.657 0.0956843C309.17 0.121871 311.016 1.11543 311.936 3.61089C312.642 5.52253 313.524 7.36947 314.325 9.24722C314.418 9.4752 314.498 9.71089 314.619 10.0282Z" fill="white"/>
<path d="M235.018 0.015446C234.166 2.5679 233.368 4.9586 232.571 7.34931C232.32 8.09948 232.097 8.85891 231.801 9.59214C231.723 9.79085 231.433 10.0373 231.241 10.0389C226.829 10.0635 222.417 10.0573 217.896 10.0573C218.041 9.61524 218.162 9.23784 218.287 8.86353C219.184 6.17706 220.103 3.4983 220.96 0.799511C221.162 0.166405 221.467 -0.00303975 222.104 4.10558e-05C226.109 0.0293087 230.114 0.015446 234.12 0.015446H235.018Z" fill="white"/>
</svg>
