<svg width="484" height="138" viewBox="0 0 484 138" fill="none" xmlns="http://www.w3.org/2000/svg">
<path d="M110.315 134.311L473.948 112.749L478.028 32.9128L357.691 43.4022L359.73 6.68919L0.466826 32.9129L10.8038 92.9167L127.797 92.9167L110.315 134.311Z" fill="#074989"/>
<path d="M26.6346 90.4455L347.218 68.9082L357.061 0.667421L11.7949 36.6186L26.6346 90.4455Z" fill="white"/>
<path d="M123.426 125.278L455.883 115.372L481.176 33.7872L136.085 74.882L123.426 125.278Z" fill="white"/>
<path d="M24.6738 96.1549L14.1616 53.8918L20.1686 104.951L123.255 90.6476L121.11 121.969L130.334 85.9278L24.6738 96.1549Z" fill="white"/>
<path d="M458.874 118.435L466.54 87.7333L465.772 126.903L402.473 118.435L458.874 118.435Z" fill="white"/>
<path d="M206.403 6.80187L108.566 23.8724L199.972 14.0899L206.403 6.80187Z" fill="white"/>
<path d="M208.557 13.5949L215.174 5.88249L208.74 7.11203L202.695 14.2763L208.557 13.5949Z" fill="white"/>
<path d="M156.193 10.0542L126.772 19.1376L176.564 10.6269L156.193 10.0542Z" fill="white"/>
<path d="M320.709 121.782L188.985 125.858L287.671 126.931L320.709 121.782Z" fill="white"/>
<path d="M74.3179 43.5724C74.8547 43.4432 75.4631 43.3083 76.143 43.1677C76.8229 43.0271 77.5469 42.8974 78.3149 42.7785C79.0829 42.6597 79.8664 42.554 80.6653 42.4615C81.4928 42.3667 82.2929 42.2886 83.0655 42.227C84.3818 42.122 85.6093 42.1681 86.7481 42.3653C87.9132 42.5315 88.9191 42.8689 89.766 43.3773C90.6414 43.8834 91.3446 44.576 91.8754 45.4552C92.4326 46.3034 92.7614 47.3571 92.8618 48.6161C92.9371 49.5604 92.8527 50.4886 92.6087 51.4008C92.3624 52.2843 91.9661 53.0934 91.42 53.828C90.9025 54.5604 90.247 55.1886 89.4537 55.7126C88.689 56.2343 87.7973 56.6078 86.7786 56.833L86.7957 57.0476C87.3485 57.1187 87.9093 57.29 88.4781 57.5614C89.0446 57.8042 89.5618 58.1517 90.0298 58.6039C90.4955 59.0275 90.8834 59.5581 91.1934 60.1957C91.5011 60.8047 91.6869 61.5098 91.7508 62.311C91.8969 64.1423 91.6647 65.7446 91.0543 67.1179C90.4416 68.4626 89.5674 69.5978 88.4318 70.5234C87.2938 71.4205 85.9397 72.1332 84.3692 72.6615C82.7964 73.1613 81.123 73.4819 79.3489 73.6234C78.8911 73.6599 78.2902 73.7078 77.5462 73.7671C76.8309 73.8241 76.056 73.8571 75.2216 73.8661C74.3895 73.9036 73.5551 73.9126 72.7185 73.8929C71.8818 73.8732 71.1132 73.8049 70.4128 73.688L74.3179 43.5724ZM76.3664 68.721C76.4854 68.7691 76.6891 68.7961 76.9775 68.8019C77.2946 68.8054 77.6259 68.8078 77.9716 68.809C78.3436 68.7794 78.7167 68.764 79.091 68.763C79.4629 68.7333 79.7777 68.7082 80.0352 68.6877C80.7506 68.6306 81.4734 68.4866 82.2037 68.2556C82.9626 68.0223 83.6265 67.6814 84.1955 67.2329C84.7931 66.7821 85.2671 66.2259 85.6175 65.5645C85.9679 64.903 86.1066 64.1145 86.0336 63.1988C85.9765 62.4834 85.7724 61.9094 85.4211 61.4767C85.0698 61.0439 84.6264 60.7193 84.0908 60.5029C83.5529 60.2578 82.9372 60.1197 82.2436 60.0886C81.5763 60.0267 80.885 60.0242 80.1697 60.0812L77.4227 60.3003L76.3664 68.721ZM78.054 55.7577L79.8996 55.6105C80.3002 55.5786 80.7723 55.5409 81.316 55.4976C81.8574 55.4256 82.3118 55.3462 82.6792 55.2593C83.1874 55.1324 83.7197 54.946 84.276 54.7C84.861 54.4518 85.3675 54.1235 85.7957 53.715C86.2525 53.3042 86.6154 52.8001 86.8845 52.2027C87.1537 51.6053 87.254 50.8774 87.1856 50.019C87.0875 48.7886 86.6052 47.9775 85.7389 47.5859C84.9012 47.1919 83.8528 47.0452 82.5938 47.1455C81.8498 47.2049 81.1642 47.2739 80.537 47.3527C79.9097 47.4316 79.4267 47.5133 79.0879 47.5979L78.054 55.7577Z" fill="#074989"/>
<path d="M121.659 39.5816L127.239 39.1367L123.282 69.6884L117.702 70.1333L121.659 39.5816ZM99.5971 41.3407L105.177 40.8958L103.761 51.8505C104.128 51.7636 104.595 51.6545 105.16 51.523C105.726 51.3915 106.338 51.2995 106.996 51.2471C108.369 51.1375 109.601 51.2409 110.692 51.5571C111.809 51.8423 112.754 52.3141 113.526 52.9725C114.325 53.5999 114.949 54.3852 115.399 55.3284C115.846 56.2431 116.115 57.2727 116.206 58.4172C116.357 60.3058 116.178 62.0334 115.669 63.6002C115.158 65.1384 114.344 66.4847 113.227 67.6393C112.11 68.7938 110.701 69.7268 109.001 70.4383C107.299 71.1212 105.332 71.5516 103.1 71.7295C102.728 71.7592 102.356 71.7889 101.984 71.8185C101.612 71.8482 101.382 71.8521 101.294 71.8304C100.779 71.8714 100.219 71.8873 99.6131 71.878C99.0076 71.8687 98.3438 71.8496 97.6216 71.8208C96.928 71.7897 96.2739 71.7123 95.6593 71.5885L99.5971 41.3407ZM101.846 66.3006C102.461 66.4244 103.24 66.4486 104.185 66.3733C105.129 66.298 105.991 66.0997 106.772 65.7782C107.581 65.4545 108.267 65.0255 108.829 64.4912C109.389 63.9282 109.812 63.2753 110.099 62.5326C110.385 61.7899 110.49 60.9463 110.415 60.0021C110.217 57.5126 108.601 56.3888 105.568 56.6307C105.196 56.6603 104.741 56.7398 104.204 56.8689C103.665 56.9695 103.285 57.0719 103.063 57.176L101.846 66.3006Z" fill="#074989"/>
<path d="M133.275 38.6553L138.855 38.2104L150.787 37.259L150.089 42.5844L138.157 43.5358L137.326 49.9085C137.806 49.7839 138.385 49.6512 139.065 49.5106C139.745 49.37 140.414 49.2735 141.072 49.221C142.646 49.0955 143.994 49.2041 145.115 49.5466C146.265 49.8868 147.212 50.3872 147.956 51.0478C148.7 51.7084 149.267 52.4983 149.657 53.4175C150.076 54.3344 150.325 55.2936 150.405 56.2951C150.549 58.0978 150.363 59.7396 149.847 61.2205C149.36 62.6992 148.556 63.9871 147.434 65.0845C146.341 66.1795 144.957 67.0673 143.284 67.7479C141.608 68.3999 139.683 68.8126 137.508 68.986C137.05 69.0225 136.505 69.0515 135.874 69.0731C135.273 69.121 134.554 69.1351 133.717 69.1154C132.883 69.1244 132.076 69.1167 131.297 69.0925C130.546 69.066 129.893 69.0028 129.338 68.9031L133.275 38.6553ZM135.473 64.0513C135.766 64.1143 136.214 64.1361 136.817 64.1168C137.421 64.0975 138.008 64.0651 138.581 64.0194C139.382 63.9556 140.16 63.7784 140.914 63.4878C141.666 63.1687 142.324 62.7563 142.889 62.2505C143.479 61.7139 143.932 61.0731 144.247 60.328C144.562 59.583 144.682 58.7384 144.607 57.7941C144.488 56.3061 143.962 55.3114 143.03 54.8098C142.126 54.306 140.887 54.1168 139.313 54.2423C138.912 54.2742 138.429 54.3559 137.864 54.4874C137.296 54.5903 136.9 54.6795 136.676 54.7549L135.473 64.0513Z" fill="#074989"/>
<path d="M157.691 36.7085L163.271 36.2636L174.603 35.36L173.904 40.6855L162.573 41.589L161.628 48.705L171.973 47.8802L171.231 53.209L160.973 54.027L159.97 61.4932L171.516 60.5726L170.861 65.8946L159.315 66.8152L153.735 67.2601L157.691 36.7085Z" fill="#074989"/>
<path d="M180.118 35.2227C181.301 34.8979 182.561 34.6247 183.896 34.403C185.259 34.1504 186.626 33.9694 188 33.8599C189.459 33.7435 190.818 33.8079 192.076 34.0532C193.36 34.2676 194.487 34.6816 195.457 35.2954C196.456 35.9068 197.257 36.7357 197.859 37.782C198.458 38.7996 198.817 40.0524 198.936 41.5404C199.114 43.7723 198.877 45.6774 198.225 47.2555C197.571 48.8051 196.638 50.1033 195.426 51.1503C194.24 52.1663 192.847 52.9397 191.248 53.4703C189.647 53.9724 188.002 54.2907 186.314 54.4253C186.171 54.4367 185.942 54.455 185.627 54.4801C185.341 54.5029 185.026 54.528 184.683 54.5554C184.366 54.5519 184.049 54.5483 183.732 54.5448C183.443 54.539 183.226 54.5275 183.081 54.5103L181.76 65.0255L176.18 65.4705L180.118 35.2227ZM183.793 49.3566C183.91 49.3761 184.069 49.3921 184.272 49.4048C184.475 49.4174 184.691 49.4289 184.923 49.4393C185.18 49.4187 185.409 49.4005 185.609 49.3845C185.838 49.3663 186.01 49.3526 186.124 49.3434C187.097 49.2659 188.019 49.0916 188.89 48.8205C189.788 48.5186 190.562 48.1114 191.212 47.5988C191.86 47.0576 192.353 46.3847 192.692 45.5802C193.06 44.7733 193.199 43.812 193.11 42.696C193.044 41.8662 192.846 41.1908 192.517 40.67C192.216 40.1468 191.825 39.7605 191.344 39.5108C190.862 39.2326 190.301 39.0613 189.662 38.997C189.052 38.9305 188.404 38.9246 187.717 38.9794C187.202 39.0204 186.703 39.089 186.222 39.185C185.766 39.2501 185.383 39.3238 185.073 39.4062L183.793 49.3566Z" fill="#074989"/>
<path d="M219.377 45.5689L220.317 41.6497L220.06 41.6702L217.641 46.0097L204.929 63.1781L200.637 63.5204L204.593 32.9687L210.173 32.5238L208.062 48.8468L207.09 52.8983L207.347 52.8778L209.841 48.4026L222.492 31.5415L226.784 31.1993L222.827 61.751L217.247 62.1959L219.377 45.5689Z" fill="#074989"/>
<path d="M252.383 34.4278L244.057 35.0918L240.755 60.3214L235.219 60.7629L238.477 35.5367L230.15 36.2006L230.848 30.8752L253.039 29.1058L252.383 34.4278Z" fill="#074989"/>
<path d="M257.154 28.7777L262.734 28.3328L274.065 27.4292L273.367 32.7547L262.035 33.6582L261.091 40.7742L271.435 39.9494L270.694 45.2782L260.435 46.0962L259.433 53.5624L270.979 52.6418L270.323 57.9638L258.777 58.8844L253.197 59.3294L257.154 28.7777Z" fill="#074989"/>
<path d="M177.534 84.8439L171.512 85.1226C170.979 87.8772 170.463 90.3867 169.964 92.6512C169.494 94.9144 168.999 96.9488 168.48 98.7545C167.988 100.559 167.445 102.164 166.849 103.571C166.253 104.978 165.592 106.216 164.866 107.284C164.381 107.996 163.862 108.58 163.309 109.037C162.784 109.492 162.241 109.862 161.679 110.147C161.145 110.402 160.622 110.584 160.11 110.694C159.599 110.832 159.114 110.912 158.655 110.934C157.336 110.995 156.295 110.842 155.531 110.475L156.973 105.322C157.119 105.372 157.264 105.409 157.409 105.431C157.583 105.451 157.741 105.459 157.884 105.452C158.373 105.458 158.855 105.321 159.331 105.04C159.835 104.758 160.289 104.32 160.692 103.727C161.179 103.072 161.682 102.13 162.199 100.899C162.717 99.6678 163.233 98.0921 163.748 96.1717C164.291 94.25 164.832 91.9692 165.371 89.3293C165.938 86.6881 166.514 83.601 167.097 80.0682L172.388 79.8234L178.367 79.5466L183.958 79.2878L178.986 109.691L173.437 109.948L177.534 84.8439Z" fill="#074989"/>
<path d="M190.05 79.0059L195.641 78.7471L206.997 78.2215L206.121 83.5207L194.766 84.0463L193.585 91.1269L203.951 90.6471L203.033 95.9483L192.753 96.4241L191.502 103.853L203.072 103.317L202.24 108.614L190.669 109.15L185.078 109.409L190.05 79.0059Z" fill="#074989"/>
<path d="M231.968 82.3243L223.624 82.7105L219.484 107.816L213.936 108.073L218.032 82.9694L209.688 83.3556L210.564 78.0564L232.801 77.0271L231.968 82.3243Z" fill="#074989"/>
<path d="M250.079 93.7707L239.627 94.2545L237.544 106.98L231.952 107.239L236.924 76.8362L242.516 76.5774L240.503 88.9553L250.955 88.4715L252.968 76.0937L258.559 75.8348L253.587 106.238L247.996 106.497L250.079 93.7707Z" fill="#074989"/>
<path d="M278.981 88.6398L280.051 84.754L279.793 84.7659L277.231 89.0225L263.954 105.758L259.653 105.957L264.625 75.5541L270.217 75.2953L267.563 91.539L266.456 95.5558L266.714 95.5439L269.356 91.1543L282.561 74.7239L286.862 74.5248L281.89 104.928L276.298 105.187L278.981 88.6398Z" fill="#074989"/>
<path d="M292.914 74.2447L298.505 73.9859L309.86 73.4603L308.985 78.7595L297.63 79.2851L296.449 86.3657L306.815 85.8859L305.896 91.1871L295.617 91.6629L294.366 99.0916L305.936 98.5561L305.103 103.853L293.533 104.389L287.942 104.648L292.914 74.2447Z" fill="#074989"/>
<path d="M340.109 102.233L334.517 102.492L327.764 102.804L322.173 103.063L327.145 72.6603L332.737 72.4015L328.597 97.5072L335.35 97.1946L339.489 72.0889L345.038 71.8321L340.941 96.9358L347.694 96.6233L351.791 71.5196L357.382 71.2607L352.41 101.664L346.862 101.92L340.109 102.233Z" fill="#074989"/>
<path d="M377.854 84.0634L378.924 80.1776L378.666 80.1895L376.105 84.4461L362.828 101.181L358.526 101.381L363.498 70.9777L369.09 70.7188L366.437 86.9625L365.329 90.9794L365.588 90.9674L368.229 86.5778L381.434 70.1475L385.736 69.9484L380.763 100.351L375.172 100.61L377.854 84.0634Z" fill="#074989"/>
<path d="M404.942 86.6027L394.49 87.0865L392.407 99.8124L386.815 100.071L391.787 69.6683L397.379 69.4095L395.365 81.7873L405.817 81.3035L407.831 68.9257L413.422 68.6669L408.45 99.0698L402.858 99.3286L404.942 86.6027Z" fill="#074989"/>
<path d="M441.553 67.3648L447.144 67.106L442.172 97.509L436.581 97.7678L441.553 67.3648ZM419.445 68.3881L425.036 68.1293L423.256 79.0308C423.626 78.9562 424.096 78.8626 424.666 78.7501C425.235 78.6375 425.85 78.5659 426.509 78.5354C427.886 78.4717 429.114 78.616 430.193 78.9684C431.3 79.2907 432.229 79.7937 432.979 80.4774C433.756 81.1311 434.354 81.9367 434.772 82.8944C435.188 83.8234 435.423 84.8614 435.476 86.0084C435.564 87.9009 435.327 89.6217 434.767 91.1706C434.205 92.6909 433.346 94.0094 432.191 95.1261C431.036 96.2428 429.597 97.1284 427.874 97.7828C426.15 98.4086 424.17 98.7732 421.934 98.8768C421.561 98.894 421.188 98.9113 420.815 98.9285C420.442 98.9458 420.212 98.9421 420.125 98.9174C419.609 98.9413 419.048 98.9385 418.444 98.909C417.839 98.8795 417.176 98.8383 416.455 98.7855C415.763 98.7313 415.112 98.6322 414.502 98.488L419.445 68.3881ZM420.862 93.4091C421.472 93.5532 422.25 93.6034 423.196 93.5596C424.142 93.5158 425.011 93.3463 425.802 93.0511C426.621 92.7545 427.321 92.3486 427.901 91.8332C428.479 91.2892 428.924 90.6508 429.235 89.918C429.545 89.1852 429.679 88.3457 429.635 87.3995C429.52 84.9048 427.942 83.7278 424.903 83.8685C424.53 83.8857 424.073 83.95 423.532 84.0612C422.99 84.1438 422.606 84.2334 422.381 84.33L420.862 93.4091Z" fill="#074989"/>
</svg>
