<svg width="212" height="61" viewBox="0 0 212 61" fill="none" xmlns="http://www.w3.org/2000/svg">
<path d="M24.4884 43.0854C33.5607 43.0854 40.554 54.8984 42.9166 60.8049C37.955 50.1732 21.6533 52.2996 20.2357 52.2996C18.8182 52.2996 13.148 43.0854 24.4884 43.0854Z" fill="#4D5A78"/>
<path d="M187.474 1.97845C180.621 3.83862 177.813 14.3929 177.266 19.4375C178.786 10.2118 191.547 8.51107 192.618 8.22042C193.689 7.92977 196.041 -0.346749 187.474 1.97845Z" fill="#4D5A78"/>
<path d="M207.916 18.1169C202.566 16.365 196.112 22.1333 193.553 25.2364C198.577 19.7877 207.769 24.2169 208.605 24.4906C209.441 24.7644 214.603 20.3067 207.916 18.1169Z" fill="#4C658F"/>
<path d="M196.909 38.4858C188.934 36.0601 179.349 45.492 175.553 50.5111C183.008 41.6662 196.72 48.0592 197.966 48.4383C199.212 48.8173 206.878 41.518 196.909 38.4858Z" fill="#607495"/>
<path d="M36.0522 17.9105C41.3289 20.945 41.1563 30.6572 40.4104 35.134C41.3407 26.8387 31.0959 22.7132 30.2714 22.2391C29.4469 21.7649 29.4562 14.1173 36.0522 17.9105Z" fill="#4C658F"/>
<path d="M7.03972 8.33551C13.0595 9.2382 16.4384 18.3453 17.3754 22.786C15.2184 14.7222 4.17472 14.6142 3.23413 14.4732C2.29354 14.3321 -0.485006 7.20714 7.03972 8.33551Z" fill="#4D5A78"/>
</svg>
