<svg width="301" height="86" viewBox="0 0 301 86" fill="none" xmlns="http://www.w3.org/2000/svg">
<path d="M34.7299 60.5981C47.6017 60.5981 57.5238 77.3584 60.8758 85.7385C53.8362 70.6543 30.7074 73.6711 28.6962 73.6711C26.685 73.6711 18.64 60.5981 34.7299 60.5981Z" fill="#4D5A78"/>
<path d="M265.974 2.27573C256.25 4.91493 252.267 19.8893 251.491 27.0467C253.648 13.9573 271.752 11.5442 273.272 11.1318C274.791 10.7195 278.129 -1.02327 265.974 2.27573Z" fill="#4D5A78"/>
<path d="M294.977 25.1731C287.387 22.6875 278.229 30.8715 274.599 35.2742C281.726 27.5436 294.769 33.8278 295.955 34.2162C297.14 34.6045 304.464 28.28 294.977 25.1731Z" fill="#4C658F"/>
<path d="M279.361 54.0722C268.045 50.6305 254.446 64.0125 249.061 71.1337C259.638 58.5845 279.092 67.655 280.86 68.1927C282.628 68.7305 293.505 58.3743 279.361 54.0722Z" fill="#607495"/>
<path d="M51.1364 24.8801C58.6231 29.1855 58.3782 42.9651 57.32 49.3168C58.6398 37.5474 44.1045 31.6941 42.9347 31.0214C41.7649 30.3487 41.7781 19.4983 51.1364 24.8801Z" fill="#4C658F"/>
<path d="M9.97382 11.295C18.5147 12.5757 23.3087 25.4969 24.6381 31.7974C21.5778 20.3564 5.90896 20.2032 4.57445 20.0031C3.23994 19.803 -0.702254 9.69405 9.97382 11.295Z" fill="#4D5A78"/>
</svg>
