<svg width="179" height="30" viewBox="0 0 179 30" fill="none" xmlns="http://www.w3.org/2000/svg">
<path d="M21.56 5.88H13.8L8.88 29H3.72L8.6 5.88L0.84 5.88L1.88 0.999998L22.56 0.999998L21.56 5.88ZM37.875 17.28L28.155 17.28L25.675 29H20.475L26.395 0.999998L31.595 0.999998L29.195 12.4L38.915 12.4L41.315 0.999998L46.515 0.999998L40.595 29H35.395L37.875 17.28ZM52.1559 0.999998L57.3559 0.999998L67.9159 0.999998L66.8759 5.88L56.3159 5.88L54.9159 12.4H64.5559L63.4759 17.28H53.9159L52.4359 24.12H63.1959L62.1959 29H51.4359H46.2359L52.1559 0.999998ZM91.5225 14.4L99.9225 14.4L97.2825 26.88C96.0825 27.8133 94.8158 28.4933 93.4825 28.92C92.1758 29.3467 90.7625 29.56 89.2425 29.56C87.7758 29.56 86.4158 29.3067 85.1625 28.8C83.9358 28.2933 82.8692 27.56 81.9625 26.6C81.0558 25.64 80.3492 24.4533 79.8425 23.04C79.3358 21.6267 79.0825 20.0133 79.0825 18.2C79.0825 15.1333 79.4958 12.48 80.3225 10.24C81.1758 8 82.3225 6.16 83.7625 4.72C85.2025 3.25333 86.8825 2.17333 88.8025 1.48C90.7225 0.786665 92.7492 0.439998 94.8825 0.439998C96.4025 0.439998 97.7492 0.573331 98.9225 0.839998C100.122 1.08 101.029 1.33333 101.642 1.6L99.5625 6.2C99.0025 5.93333 98.2958 5.72 97.4425 5.56C96.6158 5.4 95.6025 5.32 94.4025 5.32C92.9892 5.32 91.6825 5.58667 90.4825 6.12C89.2825 6.65333 88.2425 7.44 87.3625 8.48C86.4825 9.52 85.7892 10.8133 85.2825 12.36C84.8025 13.88 84.5625 15.6267 84.5625 17.6C84.5625 19.8133 85.0825 21.5467 86.1225 22.8C87.1625 24.0533 88.5625 24.68 90.3225 24.68C91.6292 24.68 92.7758 24.3467 93.7625 23.68L94.8825 18.36L90.8025 17.72L91.5225 14.4ZM116.441 22.8H108.281L104.961 29H99.4409L115.001 0.799998L118.841 0.799998L122.481 29H117.241L116.441 22.8ZM110.561 18.4H116.241L115.601 12.16L115.641 7.76H115.441L113.841 12.2L110.561 18.4ZM149.562 14.48L151.322 8.96H151.082L148.442 13.48L140.562 23.84H138.922L135.162 13.36L134.442 8.96H134.242L133.842 14.44L130.762 29H125.842L131.762 0.999998L136.362 0.999998L140.562 13.8L141.082 17H141.282L143.122 13.72L152.562 0.999998L157.562 0.999998L151.642 29H146.482L149.562 14.48ZM163.226 0.999998L168.426 0.999998L178.986 0.999998L177.946 5.88L167.386 5.88L165.986 12.4H175.626L174.546 17.28H164.986L163.506 24.12H174.266L173.266 29H162.506H157.306L163.226 0.999998Z" fill="white"/>
</svg>
